<?xml version="1.0" encoding="UTF-8"?>
<svg version="1.1" xmlns="http://www.w3.org/2000/svg" width="800" height="800">
<path d="M0 0 C264 0 528 0 800 0 C800 264 800 528 800 800 C536 800 272 800 0 800 C0 536 0 272 0 0 Z " fill="#FEFEFE" transform="translate(0,0)"/>
<path d="M0 0 C1.97782471 0.00845947 1.97782471 0.00845947 3.99560547 0.01708984 C37.34280107 0.43060326 70.08549476 12.29472731 95.3125 34.3125 C96.77623047 35.57707031 96.77623047 35.57707031 98.26953125 36.8671875 C106.31200698 43.94953799 112.90625715 51.71097144 119.3125 60.3125 C123.93806267 59.78313005 128.42956428 59.09926813 132.9921875 58.15673828 C170.51882619 50.78416988 209.31035309 60.14002995 241.12890625 80.74609375 C257.9853367 92.08839824 272.49301196 107.16740776 283.3125 124.3125 C283.87517578 125.20316162 283.87517578 125.20316162 284.44921875 126.11181641 C298.52407524 148.80331925 305.741768 174.33396577 305.625 201 C305.62081055 202.31492432 305.61662109 203.62984863 305.61230469 204.98461914 C305.49603067 215.03799241 304.64346609 224.54018338 302.3125 234.3125 C302.16264648 234.96702148 302.01279297 235.62154297 301.85839844 236.29589844 C299.97329475 244.40064358 297.42250281 251.99120789 294.0703125 259.60546875 C293.08734957 262.20687489 293.08734957 262.20687489 293.90234375 264.37890625 C295.67543757 266.81015678 297.65354498 268.90231275 299.75 271.0625 C315.39200378 287.8043546 325.88655771 308.46515417 332.3125 330.3125 C332.5384082 331.06740723 332.76431641 331.82231445 332.99707031 332.60009766 C343.13375413 368.18748763 335.47619452 407.56912623 318.4296875 439.61328125 C299.44546463 473.66901626 266.75147985 498.417504 229.69189453 509.64453125 C220.96244576 512.09515426 212.39078823 513.48246795 203.3125 513.3125 C203.003125 515.045 203.003125 515.045 202.6875 516.8125 C197.06432171 541.63204556 182.83089247 563.29429605 165.3125 581.3125 C164.78116455 581.86647461 164.2498291 582.42044922 163.70239258 582.99121094 C138.13029706 609.22530864 101.11432106 624.12973444 64.68481445 624.74389648 C22.9888615 624.81296154 -13.5332232 610.33360897 -43.15283203 580.90380859 C-54.03239594 569.62270813 -54.03239594 569.62270813 -56.6875 564.3125 C-61.09780592 564.75916815 -65.45546716 565.22403566 -69.80859375 566.06640625 C-106.17408381 573.00622425 -144.82381174 566.4443704 -175.81640625 545.74536133 C-177.45147709 544.61738471 -179.06964122 543.46502804 -180.6875 542.3125 C-181.7496875 541.56613281 -182.811875 540.81976562 -183.90625 540.05078125 C-214.51612008 517.5763014 -233.43331848 485.33057883 -240.6875 448.3125 C-241.02587891 446.69988281 -241.02587891 446.69988281 -241.37109375 445.0546875 C-245.77763619 420.31726993 -243.75770754 388.64370197 -231.9375 365.953125 C-230.52018343 363.47774266 -230.52018343 363.47774266 -230.75390625 361.1796875 C-231.98871089 358.71007823 -233.57548011 357.28891164 -235.625 355.4375 C-257.42553794 334.25884746 -272.47226994 299.99784741 -273.84863281 269.77416992 C-274.19348679 239.13229041 -271.10093623 212.4976986 -255.6875 185.3125 C-255.31254395 184.64911621 -254.93758789 183.98573242 -254.55126953 183.30224609 C-248.63994552 173.01344017 -241.7214191 164.0257146 -233.6875 155.3125 C-232.67429687 154.19294922 -232.67429687 154.19294922 -231.640625 153.05078125 C-212.91032895 133.3199352 -187.26825212 120.07609981 -161.125 113.5625 C-160.25012939 113.33925049 -159.37525879 113.11600098 -158.47387695 112.88598633 C-152.45716008 111.45192971 -146.86367721 111.04415061 -140.6875 111.3125 C-140.605 110.405 -140.5225 109.4975 -140.4375 108.5625 C-135.87990745 78.1177818 -111.70215282 48.74583603 -88.5 30.125 C-72.68759462 18.44341741 -55.31950266 9.88337093 -36.4375 4.5 C-35.75357178 4.30486816 -35.06964355 4.10973633 -34.36499023 3.90869141 C-23.01122136 0.87154818 -11.72209635 -0.05282263 0 0 Z " fill="#020202" transform="translate(368.6875,87.6875)"/>
<path d="M0 0 C4.00370005 1.29303689 7.47802781 2.68380102 11.09765625 4.8359375 C12.05438232 5.40014404 13.0111084 5.96435059 13.99682617 6.5456543 C15.00849854 7.14933838 16.0201709 7.75302246 17.0625 8.375 C19.20522533 9.64017661 21.34846513 10.90448227 23.4921875 12.16796875 C25.11398926 13.12582275 25.11398926 13.12582275 26.76855469 14.10302734 C32.58433892 17.51709832 38.44857948 20.84573133 44.31079102 24.17919922 C45.11959717 24.63955566 45.92840332 25.09991211 46.76171875 25.57421875 C47.46256592 25.97213623 48.16341309 26.37005371 48.88549805 26.7800293 C49.58328369 27.18261963 50.28106934 27.58520996 51 28 C52.28389917 28.57661172 52.28389917 28.57661172 53.59373569 29.16487217 C56 31 56 31 56.62082577 33.92810726 C56.61780878 35.73679208 56.61780878 35.73679208 56.61473083 37.58201599 C56.62041409 38.25398217 56.62609735 38.92594834 56.63195282 39.61827713 C56.64489728 41.87561937 56.62203259 44.13118272 56.59936523 46.38842773 C56.60122872 48.00485104 56.60526413 49.62127309 56.61131287 51.23768616 C56.62131287 55.63511315 56.60006883 60.03189853 56.57283282 64.42923236 C56.54901712 69.03606611 56.55194778 73.64288677 56.55152893 78.24977112 C56.54689519 85.99662125 56.52322827 93.74322629 56.48706055 101.48999023 C56.44545619 110.42451501 56.42775358 119.35881844 56.4244408 128.29343456 C56.42082685 137.82118719 56.40191746 147.34886096 56.37732053 156.87658048 C56.37111622 159.61119129 56.36746435 162.34579607 56.36428642 165.08041191 C56.35833987 169.39866402 56.34190083 173.71676131 56.31768227 178.03494835 C56.3103043 179.61181692 56.30617439 181.18870491 56.30570221 182.76559067 C56.29843764 195.095048 55.47593149 206.57080637 50.75 218.0625 C50.4398999 218.83343994 50.1297998 219.60437988 49.81030273 220.39868164 C38.15632774 248.81101904 16.61306178 269.97672869 -11.52832031 281.89355469 C-34.17683574 291.00524901 -60.69089012 292.62798124 -84 285 C-85.11890625 284.63777344 -86.2378125 284.27554687 -87.390625 283.90234375 C-103.89129052 278.02348345 -126.480439 266.7107453 -135.23828125 250.7421875 C-135.61533203 249.87980469 -135.61533203 249.87980469 -136 249 C-126.77235878 243.17922446 -117.35437874 237.73496118 -107.87109375 232.34375 C-101.52385216 228.73464001 -95.19824186 225.08845515 -88.875 221.4375 C-87.76616455 220.7973999 -86.6573291 220.1572998 -85.51489258 219.49780273 C-78.42865519 215.40566166 -71.34551256 211.30819478 -64.265625 207.20507812 C-58.60897668 203.92789023 -52.94536812 200.66288911 -47.28051758 197.39990234 C-41.85101956 194.27119742 -36.4245802 191.13722286 -31 188 C-30.10780762 187.48421387 -29.21561523 186.96842773 -28.29638672 186.43701172 C-25.96593679 185.0872261 -23.63855276 183.73234553 -21.3125 182.375 C-20.33482666 181.80930298 -20.33482666 181.80930298 -19.33740234 181.23217773 C-17.54161913 180.17969797 -15.76885833 179.09702038 -14 178 C-13.38431152 177.63680664 -12.76862305 177.27361328 -12.13427734 176.89941406 C-7.2716891 173.80210912 -4.87350632 170.44778038 -3 165 C-2.39963777 161.18579309 -2.3279299 157.41563467 -2.28344727 153.55908203 C-2.25552125 152.43120333 -2.22759523 151.30332462 -2.19882298 150.14126778 C-2.11275529 146.42762947 -2.05521552 142.71421579 -2 139 C-1.95040849 136.43713707 -1.89992913 133.87429117 -1.84860229 131.3114624 C-1.70397616 123.63981787 -1.59573262 115.96793973 -1.49474788 108.29561377 C-1.44368817 104.46935159 -1.38892701 100.64314212 -1.33460999 96.81692505 C-1.23294676 89.61775826 -1.13446458 82.41855186 -1.03721577 75.21932423 C-0.92607427 67.00360605 -0.8112487 58.78794053 -0.69616115 50.57227683 C-0.46009798 33.71490534 -0.22850698 16.85747565 0 0 Z " fill="#FDFDFD" transform="translate(482,385)"/>
<path d="M0 0 C1.31629395 0.00757324 2.63258789 0.01514648 3.98876953 0.02294922 C13.69106829 0.18731362 21.9844694 1.17011657 31.125 4.4375 C32.43973288 4.86702356 33.75485043 5.29537113 35.0703125 5.72265625 C54.10314608 12.14804537 73.00253767 23.24824004 84.125 40.4375 C71.72467336 47.98819394 59.1462384 55.22444529 46.56103516 62.46142578 C41.03862989 65.63737777 35.51884662 68.81786888 30 72 C28.92685547 72.61866943 27.85371094 73.23733887 26.74804688 73.87475586 C18.42477337 78.6774655 10.12361826 83.51735682 1.82958984 88.37036133 C-3.82861477 91.67637884 -9.50659463 94.94365768 -15.20800781 98.17456055 C-22.49649586 102.30919625 -29.7690874 106.4723279 -36.9375 110.8125 C-37.58654297 111.1930957 -38.23558594 111.57369141 -38.90429688 111.96582031 C-44.047546 115.13408387 -46.96698406 118.71345219 -48.875 124.4375 C-49.10545566 126.86314469 -49.27934874 129.26417473 -49.40625 131.69580078 C-49.44778198 132.4749843 -49.48931396 133.25416782 -49.53210449 134.05696297 C-50.12783075 146.40370268 -50.19366013 158.76944602 -50.34732056 171.12783957 C-50.39434101 174.82575953 -50.44637959 178.52360861 -50.49804688 182.22146606 C-50.6501689 193.17485244 -50.79397206 204.12834633 -50.9375 215.08184814 C-51.04962539 223.62829673 -51.16380151 232.17470911 -51.28351593 240.72105515 C-51.34460349 245.09817042 -51.40176961 249.47531283 -51.45579529 253.8525207 C-51.48198033 255.92186198 -51.51010122 257.99116642 -51.5390625 260.06047058 C-51.57412583 262.56598252 -51.60628898 265.07153772 -51.63476562 267.57713318 C-51.74374 274.90195952 -52.16715424 282.14604357 -52.875 289.4375 C-60.96641572 285.4863777 -68.81281214 281.27197547 -76.5625 276.6875 C-77.5932666 276.08204346 -78.6240332 275.47658691 -79.68603516 274.8527832 C-82.75122455 273.0513957 -85.81338735 271.24495807 -88.875 269.4375 C-91.42253489 267.93714782 -93.97054315 266.43760412 -96.51879883 264.93847656 C-97.97113619 264.0835061 -99.4228309 263.22744271 -100.8737793 262.37011719 C-104.32933002 260.32210277 -104.32933002 260.32210277 -107.875 258.4375 C-107.96870059 236.80939443 -108.03910476 215.18132263 -108.08224869 193.55305481 C-108.10281919 183.50925892 -108.13083363 173.46558961 -108.17675781 163.421875 C-108.21679516 154.66139987 -108.24247281 145.90101648 -108.25135398 137.14045238 C-108.25654029 132.50755128 -108.26861323 127.87491247 -108.29792023 123.24209595 C-108.3253573 118.86885614 -108.33338878 114.49598312 -108.32743073 110.12266541 C-108.32851846 108.52970883 -108.33630219 106.93673815 -108.3518219 105.34385681 C-108.57758235 80.94669901 -99.94502706 57.92407248 -83.875 39.4375 C-83.20984375 38.62796875 -82.5446875 37.8184375 -81.859375 36.984375 C-61.67533955 13.21206658 -30.95632061 -0.25128826 0 0 Z " fill="#FDFDFD" transform="translate(369.875,125.5625)"/>
<path d="M0 0 C0 21.12 0 42.24 0 64 C-6.6 67.63 -13.2 71.26 -20 75 C-26.15247767 78.59342476 -26.15247767 78.59342476 -32.28515625 82.21875 C-38.01548624 85.61228311 -43.7906036 88.92783825 -49.5625 92.25 C-58.05659494 97.14139738 -66.53765607 102.05387323 -75 107 C-85.43389573 113.09668197 -95.89458423 119.14586247 -106.3671875 125.17578125 C-110.34682085 127.46771358 -114.32279314 129.76570706 -118.29348755 132.07307434 C-120.05727036 133.09789083 -121.82174894 134.12149926 -123.58642578 135.14477539 C-125.79188817 136.42417071 -127.99608202 137.70575641 -130.19873047 138.98999023 C-154.6984864 153.18447997 -180.57315524 159.08896787 -208.8125 151.9375 C-239.56492639 143.33167773 -262.89301484 124.40075015 -279 97 C-287.68805529 80.73252147 -291.39905054 63.65547002 -291.375 45.3125 C-291.37411377 44.09022705 -291.37322754 42.8679541 -291.37231445 41.60864258 C-291.21052546 29.18045535 -289.08135358 18.3711666 -284 7 C-276.13592258 10.82395911 -268.51784337 14.9119277 -261 19.375 C-258.8965103 20.61313001 -256.79231395 21.85006006 -254.6875 23.0859375 C-253.59695312 23.7262793 -252.50640625 24.36662109 -251.3828125 25.02636719 C-245.61253483 28.39291776 -239.80566245 31.69502313 -234 35 C-224.21345335 40.57413561 -214.4676228 46.21378101 -204.75073242 51.90869141 C-196.85103173 56.52848454 -188.88868863 61.03107268 -180.9050293 65.50390625 C-174.71293277 68.98685901 -168.6591246 72.61543372 -162.71875 76.51171875 C-156.43444561 79.95183365 -150.8810722 80.66084728 -144 79 C-140.97175038 77.83432559 -138.19852527 76.34217665 -135.375 74.75 C-134.15466064 74.08508545 -134.15466064 74.08508545 -132.90966797 73.40673828 C-130.26244201 71.95619665 -127.62994587 70.48161918 -125 69 C-124.12537109 68.50918945 -123.25074219 68.01837891 -122.34960938 67.51269531 C-118.64576618 65.43114084 -114.9462469 63.34224913 -111.25341797 61.24121094 C-103.37336815 56.75798049 -95.44458855 52.36729131 -87.5 48 C-77.75616023 42.64266472 -68.05403633 37.21801098 -58.38842773 31.72045898 C-50.68662192 27.35441558 -42.90026864 23.15608263 -35.09790039 18.97314453 C-26.43551953 14.29987779 -17.94109971 9.35845602 -9.48852539 4.31665039 C-8.53582764 3.75196045 -7.58312988 3.18727051 -6.6015625 2.60546875 C-5.75932129 2.10168701 -4.91708008 1.59790527 -4.04931641 1.07885742 C-2 0 -2 0 0 0 Z " fill="#FDFDFD" transform="translate(455,464)"/>
<path d="M0 0 C23.03841574 19.68791255 36.17611193 43.44424456 40.03515625 73.59375 C40.31245731 77.7238006 40.36920913 81.83027461 40.34765625 85.96875 C40.34419189 87.06002197 40.34072754 88.15129395 40.3371582 89.27563477 C40.22736969 97.43213277 39.36169477 104.74697009 37.03515625 112.59375 C36.7721875 113.59148437 36.50921875 114.58921875 36.23828125 115.6171875 C34.88140436 120.56009615 34.88140436 120.56009615 34.03515625 122.59375 C33.37515625 122.92375 32.71515625 123.25375 32.03515625 123.59375 C29.89404297 122.64428711 29.89404297 122.64428711 27.21484375 121.12109375 C26.21678711 120.55825684 25.21873047 119.99541992 24.19042969 119.41552734 C23.10793945 118.79371582 22.02544922 118.1719043 20.91015625 117.53125 C19.23228027 116.57919678 19.23228027 116.57919678 17.52050781 115.60791016 C7.89714627 110.13999846 -1.65831963 104.55395868 -11.20703125 98.95703125 C-16.56421621 95.82052914 -21.94586078 92.72894821 -27.33984375 89.65625 C-35.08411317 85.244631 -42.81005467 80.8023967 -50.52734375 76.34375 C-53.83523213 74.43598392 -57.14343126 72.52875755 -60.45166016 70.62158203 C-62.88776899 69.21634943 -65.3220812 67.80805717 -67.75537109 66.39794922 C-70.95324953 64.54487305 -74.15421419 62.69722995 -77.35714722 60.85290527 C-78.5834764 60.14546888 -79.80870157 59.43611482 -81.03274536 58.72473145 C-82.74154486 57.73197983 -84.45468213 56.74670629 -86.16796875 55.76171875 C-87.14411133 55.19735107 -88.12025391 54.6329834 -89.12597656 54.05151367 C-95.69075968 50.68048512 -100.82520558 49.78738049 -107.96484375 51.59375 C-112.39154359 53.51706973 -116.49715245 55.89634022 -120.65234375 58.34375 C-121.84446577 59.02826261 -123.03759981 59.71101544 -124.23168945 60.39208984 C-126.65717695 61.77876356 -129.07703235 63.17451073 -131.4921875 64.57910156 C-136.52111097 67.50211127 -141.58742049 70.35872931 -146.65234375 73.21875 C-147.58054932 73.74557373 -148.50875488 74.27239746 -149.46508789 74.81518555 C-156.29393221 78.68279196 -163.17919127 82.43712885 -170.08984375 86.15625 C-178.35628674 90.60542448 -186.53999592 95.17209856 -194.67358398 99.85913086 C-205.31857589 105.97663253 -216.09165661 111.86290196 -226.85081482 117.77622986 C-230.50118173 119.78392057 -234.14426095 121.80412142 -237.78125 123.8359375 C-239.05125854 124.54532471 -239.05125854 124.54532471 -240.34692383 125.26904297 C-241.88288431 126.12831935 -243.41793515 126.98922452 -244.9519043 127.85205078 C-249.85567371 130.59375 -249.85567371 130.59375 -250.96484375 130.59375 C-250.96484375 109.47375 -250.96484375 88.35375 -250.96484375 66.59375 C-245.02484375 63.29375 -239.08484375 59.99375 -232.96484375 56.59375 C-229.12153029 54.37891743 -225.28699661 52.15646064 -221.46484375 49.90625 C-219.41047174 48.70258637 -217.35577252 47.49948107 -215.30078125 46.296875 C-213.7398877 45.38325195 -213.7398877 45.38325195 -212.14746094 44.45117188 C-206.80593256 41.33377789 -201.44833363 38.24437084 -196.08984375 35.15625 C-194.47263428 34.22401611 -194.47263428 34.22401611 -192.82275391 33.27294922 C-188.44021174 30.7472948 -184.05700452 28.22279571 -179.67382812 25.69824219 C-168.08801722 19.02418178 -156.50999924 12.33794032 -144.96484375 5.59375 C-143.0039526 4.45044134 -141.04301476 3.30721274 -139.08203125 2.1640625 C-135.31726385 -0.03092587 -131.55663013 -2.23273693 -127.79962158 -4.440979 C-126.04237562 -5.47232537 -124.28328512 -6.50044386 -122.5234375 -7.52734375 C-120.30155468 -8.82407399 -118.08259523 -10.12583186 -115.8671875 -11.43359375 C-79.3766901 -32.66190593 -32.58574498 -25.61248327 0 0 Z " fill="#FDFDFD" transform="translate(595.96484375,205.40625)"/>
<path d="M0 0 C0.00054477 0.74414878 0.00108953 1.48829756 0.00165081 2.2549963 C0.01663546 20.38406133 0.05915029 38.51287194 0.13209057 56.64179897 C0.16670452 65.40893254 0.19209136 74.17590946 0.19555664 82.94311523 C0.19860155 90.5870032 0.21916262 98.23061193 0.26052457 105.87439209 C0.28180871 109.91964968 0.29447897 113.96451074 0.28615379 118.00982475 C0.27858429 121.8226726 0.29455242 125.63471895 0.32806015 129.44742012 C0.33625879 130.84170292 0.33608436 132.23606595 0.32659721 133.63034058 C0.27648118 141.80978018 0.67887784 148.46373593 6 155 C8.31847908 157.00669945 10.69509377 158.51817715 13.375 160 C14.07979492 160.41459473 14.78458984 160.82918945 15.51074219 161.25634766 C16.96446747 162.10993199 18.42348908 162.95456103 19.88769531 163.79003906 C22.43695892 165.25029686 24.94850039 166.76739276 27.46020508 168.29101562 C29.30358777 169.40745529 31.1527612 170.51367048 33.00390625 171.6171875 C37.40187077 174.23907206 41.79576951 176.86768676 46.1875 179.5 C47.43563477 180.24793823 47.43563477 180.24793823 48.70898438 181.01098633 C54.74219617 184.63169723 60.75676134 188.28230043 66.76660156 191.94165039 C67.92771701 192.64862878 69.08884999 193.35557837 70.25 194.0625 C70.82907104 194.41504852 71.40814209 194.76759705 72.00476074 195.13082886 C83.25286711 201.97459591 94.56521112 208.70778298 105.90136719 215.40454102 C113.98826305 220.18553248 122.00995687 225.05826453 130 230 C133.26832152 232.00411762 136.54024149 234.00231854 139.8125 236 C140.61236328 236.48855469 141.41222656 236.97710937 142.23632812 237.48046875 C144.15743426 238.65383896 146.07865716 239.82701744 148 241 C145.04996214 243.30552433 142.01454714 245.22399315 138.765625 247.08203125 C137.72760742 247.67830322 136.68958984 248.2745752 135.62011719 248.88891602 C133.33970891 250.19051967 131.05910435 251.49177951 128.77832031 252.79272461 C127.59160718 253.47085955 126.40508569 254.14932997 125.21875 254.828125 C124.62205505 255.16944962 124.02536011 255.51077423 123.4105835 255.86244202 C119.28387036 258.23398568 115.21316252 260.68272647 111.15625 263.171875 C109.53928223 264.15256958 109.53928223 264.15256958 107.88964844 265.15307617 C105.83082566 266.40517982 103.78152433 267.6731052 101.74316406 268.95825195 C94.87717569 273.10006616 94.87717569 273.10006616 90.78125 272.6328125 C89.40453125 271.82457031 89.40453125 271.82457031 88 271 C86.88109375 270.38769531 85.7621875 269.77539062 84.609375 269.14453125 C83.31982492 268.3723273 82.03358706 267.59457584 80.75 266.8125 C79.23118764 265.90374535 77.71160548 264.99627648 76.19140625 264.08984375 C75.3627002 263.59468262 74.53399414 263.09952148 73.68017578 262.58935547 C68.70799599 259.64083202 63.69649763 256.76038116 58.6875 253.875 C57.03886963 252.92439697 57.03886963 252.92439697 55.35693359 251.95458984 C46.6192568 246.92129649 37.86260869 241.9216354 29.1027832 236.92703247 C19.94768213 231.70549734 10.83535978 226.4139934 1.74145508 221.08666992 C-5.11634332 217.07745139 -12.01460336 213.14559996 -18.9375 209.25 C-28.35929459 203.94460096 -37.73774908 198.5799611 -47 193 C-48.33224609 192.20916016 -48.33224609 192.20916016 -49.69140625 191.40234375 C-69.68790467 178.91757343 -83.54740086 154.56667366 -89 132 C-93.06946125 112.98207468 -93.09126698 91.58186503 -87 73 C-86.68651611 72.03199463 -86.68651611 72.03199463 -86.36669922 71.04443359 C-76.83542018 42.69334065 -56.32492906 21.99210898 -30.125 8.3125 C-23.6023414 5.1158226 -17.01196673 2.85787153 -10 1 C-9.34257812 0.80148438 -8.68515625 0.60296875 -8.0078125 0.3984375 C-5.3264018 -0.13367124 -2.72730832 -0.0236271 0 0 Z " fill="#FDFDFD" transform="translate(224,238)"/>
<path d="M0 0 C0.92683594 0.54140625 1.85367188 1.0828125 2.80859375 1.640625 C3.65454102 2.10202881 3.65454102 2.10202881 4.51757812 2.57275391 C6.50132863 3.67153475 8.43435364 4.83605139 10.37109375 6.015625 C11.89378025 6.92703711 13.41725298 7.83713664 14.94140625 8.74609375 C15.73836914 9.22224121 16.53533203 9.69838867 17.35644531 10.18896484 C21.45854081 12.61738577 25.60242332 14.97158003 29.74609375 17.328125 C46.11131465 26.65369364 62.42480632 36.0682171 78.68359375 45.578125 C86.73360694 50.28524009 94.80979916 54.94447185 102.909729 59.56509399 C104.67780362 60.57481833 106.4443144 61.58722893 108.21044922 62.6003418 C113.50985384 65.63718591 118.8161319 68.655895 124.17092896 71.59423828 C148.19029307 84.783256 148.19029307 84.783256 156.80859375 95.640625 C157.23978516 96.17478027 157.67097656 96.70893555 158.11523438 97.25927734 C174.07613979 117.29219999 182.25349987 140.72178099 182.18359375 166.265625 C182.18338226 166.97683502 182.18317078 167.68804504 182.18295288 168.42080688 C182.15144512 179.02100429 181.49595578 188.60616438 177.80859375 198.640625 C177.44636719 199.73117187 177.08414063 200.82171875 176.7109375 201.9453125 C172.16897331 214.78598415 165.78176446 226.39078366 156.80859375 236.640625 C156.256875 237.32382812 155.70515625 238.00703125 155.13671875 238.7109375 C141.47146685 255.30445767 118.93531722 268.48454825 97.80859375 272.640625 C95.47544383 272.6698808 93.14168617 272.67415447 90.80859375 272.640625 C90.8062054 271.89978637 90.80381704 271.15894773 90.80135632 270.39565945 C90.74218849 252.3591299 90.66662697 234.32273699 90.57287884 216.28635311 C90.52793692 207.56404263 90.48851855 198.84177283 90.4621582 190.11938477 C90.43916513 182.51585377 90.40575249 174.91245169 90.35989219 167.30902296 C90.33597758 163.284044 90.31723728 159.25919257 90.31097984 155.23414421 C90.30492097 151.44280978 90.28489243 147.6518016 90.25431824 143.86058807 C90.24555082 142.47191447 90.24181275 141.08319821 90.24358559 139.69449806 C90.26613654 127.88807914 90.26613654 127.88807914 84.49047852 117.93969727 C81.74156619 115.58316496 79.00496087 113.71300035 75.8984375 111.85546875 C75.33834488 111.5177948 74.77825226 111.18012085 74.20118713 110.83221436 C72.38687276 109.74059711 70.56663251 108.6593234 68.74609375 107.578125 C67.47746674 106.8174763 66.20924113 106.05615773 64.94140625 105.29418945 C61.80437802 103.41078681 58.6627224 101.53526665 55.51971436 99.66186523 C53.08263055 98.20735173 50.65048234 96.7446887 48.21875 95.28125 C44.2016896 92.8642782 40.18062223 90.45409986 36.15771484 88.046875 C32.14355253 85.64388447 28.13247699 83.23575085 24.12109375 80.828125 C18.74107994 77.59905766 13.36008704 74.37164913 7.9765625 71.1484375 C-6.74576195 62.33058712 -21.43960013 53.46727679 -36.08837891 44.52783203 C-38.89076293 42.82347101 -41.70137001 41.13387283 -44.515625 39.44921875 C-45.99114689 38.55511886 -47.46643193 37.6606279 -48.94140625 36.765625 C-49.5969751 36.37914795 -50.25254395 35.9926709 -50.92797852 35.59448242 C-52.67578125 34.5234375 -52.67578125 34.5234375 -55.19140625 32.640625 C-55.19140625 31.650625 -55.19140625 30.660625 -55.19140625 29.640625 C-54.46888672 29.22925293 -53.74636719 28.81788086 -53.00195312 28.39404297 C-50.19848375 26.79705717 -47.39595626 25.19842824 -44.59356689 23.59954834 C-42.69032187 22.51500708 -40.78543554 21.43339227 -38.88037109 20.35205078 C-32.6003528 16.78016215 -26.36126659 13.16309109 -20.19921875 9.390625 C-19.12091797 8.73723145 -18.04261719 8.08383789 -16.93164062 7.41064453 C-14.88879658 6.16796777 -12.85575249 4.90900392 -10.83398438 3.63232422 C-4.06694918 -0.45796735 -4.06694918 -0.45796735 0 0 Z " fill="#FDFDFD" transform="translate(485.19140625,289.359375)"/>
<path d="M0 0 C0.80083008 0.42555176 1.60166016 0.85110352 2.42675781 1.28955078 C3.09425049 1.62438477 3.76174316 1.95921875 4.44946289 2.30419922 C5.10841553 2.66545898 5.76736816 3.02671875 6.44628906 3.39892578 C7.20981689 3.817146 7.97334473 4.23536621 8.76000977 4.66625977 C9.57816162 5.1194458 10.39631348 5.57263184 11.23925781 6.03955078 C12.0993042 6.51400635 12.95935059 6.98846191 13.84545898 7.47729492 C23.90757164 13.06157451 33.83070573 18.88559517 43.74633789 24.72485352 C46.9606979 26.60123873 50.19519793 28.44294513 53.42675781 30.28955078 C53.42675781 51.40955078 53.42675781 72.52955078 53.42675781 94.28955078 C45.17675781 98.90955078 36.92675781 103.52955078 28.42675781 108.28955078 C18.08163336 114.27434012 18.08163336 114.27434012 7.89941406 120.52783203 C6.8359375 121.19169922 5.77246094 121.85556641 4.67675781 122.53955078 C3.32324219 123.41353516 3.32324219 123.41353516 1.94238281 124.30517578 C-0.57324219 125.28955078 -0.57324219 125.28955078 -2.85058594 124.75830078 C-3.7490625 124.27361328 -4.64753906 123.78892578 -5.57324219 123.28955078 C-6.19376465 122.96567383 -6.81428711 122.64179688 -7.45361328 122.30810547 C-9.78110861 121.080871 -12.084042 119.81449549 -14.38574219 118.53955078 C-15.24578857 118.06509521 -16.10583496 117.59063965 -16.99194336 117.10180664 C-27.05405602 111.51752705 -36.9771901 105.69350639 -46.89282227 99.85424805 C-50.10718227 97.97786283 -53.3416823 96.13615643 -56.57324219 94.28955078 C-56.57324219 73.16955078 -56.57324219 52.04955078 -56.57324219 30.28955078 C-44.19824219 23.22705078 -44.19824219 23.22705078 -40.0793457 20.88549805 C-33.71147269 17.26268882 -27.37886737 13.59304235 -21.10058594 9.81689453 C-19.91714214 9.11137298 -18.73339137 8.40636605 -17.54931641 7.7019043 C-15.30378665 6.36168503 -13.06679049 5.00704494 -10.83935547 3.63696289 C-9.82470215 3.03505127 -8.81004883 2.43313965 -7.76464844 1.81298828 C-6.8797876 1.27593262 -5.99492676 0.73887695 -5.08325195 0.18554688 C-2.57324219 -0.71044922 -2.57324219 -0.71044922 0 0 Z " fill="#FCFCFC" transform="translate(401.5732421875,337.71044921875)"/>
<path d="M0 0 C6.16241159 2.99561675 12.08763785 6.28976962 18 9.75 C18.87011719 10.25660156 19.74023438 10.76320313 20.63671875 11.28515625 C22.75909293 12.52126429 24.88014535 13.7595778 27 15 C23.43305279 19.84085692 23.43305279 19.84085692 20.7890625 20.8125 C20.19867188 21.204375 19.60828125 21.59625 19 22 C18.58712187 24.7764558 18.39444832 27.21889078 18.375 30 C18.23932384 37.76067616 18.23932384 37.76067616 16 40 C13.18604881 38.35663827 10.37408965 36.70989825 7.5625 35.0625 C6.76005859 34.59392578 5.95761719 34.12535156 5.13085938 33.64257812 C4.36708984 33.19462891 3.60332031 32.74667969 2.81640625 32.28515625 C1.75595093 31.66459351 1.75595093 31.66459351 0.67407227 31.03149414 C-1 30 -1 30 -2 29 C-2.25380234 24.52668042 -2.18522721 20.0421654 -2.1875 15.5625 C-2.20586914 13.66274414 -2.20586914 13.66274414 -2.22460938 11.72460938 C-2.22654297 10.51740234 -2.22847656 9.31019531 -2.23046875 8.06640625 C-2.23457764 6.95209229 -2.23868652 5.83777832 -2.24291992 4.68969727 C-2 2 -2 2 0 0 Z " fill="#060606" transform="translate(270,388)"/>
<path d="M0 0 C0 0.99 0 1.98 0 3 C0.66 3.33 1.32 3.66 2 4 C2 3.34 2 2.68 2 2 C3.65 1.67 5.3 1.34 7 1 C7 1.66 7 2.32 7 3 C8.093125 2.95875 9.18625 2.9175 10.3125 2.875 C14 3 14 3 17 5 C17 5.66 17 6.32 17 7 C17.66 7 18.32 7 19 7 C19.33 6.34 19.66 5.68 20 5 C21.7424767 8.02381136 22.25586912 10.21734006 22.265625 13.6953125 C22.26949219 15.01595703 22.26949219 15.01595703 22.2734375 16.36328125 C22.26570313 17.27464844 22.25796875 18.18601562 22.25 19.125 C22.26160156 20.50365234 22.26160156 20.50365234 22.2734375 21.91015625 C22.27085937 22.78800781 22.26828125 23.66585938 22.265625 24.5703125 C22.26336914 25.37227051 22.26111328 26.17422852 22.25878906 27.00048828 C22 29 22 29 20 31 C17.5 31.25 17.5 31.25 15 31 C13 29 13 29 12.77294922 27.12060547 C12.78342285 26.37697754 12.79389648 25.63334961 12.8046875 24.8671875 C12.81113281 24.06152344 12.81757813 23.25585938 12.82421875 22.42578125 C12.84097656 21.58402344 12.85773438 20.74226563 12.875 19.875 C12.88402344 19.02550781 12.89304687 18.17601562 12.90234375 17.30078125 C12.92594353 15.20040116 12.96181517 13.10016556 13 11 C11.35 11 9.7 11 8 11 C8 16.61 8 22.22 8 28 C7.34 28.33 6.68 28.66 6 29 C5.67 28.01 5.34 27.02 5 26 C4.67 25.67 4.34 25.34 4 25 C3.34 25.66 2.68 26.32 2 27 C1.505 20.565 1.505 20.565 1 14 C0.34 14 -0.32 14 -1 14 C-0.67 12.35 -0.34 10.7 0 9 C-3.28696233 8.20046862 -4.71023192 7.90341064 -8 9 C-8.66 9 -9.32 9 -10 9 C-13.0745356 9.7763932 -13.0745356 9.7763932 -15 12 C-14.67 9.69 -14.34 7.38 -14 5 C-13.34 5 -12.68 5 -12 5 C-12 4.34 -12 3.68 -12 3 C-8.4404533 -0.85617559 -4.90086449 -0.24504322 0 0 Z " fill="#F4F4F4" transform="translate(376,399)"/>
<path d="M0 0 C3.4375 1.25 3.4375 1.25 6 3 C6.875 5.1875 6.875 5.1875 7 7 C7.66 7 8.32 7 9 7 C9.34391226 11.83387785 9.35647814 15.93056558 7.8125 20.5625 C3.26379622 24.50470994 -2.15140847 24.17538149 -8 24 C-8.99 23.67 -9.98 23.34 -11 23 C-11.0868329 19.541824 -11.14033282 16.08392656 -11.1875 12.625 C-11.21263672 11.64015625 -11.23777344 10.6553125 -11.26367188 9.640625 C-11.27333984 8.69960938 -11.28300781 7.75859375 -11.29296875 6.7890625 C-11.3086792 5.91975098 -11.32438965 5.05043945 -11.34057617 4.15478516 C-11.22818604 3.44370605 -11.1157959 2.73262695 -11 2 C-7.27546083 -0.48302612 -4.31338314 -0.52899982 0 0 Z " fill="#0B0B0B" transform="translate(466,373)"/>
<path d="M0 0 C0 9.57 0 19.14 0 29 C-9.05301645 27.86837294 -9.05301645 27.86837294 -11.9375 25.1875 C-12.50339844 24.68605469 -13.06929688 24.18460937 -13.65234375 23.66796875 C-16.51662381 20.12290328 -16.32921112 15.64704557 -16.29296875 11.26171875 C-15.82141554 7.62132794 -14.39424513 5.74634 -12 3 C-11.34 3 -10.68 3 -10 3 C-10 2.34 -10 1.68 -10 1 C-7 0 -7 0 0 0 Z " fill="#262626" transform="translate(345,400)"/>
<path d="M0 0 C4.90254746 1.71882142 9.18608784 4.3487726 13.625 7 C14.388125 7.45117188 15.15125 7.90234375 15.9375 8.3671875 C19.00693836 10.1873106 22.02974259 12.01982839 25 14 C24.52753358 18.25219775 22.22727623 20.37314725 19 23 C16.6875 22.8125 16.6875 22.8125 15 22 C15.66 22 16.32 22 17 22 C17 21.34 17 20.68 17 20 C16.01 20 15.02 20 14 20 C14.3125 18.0625 14.3125 18.0625 15 16 C15.99 15.67 16.98 15.34 18 15 C18 14.34 18 13.68 18 13 C17.01 13.66 16.02 14.32 15 15 C11.8125 14.625 11.8125 14.625 9 14 C9 14.66 9 15.32 9 16 C9.99 16.33 10.98 16.66 12 17 C12 17.99 12 18.98 12 20 C11.01 20 10.02 20 9 20 C8.67 20.99 8.34 21.98 8 23 C5.5 21.625 5.5 21.625 3 20 C3 19.34 3 18.68 3 18 C2.34 18 1.68 18 1 18 C-1.36013736 12.09965659 -2.05076648 6.15229943 0 0 Z " fill="#F4F4F4" transform="translate(249,406)"/>
<path d="M0 0 C3.96 1.98 3.96 1.98 8 4 C7.01 4.495 7.01 4.495 6 5 C6.28151087 6.31471568 6.57553339 7.62675767 6.875 8.9375 C7.11863281 10.03384766 7.11863281 10.03384766 7.3671875 11.15234375 C7.82961523 13.20700294 7.82961523 13.20700294 10 14 C13.34155338 14.27699719 16.68285874 14.44700704 20.03125 14.62109375 C23 15 23 15 25 17 C24.44444444 21.55555556 24.44444444 21.55555556 23 23 C20.75268875 23.1264848 18.50083761 23.17582553 16.25 23.1875 C15.01765625 23.20167969 13.7853125 23.21585937 12.515625 23.23046875 C7.97374918 22.93272356 5.19146427 22.02598312 1.75 19.0625 C-1.24849248 15.52856244 -1.13584897 12.40185035 -1.125 7.9375 C-1.12757813 6.87402344 -1.13015625 5.81054688 -1.1328125 4.71484375 C-1 2 -1 2 0 0 Z " fill="#272727" transform="translate(301,406)"/>
<path d="M0 0 C0.99 0.33 1.98 0.66 3 1 C3.33 2.98 3.66 4.96 4 7 C1.64031256 9.09749995 0.45383006 9.96905704 -2.75 10.1875 C-3.4925 10.125625 -4.235 10.06375 -5 10 C-4.95875 11.0725 -4.9175 12.145 -4.875 13.25 C-5 17 -5 17 -7 21 C-7.33 17.7 -7.66 14.4 -8 11 C-8.04898437 11.81984375 -8.09796875 12.6396875 -8.1484375 13.484375 C-8.22320312 14.56203125 -8.29796875 15.6396875 -8.375 16.75 C-8.44460938 17.81734375 -8.51421875 18.8846875 -8.5859375 19.984375 C-8.9728223 22.80206432 -9.55686166 24.5830366 -11 27 C-10.01 26.34 -9.02 25.68 -8 25 C-9.75 28.875 -9.75 28.875 -12 30 C-13.54023996 30.06950541 -15.08334988 30.08452357 -16.625 30.0625 C-17.85089844 30.04896484 -17.85089844 30.04896484 -19.1015625 30.03515625 C-19.72804688 30.02355469 -20.35453125 30.01195312 -21 30 C-20.360625 29.71125 -19.72125 29.4225 -19.0625 29.125 C-16.84793921 28.17176549 -16.84793921 28.17176549 -16 26 C-17.65 26 -19.3 26 -21 26 C-20.505 24.515 -20.505 24.515 -20 23 C-16.535 22.505 -16.535 22.505 -13 22 C-12.97290556 19.91673869 -12.95356127 17.83337559 -12.9375 15.75 C-12.92589844 14.58984375 -12.91429687 13.4296875 -12.90234375 12.234375 C-12.98217908 9.59022872 -13.21356222 7.50173909 -14 5 C-13.34 5 -12.68 5 -12 5 C-12 4.34 -12 3.68 -12 3 C-8.42707398 -0.87066985 -4.92847185 -0.31291885 0 0 Z M-8 2 C-8 2.33 -8 2.66 -8 3 C-5.36 3 -2.72 3 0 3 C0 2.67 0 2.34 0 2 C-2.64 2 -5.28 2 -8 2 Z " fill="#F8F8F8" transform="translate(424,399)"/>
<path d="M0 0 C1.134375 0.020625 2.26875 0.04125 3.4375 0.0625 C3.46636338 4.54165328 3.48425187 9.02078291 3.5 13.5 C3.50837891 14.77939453 3.51675781 16.05878906 3.52539062 17.37695312 C3.52861328 18.59189453 3.53183594 19.80683594 3.53515625 21.05859375 C3.54039307 22.18450928 3.54562988 23.3104248 3.55102539 24.47045898 C3.4375 27.0625 3.4375 27.0625 2.4375 28.0625 C0.43791636 28.10330783 -1.56295254 28.10504356 -3.5625 28.0625 C-4.8866409 25.41421821 -4.69207042 23.39569888 -4.6953125 20.43359375 C-4.69660156 19.31662109 -4.69789063 18.19964844 -4.69921875 17.04882812 C-4.69535156 15.87771484 -4.69148438 14.70660156 -4.6875 13.5 C-4.69136719 12.32501953 -4.69523437 11.15003906 -4.69921875 9.93945312 C-4.69792969 8.82376953 -4.69664062 7.70808594 -4.6953125 6.55859375 C-4.69418457 5.52919678 -4.69305664 4.4997998 -4.69189453 3.43920898 C-4.48265437 -0.40409856 -4.00681918 0.07029507 0 0 Z " fill="#0D0D0D" transform="translate(462.5625,399.9375)"/>
<path d="M0 0 C2.64 1.32 5.28 2.64 8 4 C4.41162969 8.86993114 4.41162969 8.86993114 1.8984375 9.6640625 C1.27195312 10.10492188 0.64546875 10.54578125 0 11 C-0.41287813 13.7764558 -0.60555168 16.21889078 -0.625 19 C-0.76067616 26.76067616 -0.76067616 26.76067616 -3 29 C-6.465 27.02 -6.465 27.02 -10 25 C-9.34 24.67 -8.68 24.34 -8 24 C-8.05800781 22.91460937 -8.11601562 21.82921875 -8.17578125 20.7109375 C-8.22270558 19.26566824 -8.26820287 17.82035216 -8.3125 16.375 C-8.35439453 15.66214844 -8.39628906 14.94929688 -8.43945312 14.21484375 C-8.53168967 10.19333049 -8.19284608 7.69727217 -5.66796875 4.4765625 C-3 2 -3 2 0 2 C0 1.34 0 0.68 0 0 Z " fill="#292929" transform="translate(289,399)"/>
<path d="M0 0 C0.33 0 0.66 0 1 0 C1.33 10.56 1.66 21.12 2 32 C3.65 32.66 5.3 33.32 7 34 C7.8125 36.125 7.8125 36.125 8 38 C7.01 37.67 6.02 37.34 5 37 C5.309375 37.61875 5.61875 38.2375 5.9375 38.875 C8.43271684 43.86543369 8.40199844 48.3387225 8.71875 53.91015625 C8.65571925 56.86908486 8.65571925 56.86908486 10 58 C10 53.05 10 48.1 10 43 C10.33 43 10.66 43 11 43 C11 48.28 11 53.56 11 59 C8.50907189 60.24546405 7.58919267 59.7767578 5 59 C4.93941406 57.92878906 4.87882812 56.85757813 4.81640625 55.75390625 C4.73201463 54.35675609 4.64736594 52.95962143 4.5625 51.5625 C4.52318359 50.85544922 4.48386719 50.14839844 4.44335938 49.41992188 C4.52375562 45.91309581 4.52375562 45.91309581 3 43 C3.33 48.61 3.66 54.22 4 60 C3.34 59.67 2.68 59.34 2 59 C1.505 61.475 1.505 61.475 1 64 C0.67 64 0.34 64 0 64 C0 42.88 0 21.76 0 0 Z " fill="#DDDDDD" transform="translate(345,368)"/>
<path d="M0 0 C1.98 0.99 3.96 1.98 6 3 C6.04939662 6.95096978 6.08571755 10.9018203 6.10986328 14.85302734 C6.12488107 16.8591136 6.15028981 18.86511324 6.17578125 20.87109375 C6.18222656 22.12792969 6.18867188 23.38476562 6.1953125 24.6796875 C6.20578613 25.84226074 6.21625977 27.00483398 6.22705078 28.20263672 C6 31 6 31 4 33 C1.10127502 31.87865113 -0.12041152 31.38964774 -2 29 C-2.84715078 24.45519292 -2.65258716 19.98122474 -2.5 15.375 C-2.4896875 14.12203125 -2.479375 12.8690625 -2.46875 11.578125 C-2.30858516 2.30858516 -2.30858516 2.30858516 0 0 Z " fill="#2C2C2C" transform="translate(270,388)"/>
<path d="M0 0 C0.33 0 0.66 0 1 0 C1.03738281 0.89203125 1.07476562 1.7840625 1.11328125 2.703125 C1.17902344 3.87359375 1.24476563 5.0440625 1.3125 6.25 C1.37050781 7.41015625 1.42851562 8.5703125 1.48828125 9.765625 C2.02449628 13.15483143 2.54739163 14.63822898 5 17 C8.60465748 17.81314911 8.60465748 17.81314911 12 18 C12 17.34 12 16.68 12 16 C10.88625 16.3403125 10.88625 16.3403125 9.75 16.6875 C7 17 7 17 4.6875 15.5625 C3.8521875 14.7890625 3.8521875 14.7890625 3 14 C3.33 13.01 3.66 12.02 4 11 C4.99 12.485 4.99 12.485 6 14 C6.66 14 7.32 14 8 14 C7.50886719 13.61199219 7.01773437 13.22398437 6.51171875 12.82421875 C4.49274247 10.38788304 4.69101195 8.93069328 4.8125 5.8125 C4.85310547 4.46091797 4.85310547 4.46091797 4.89453125 3.08203125 C4.92933594 2.39496094 4.96414063 1.70789063 5 1 C5.33 1 5.66 1 6 1 C6.33 4.63 6.66 8.26 7 12 C7.99 12 8.98 12 10 12 C10.66 10.68 11.32 9.36 12 8 C12.99 8 13.98 8 15 8 C15.66 7.67 16.32 7.34 17 7 C17.66 7.33 18.32 7.66 19 8 C19 7.34 19 6.68 19 6 C16.525 5.505 16.525 5.505 14 5 C14 4.67 14 4.34 14 4 C15.98 4 17.96 4 20 4 C20.33 5.65 20.66 7.3 21 9 C20.01 9.495 20.01 9.495 19 10 C18.27840576 11.64363134 17.60648579 13.31050386 17 15 C17.66 15 18.32 15 19 15 C17.52661706 19.66571265 17.52661706 19.66571265 15.203125 21.140625 C12.83438928 22.06459993 11.03594302 22.33157632 8.5 22.375 C7.7471875 22.40335937 6.994375 22.43171875 6.21875 22.4609375 C2.91894561 21.77541476 1.89784961 20.79548118 0 18 C-0.48048325 14.90013228 -0.37703958 11.87712819 -0.25 8.75 C-0.23195313 7.90953125 -0.21390625 7.0690625 -0.1953125 6.203125 C-0.14830798 4.13492605 -0.07656724 2.06731559 0 0 Z " fill="#F3F3F3" transform="translate(432,407)"/>
<path d="M0 0 C0.1953125 6.0546875 0.1953125 6.0546875 0 8 C-0.66 8.66 -1.32 9.32 -2 10 C-2.2812756 12.69096657 -2.46581869 15.30235561 -2.5625 18 C-2.88142857 25.76285714 -2.88142857 25.76285714 -4 28 C-5.66611905 28.042721 -7.33382885 28.04063832 -9 28 C-11.21892443 25.78107557 -10.2323678 20.79013804 -10.25 17.8125 C-10.270625 16.96107422 -10.29125 16.10964844 -10.3125 15.23242188 C-10.34430594 10.09178662 -9.98426017 6.39310858 -7 2 C-2.45454545 0 -2.45454545 0 0 0 Z " fill="#292929" transform="translate(482,400)"/>
<path d="M0 0 C0.33 0 0.66 0 1 0 C1.20638953 24.98265839 1.20638953 24.98265839 0 35 C-1.89957501 34.09111244 -3.79450786 33.17251969 -5.6875 32.25 C-6.74324219 31.73953125 -7.79898437 31.2290625 -8.88671875 30.703125 C-11.90003083 29.05468828 -14.39287648 27.22500338 -17 25 C-15.576875 24.5359375 -15.576875 24.5359375 -14.125 24.0625 C-11.13919592 23.12605258 -11.13919592 23.12605258 -9 22 C-9 21.01 -9 20.02 -9 19 C-6.03 19 -3.06 19 0 19 C0 12.73 0 6.46 0 0 Z " fill="#F5F5F5" transform="translate(317,380)"/>
<path d="M0 0 C2.53409304 1.13393269 4.66202311 2.47315795 7 4 C6.375 10.625 6.375 10.625 3 14 C-2.28 11.03 -7.56 8.06 -13 5 C-12.34 4.67 -11.68 4.34 -11 4 C-11 3.34 -11 2.68 -11 2 C-7.32307542 -0.35323173 -4.29485546 -0.43676496 0 0 Z " fill="#080808" transform="translate(530,400)"/>
<path d="M0 0 C3.29416492 2.43481755 4.78511449 3.87782011 5.5625 7.9375 C4.8627824 11.74707359 3.38777961 13.98016108 1 17 C-1.98997825 18.49498913 -4.70042775 18.11577446 -8 18 C-8.99 17.67 -9.98 17.34 -11 17 C-11 15.68 -11 14.36 -11 13 C-7.04 13 -3.08 13 1 13 C1.16677282 9.58343976 1.16677282 9.58343976 1 6 C0.34 5.34 -0.32 4.68 -1 4 C-2.32 4 -3.64 4 -5 4 C-5.33 5.98 -5.66 7.96 -6 10 C-5.01 10 -4.02 10 -3 10 C-3 9.01 -3 8.02 -3 7 C-2.34 7 -1.68 7 -1 7 C-1.33 8.65 -1.66 10.3 -2 12 C-4.375 12.125 -4.375 12.125 -7 12 C-9 10 -9 10 -9.3125 6.5625 C-9 3 -9 3 -7.875 1.0625 C-5.01486651 -0.55824231 -3.23391331 -0.51742613 0 0 Z " fill="#2B2B2B" transform="translate(466,379)"/>
<path d="M0 0 C3.7910119 1.44950455 7.3874638 3.15172566 11 5 C8.8614515 7.1385485 7.86724686 7.42655063 5 8 C5 7.34 5 6.68 5 6 C2.56282742 6.27034634 2.56282742 6.27034634 0 7 C-0.99 8.485 -0.99 8.485 -2 10 C-0.02 11.32 1.96 12.64 4 14 C0.35014884 15.35179673 -1.52828653 14.55313497 -5 13 C-5.66 13 -6.32 13 -7 13 C-7.33 13.99 -7.66 14.98 -8 16 C-10.21854707 11.37802694 -11.38281159 8.23175837 -11 3 C-10.01 3.495 -10.01 3.495 -9 4 C-8.34 3.34 -7.68 2.68 -7 2 C-5.65938457 2.30271961 -4.32594105 2.63837971 -3 3 C-2.01 2.67 -1.02 2.34 0 2 C0 1.34 0 0.68 0 0 Z " fill="#F3F3F3" transform="translate(524,409)"/>
<path d="M0 0 C0 1.32 0 2.64 0 4 C-1.6396875 4.4021875 -1.6396875 4.4021875 -3.3125 4.8125 C-7.4291979 5.98907554 -7.4291979 5.98907554 -10 9 C-10.73041853 12.61023099 -10.73041853 12.61023099 -11 16 C-10.34 16 -9.68 16 -9 16 C-9 16.99 -9 17.98 -9 19 C-6.36 19.66 -3.72 20.32 -1 21 C-1 21.99 -1 22.98 -1 24 C-7.35411471 24.48877805 -7.35411471 24.48877805 -10.3125 22.25 C-13.40368105 18.12842527 -14.46575237 15.36788479 -14.31640625 10.03125 C-13.78254307 6.60398018 -12.25665977 4.56161379 -10 2 C-6.60288868 0.08368079 -3.86464681 -0.22083696 0 0 Z " fill="#050505" transform="translate(345,402)"/>
<path d="M0 0 C0.99 0.33 1.98 0.66 3 1 C2.97679687 1.61488281 2.95359375 2.22976563 2.9296875 2.86328125 C2.91164063 3.67152344 2.89359375 4.47976563 2.875 5.3125 C2.84019531 6.51326172 2.84019531 6.51326172 2.8046875 7.73828125 C2.84182678 10.28388576 2.84182678 10.28388576 5 13 C8.16245541 14.0541518 10.86948218 14.31275672 14.1875 14.5625 C15.27417969 14.64628906 16.36085938 14.73007812 17.48046875 14.81640625 C18.31191406 14.87699219 19.14335937 14.93757813 20 15 C20 16.32 20 17.64 20 19 C7.10701444 19.68864611 7.10701444 19.68864611 3.3125 17.1875 C0.7739218 14.78614224 -0.89021611 13.14807902 -1.23046875 9.58984375 C-1.21628906 8.71457031 -1.20210938 7.83929688 -1.1875 6.9375 C-1.18105469 6.05964844 -1.17460937 5.18179687 -1.16796875 4.27734375 C-1 2 -1 2 0 0 Z " fill="#060606" transform="translate(303,408)"/>
<path d="M0 0 C3.4375 1.25 3.4375 1.25 6 3 C6.875 5.1875 6.875 5.1875 7 7 C7.66 7 8.32 7 9 7 C9.63019694 16.01531729 9.63019694 16.01531729 7 20.125 C6.34 20.74375 5.68 21.3625 5 22 C5.08378906 21.16855469 5.16757812 20.33710938 5.25390625 19.48046875 C5.35574219 18.39378906 5.45757812 17.30710937 5.5625 16.1875 C5.66691406 15.10855469 5.77132813 14.02960938 5.87890625 12.91796875 C6.17577609 9.93517546 6.17577609 9.93517546 5 7 C4.01 6.67 3.02 6.34 2 6 C2 5.34 2 4.68 2 4 C0.58249437 4.11509661 -0.83401169 4.24253658 -2.25 4.375 C-3.03890625 4.44460938 -3.8278125 4.51421875 -4.640625 4.5859375 C-7.085877 5.01507113 -8.84836903 5.78600638 -11 7 C-11.1875 4.625 -11.1875 4.625 -11 2 C-7.27546083 -0.48302612 -4.31338314 -0.52899982 0 0 Z " fill="#2D2D2D" transform="translate(466,373)"/>
<path d="M0 0 C1.32 0 2.64 0 4 0 C4 8.58 4 17.16 4 26 C3.01 26.33 2.02 26.66 1 27 C-0.0394775 23.8815675 -0.11494838 21.72524414 -0.09765625 18.45703125 C-0.09443359 17.38388672 -0.09121094 16.31074219 -0.08789062 15.20507812 C-0.07951172 14.08552734 -0.07113281 12.96597656 -0.0625 11.8125 C-0.05798828 10.68134766 -0.05347656 9.55019531 -0.04882812 8.38476562 C-0.03703498 5.58979073 -0.0205765 2.7949218 0 0 Z " fill="#090909" transform="translate(269,391)"/>
<path d="M0 0 C2 1 2 1 4 3 C3.01 4.485 3.01 4.485 2 6 C1.54046372 8.93444341 1.54046372 8.93444341 1.375 12.125 C1.30023438 13.20007813 1.22546875 14.27515625 1.1484375 15.3828125 C1.04005256 17.19043814 1.04005256 17.19043814 1 19 C1.33 15.37 1.66 11.74 2 8 C2.33 8 2.66 8 3 8 C3.05423638 9.91635217 3.09289963 11.83314925 3.125 13.75 C3.14820313 14.81734375 3.17140625 15.8846875 3.1953125 16.984375 C3.00487687 19.92470106 2.52670104 21.52361878 1 24 C1.99 23.34 2.98 22.68 4 22 C2.25 25.875 2.25 25.875 0 27 C-1.54023996 27.06950541 -3.08334988 27.08452357 -4.625 27.0625 C-5.85089844 27.04896484 -5.85089844 27.04896484 -7.1015625 27.03515625 C-7.72804688 27.02355469 -8.35453125 27.01195312 -9 27 C-8.360625 26.71125 -7.72125 26.4225 -7.0625 26.125 C-4.84793921 25.17176549 -4.84793921 25.17176549 -4 23 C-5.65 23 -7.3 23 -9 23 C-8.505 21.515 -8.505 21.515 -8 20 C-4.535 19.505 -4.535 19.505 -1 19 C-0.97290556 16.91673869 -0.95356127 14.83337559 -0.9375 12.75 C-0.92589844 11.58984375 -0.91429687 10.4296875 -0.90234375 9.234375 C-0.98217908 6.59022872 -1.21356222 4.50173909 -2 2 C-1.34 2 -0.68 2 0 2 C0 1.34 0 0.68 0 0 Z " fill="#F0F0F0" transform="translate(412,402)"/>
<path d="M0 0 C2.82726984 2.82726984 2.28971809 4.96775124 2.32226562 8.83203125 C2.31904297 9.71246094 2.31582031 10.59289062 2.3125 11.5 C2.32861328 12.38042969 2.34472656 13.26085937 2.36132812 14.16796875 C2.36229492 15.43060547 2.36229492 15.43060547 2.36328125 16.71875 C2.36775269 17.87793945 2.36775269 17.87793945 2.37231445 19.06054688 C2.24945068 19.70056641 2.12658691 20.34058594 2 21 C-1 23 -1 23 -4.1875 22.625 C-5.115625 22.41875 -6.04375 22.2125 -7 22 C-6.505 20.515 -6.505 20.515 -6 19 C-5.85596652 17.66636297 -5.75409577 16.32781954 -5.68359375 14.98828125 C-5.64169922 14.23095703 -5.59980469 13.47363281 -5.55664062 12.69335938 C-5.51732422 11.90767578 -5.47800781 11.12199219 -5.4375 10.3125 C-5.39431641 9.51521484 -5.35113281 8.71792969 -5.30664062 7.89648438 C-5.20072632 5.93118553 -5.09987449 3.96561504 -5 2 C-4.67 2 -4.34 2 -4 2 C-4 6.95 -4 11.9 -4 17 C-3.34 17 -2.68 17 -2 17 C-2 13.37 -2 9.74 -2 6 C-1.67 6 -1.34 6 -1 6 C-0.67 9.63 -0.34 13.26 0 17 C0 11.39 0 5.78 0 0 Z " fill="#EFEFEF" transform="translate(507,407)"/>
<path d="M0 0 C0 4.29 0 8.58 0 13 C-1.65 13 -3.3 13 -5 13 C-5.66 11.68 -6.32 10.36 -7 9 C-7.66 9 -8.32 9 -9 9 C-9.24213848 6.09433826 -9.16185671 4.33270547 -7.875 1.6875 C-6 0 -6 0 0 0 Z " fill="#040404" transform="translate(345,408)"/>
<path d="M0 0 C0.66 0.66 1.32 1.32 2 2 C1.625 4.625 1.625 4.625 1 7 C-0.65 7.33 -2.3 7.66 -4 8 C-3.67 9.32 -3.34 10.64 -3 12 C-5.97 10.35 -8.94 8.7 -12 7 C-11.34 5.68 -10.68 4.36 -10 3 C-9.34 3 -8.68 3 -8 3 C-8 2.34 -8 1.68 -8 1 C-5.03104944 0.01034981 -3.0913386 -0.23779528 0 0 Z " fill="#2C2C2C" transform="translate(263,400)"/>
<path d="M0 0 C1.32 0.33 2.64 0.66 4 1 C3.01 1 2.02 1 1 1 C1 8.59 1 16.18 1 24 C1.66 24 2.32 24 3 24 C3.33 16.74 3.66 9.48 4 2 C4.33 2 4.66 2 5 2 C5 10.25 5 18.5 5 27 C3.02 27 1.04 27 -1 27 C-2.93627848 23.12744304 -2.18480603 18.3216696 -2.1875 14.0625 C-2.19974609 13.04736328 -2.21199219 12.03222656 -2.22460938 10.98632812 C-2.22654297 10.01244141 -2.22847656 9.03855469 -2.23046875 8.03515625 C-2.23457764 7.1419165 -2.23868652 6.24867676 -2.24291992 5.32836914 C-2 3 -2 3 0 0 Z " fill="#2D2D2D" transform="translate(460,401)"/>
<path d="M0 0 C0 0.66 0 1.32 0 2 C-0.97195313 2.52078125 -1.94390625 3.0415625 -2.9453125 3.578125 C-6.07091133 5.58650741 -6.07091133 5.58650741 -6.58886719 7.91601562 C-6.81450552 10.2091545 -6.88264202 12.44593157 -6.875 14.75 C-6.895625 15.54277344 -6.91625 16.33554687 -6.9375 17.15234375 C-6.98445818 19.10110815 -6.99574383 21.05067457 -7 23 C-7.99 23 -8.98 23 -10 23 C-10.11644156 19.91698584 -10.18732432 16.83453877 -10.25 13.75 C-10.28351563 12.87730469 -10.31703125 12.00460937 -10.3515625 11.10546875 C-10.45046177 4.6275664 -10.45046177 4.6275664 -8.171875 1.453125 C-4.98223626 -0.68094984 -3.70996317 -1.23665439 0 0 Z " fill="#050505" transform="translate(293,403)"/>
<path d="M0 0 C0.99 0.33 1.98 0.66 3 1 C5.05893621 1.22325814 7.12233653 1.40705759 9.1875 1.5625 C10.27417969 1.64628906 11.36085938 1.73007812 12.48046875 1.81640625 C13.72763672 1.90728516 13.72763672 1.90728516 15 2 C14.67 2.66 14.34 3.32 14 4 C13.34 4 12.68 4 12 4 C12 4.66 12 5.32 12 6 C12.66 6.33 13.32 6.66 14 7 C10.47320901 9.35119399 8.97120515 9.21443452 4.8125 9.125 C3.72582031 9.10695313 2.63914062 9.08890625 1.51953125 9.0703125 C0.27236328 9.03550781 0.27236328 9.03550781 -1 9 C-0.67 6.03 -0.34 3.06 0 0 Z " fill="#F5F4F5" transform="translate(437,397)"/>
<path d="M0 0 C0 1.32 0 2.64 0 4 C-0.64453125 4.57234375 -1.2890625 5.1446875 -1.953125 5.734375 C-4.85378373 8.94502779 -4.66978897 12.12277803 -4.75 16.25 C-4.79447266 17.36761719 -4.79447266 17.36761719 -4.83984375 18.5078125 C-4.9102343 20.33796672 -4.95741832 22.16898769 -5 24 C-5.99 24 -6.98 24 -8 24 C-8.08120751 21.10359882 -8.14059421 18.20949088 -8.1875 15.3125 C-8.21263672 14.49587891 -8.23777344 13.67925781 -8.26367188 12.83789062 C-8.32170486 8.05984178 -8.14903871 4.86576907 -5 1 C-3 0 -3 0 0 0 Z " fill="#050505" transform="translate(482,402)"/>
<path d="M0 0 C0.625 3.375 0.625 3.375 1 7 C0.34 7.66 -0.32 8.32 -1 9 C-4.625 8.625 -4.625 8.625 -8 8 C-9.32278481 2.58860759 -9.32278481 2.58860759 -7.9375 0.0625 C-5.08906752 -1.49954362 -3.06495097 -0.74921024 0 0 Z " fill="#1D1D1D" transform="translate(550,420)"/>
<path d="M0 0 C0.33 0 0.66 0 1 0 C1 7.92 1 15.84 1 24 C-3.41611524 22.2335539 -5.08995952 21.44893687 -8 18 C-8 17.34 -8 16.68 -8 16 C-7.21625 15.7525 -6.4325 15.505 -5.625 15.25 C-2.53470952 13.7784331 -2.2090365 13.108951 -1 10 C-0.54935368 7.41467299 -0.54935368 7.41467299 -0.375 4.75 C-0.26285156 3.41195313 -0.26285156 3.41195313 -0.1484375 2.046875 C-0.09945313 1.37140625 -0.05046875 0.6959375 0 0 Z " fill="#0B0B0B" transform="translate(267,392)"/>
<path d="M0 0 C3.7910119 1.44950455 7.3874638 3.15172566 11 5 C8.8614515 7.1385485 7.86724686 7.42655063 5 8 C5 7.34 5 6.68 5 6 C2.52733235 6.34444881 2.52733235 6.34444881 0 7 C-0.33 7.66 -0.66 8.32 -1 9 C-1.66 9 -2.32 9 -3 9 C-3 7.02 -3 5.04 -3 3 C-2.01 2.67 -1.02 2.34 0 2 C0 1.34 0 0.68 0 0 Z " fill="#EDEDED" transform="translate(524,409)"/>
<path d="M0 0 C2.53409304 1.13393269 4.66202311 2.47315795 7 4 C6.38461538 10.52307692 6.38461538 10.52307692 4.4375 12.9375 C3.963125 13.288125 3.48875 13.63875 3 14 C2.34 13.34 1.68 12.68 1 12 C1.99 11.67 2.98 11.34 4 11 C4 8.69 4 6.38 4 4 C0.30025941 2.81608301 -3.13799438 2.72414246 -7 3 C-9.40083438 4.35885116 -9.40083438 4.35885116 -11 6 C-11.66 5.34 -12.32 4.68 -13 4 C-12.34 4 -11.68 4 -11 4 C-11 3.34 -11 2.68 -11 2 C-7.32307542 -0.35323173 -4.29485546 -0.43676496 0 0 Z " fill="#2C2C2C" transform="translate(530,400)"/>
<path d="M0 0 C0.66 0 1.32 0 2 0 C2.33 1.98 2.66 3.96 3 6 C0.64031256 8.09749995 -0.54616994 8.96905704 -3.75 9.1875 C-4.4925 9.125625 -5.235 9.06375 -6 9 C-5.95875 10.0725 -5.9175 11.145 -5.875 12.25 C-5.9925745 15.77723487 -6.34847907 17.061073 -8 20 C-8.09087891 18.96939453 -8.09087891 18.96939453 -8.18359375 17.91796875 C-8.26738281 17.01691406 -8.35117187 16.11585938 -8.4375 15.1875 C-8.51871094 14.29417969 -8.59992188 13.40085937 -8.68359375 12.48046875 C-8.93489767 9.87256441 -8.93489767 9.87256441 -10 7 C-8 5 -8 5 -5.375 4.875 C-4.59125 4.91625 -3.8075 4.9575 -3 5 C-3.66 5.66 -4.32 6.32 -5 7 C-3.35 6.67 -1.7 6.34 0 6 C0 4.02 0 2.04 0 0 Z " fill="#F1F1F1" transform="translate(425,400)"/>
<path d="M0 0 C1.65 1.32 3.3 2.64 5 4 C4.58578031 8.83256305 2.53586014 10.82679218 -1 14 C-1.02694851 12.04174127 -1.04637218 10.08337774 -1.0625 8.125 C-1.07410156 7.03445313 -1.08570313 5.94390625 -1.09765625 4.8203125 C-1 2 -1 2 0 0 Z " fill="#2D2D2D" transform="translate(318,401)"/>
<path d="M0 0 C1.88505405 3.7701081 0.63682172 8.72713984 0.31640625 12.87890625 C-0.13414769 17.06245561 -0.13414769 17.06245561 1 21 C-0.98 21 -2.96 21 -5 21 C-5 17.42356421 -4.74637226 13.87823909 -4.5 10.3125 C-4.45230469 9.61060547 -4.40460938 8.90871094 -4.35546875 8.18554688 C-4.23787848 6.45696984 -4.11905865 4.72847652 -4 3 C-3.34 3.33 -2.68 3.66 -2 4 C-2.33 8.29 -2.66 12.58 -3 17 C-2.34 17 -1.68 17 -1 17 C-1.01160156 15.85660156 -1.02320313 14.71320313 -1.03515625 13.53515625 C-1.04453288 12.04427246 -1.05363321 10.55338691 -1.0625 9.0625 C-1.07087891 8.30775391 -1.07925781 7.55300781 -1.08789062 6.77539062 C-1.09652441 4.85005687 -1.05224333 2.92464419 -1 1 C-0.67 0.67 -0.34 0.34 0 0 Z " fill="#EFEFEF" transform="translate(367,408)"/>
<path d="M0 0 C0.33 0 0.66 0 1 0 C1 7.59 1 15.18 1 23 C-2.2830098 24.6415049 -5.42545033 23.51888624 -9 23 C-9.33 22.01 -9.66 21.02 -10 20 C-9.67 19.67 -9.34 19.34 -9 19 C-6.03 19 -3.06 19 0 19 C0 12.73 0 6.46 0 0 Z " fill="#D1D1D1" transform="translate(317,380)"/>
<path d="M0 0 C2.91517292 1.07401108 4.77810176 1.77810176 7 4 C6.34 4.66 5.68 5.32 5 6 C4.67 5.67 4.34 5.34 4 5 C4 6.65 4 8.3 4 10 C4.66 10 5.32 10 6 10 C6 10.66 6 11.32 6 12 C5.34 12 4.68 12 4 12 C4.33 13.32 4.66 14.64 5 16 C2 14 2 14 1.48828125 11.8359375 C1.43027344 11.02382813 1.37226563 10.21171875 1.3125 9.375 C1.24675781 8.55773437 1.18101562 7.74046875 1.11328125 6.8984375 C1.07589844 6.27195312 1.03851563 5.64546875 1 5 C0.67 7.31 0.34 9.62 0 12 C-0.33 12 -0.66 12 -1 12 C-1.14285714 3.42857143 -1.14285714 3.42857143 0 0 Z " fill="#EBEBEB" transform="translate(249,406)"/>
<path d="M0 0 C1.60670684 3.21341369 0.82510855 6.62958968 0.5625 10.125 C0.51029297 10.87910156 0.45808594 11.63320313 0.40429688 12.41015625 C0.27454996 14.2737937 0.13792512 16.13694996 0 18 C-0.33 18 -0.66 18 -1 18 C-1.33 15.03 -1.66 12.06 -2 9 C-2.33 11.97 -2.66 14.94 -3 18 C-3.33 18 -3.66 18 -4 18 C-4 12.72 -4 7.44 -4 2 C-2.68 1.34 -1.36 0.68 0 0 Z " fill="#EEEEEE" transform="translate(393,408)"/>
<path d="M0 0 C2.475 0.99 2.475 0.99 5 2 C4.34 2.66 3.68 3.32 3 4 C1.68 3.67 0.36 3.34 -1 3 C-0.67 11.91 -0.34 20.82 0 30 C-0.66 29.67 -1.32 29.34 -2 29 C-2.0578304 24.54172074 -2.09353855 20.0835372 -2.125 15.625 C-2.14175781 14.35398437 -2.15851563 13.08296875 -2.17578125 11.7734375 C-2.18222656 10.56171875 -2.18867188 9.35 -2.1953125 8.1015625 C-2.21102295 6.42054443 -2.21102295 6.42054443 -2.22705078 4.70556641 C-2 2 -2 2 0 0 Z " fill="#393939" transform="translate(270,388)"/>
<path d="M0 0 C0.33 0 0.66 0 1 0 C1.04898437 0.88042969 1.09796875 1.76085937 1.1484375 2.66796875 C1.22320312 3.82941406 1.29796875 4.99085938 1.375 6.1875 C1.44460938 7.33605469 1.51421875 8.48460937 1.5859375 9.66796875 C1.97604383 12.80722066 2.8156908 15.10101705 4 18 C3.67 18.66 3.34 19.32 3 20 C6.3 20.33 9.6 20.66 13 21 C13 21.33 13 21.66 13 22 C11.58506449 22.10884119 10.16767057 22.18597617 8.75 22.25 C7.96109375 22.29640625 7.1721875 22.3428125 6.359375 22.390625 C4 22 4 22 1.71875 20.5625 C-0.85661148 16.72287015 -0.43318676 13.25921262 -0.25 8.75 C-0.23195313 7.90953125 -0.21390625 7.0690625 -0.1953125 6.203125 C-0.14830798 4.13492605 -0.07656724 2.06731559 0 0 Z " fill="#F0F0F0" transform="translate(432,407)"/>
<path d="M0 0 C1.65 0 3.3 0 5 0 C4.67 1.32 4.34 2.64 4 4 C2.35 4.33 0.7 4.66 -1 5 C-1 5.66 -1 6.32 -1 7 C-2.32 6.67 -3.64 6.34 -5 6 C-4.34 4.68 -3.68 3.36 -3 2 C-2.01 2 -1.02 2 0 2 C0 1.34 0 0.68 0 0 Z " fill="#070707" transform="translate(258,402)"/>
<path d="M0 0 C0.33 0.66 0.66 1.32 1 2 C-0.093125 2.061875 -1.18625 2.12375 -2.3125 2.1875 C-6.07382164 2.62157579 -6.07382164 2.62157579 -7.875 5.25 C-8.94206812 7.85838873 -9.60217254 10.21520775 -10 13 C-10.33 13 -10.66 13 -11 13 C-11.10824843 11.3973218 -11.18570645 9.79254252 -11.25 8.1875 C-11.29640625 7.29417969 -11.3428125 6.40085937 -11.390625 5.48046875 C-11 3 -11 3 -9.21875 1.1875 C-6.1053545 -0.47882435 -3.46880407 -0.20012331 0 0 Z " fill="#040404" transform="translate(466,377)"/>
<path d="M0 0 C1.485 0.99 1.485 0.99 3 2 C2.34 2 1.68 2 1 2 C1.66 4.64 2.32 7.28 3 10 C6.3 10.66 9.6 11.32 13 12 C13 12.33 13 12.66 13 13 C11.23050905 13.10815225 9.45912513 13.18566083 7.6875 13.25 C6.70136719 13.29640625 5.71523438 13.3428125 4.69921875 13.390625 C2 13 2 13 0.125 11.28125 C-1.21248025 8.56913726 -1.16594601 7.20766627 -0.6875 4.25 C-0.56761719 3.45078125 -0.44773437 2.6515625 -0.32421875 1.828125 C-0.21722656 1.22484375 -0.11023438 0.6215625 0 0 Z " fill="#2D2D2D" transform="translate(306,409)"/>
<path d="M0 0 C1.98 0.99 3.96 1.98 6 3 C5.67 4.32 5.34 5.64 5 7 C3.33388095 7.042721 1.66617115 7.04063832 0 7 C-1 6 -1 6 -1.125 3.5 C-1 1 -1 1 0 0 Z " fill="#282828" transform="translate(310,411)"/>
<path d="M0 0 C0.99 0.33 1.98 0.66 3 1 C2.9071875 2.175625 2.9071875 2.175625 2.8125 3.375 C2.874375 4.24125 2.93625 5.1075 3 6 C6.16240582 8.10827055 7.50657469 8.33817465 11.1875 8.625 C12.08855469 8.69976562 12.98960937 8.77453125 13.91796875 8.8515625 C14.60503906 8.90054687 15.29210937 8.94953125 16 9 C16 9.33 16 9.66 16 10 C14.08458862 10.10841951 12.16740227 10.18578079 10.25 10.25 C8.64898437 10.31960938 8.64898437 10.31960938 7.015625 10.390625 C4 10 4 10 1.625 8.1875 C-0.4922606 5.33734149 -0.31517357 3.46690927 0 0 Z " fill="#090909" transform="translate(307,411)"/>
<path d="M0 0 C2.97 0.495 2.97 0.495 6 1 C5.67 3.31 5.34 5.62 5 8 C4.34 6.68 3.68 5.36 3 4 C2.34 4 1.68 4 1 4 C0.34 4.99 -0.32 5.98 -1 7 C-2 4 -2 4 -1.0625 1.8125 C-0.5365625 0.9153125 -0.5365625 0.9153125 0 0 Z " fill="#111111" transform="translate(544,419)"/>
<path d="M0 0 C0.99 0.495 0.99 0.495 2 1 C2.56619052 3.79949755 2.89481508 6.59918265 3.2421875 9.43359375 C3.74281743 12.15155347 3.74281743 12.15155347 6.0703125 13.34765625 C6.70710938 13.56292969 7.34390625 13.77820313 8 14 C5.39445677 13.64789956 3.48398695 13.35614134 1.34375 11.78125 C-0.47665317 9.36815742 -0.30382384 7.79814534 -0.1875 4.8125 C-0.16042969 3.91144531 -0.13335937 3.01039063 -0.10546875 2.08203125 C-0.07066406 1.39496094 -0.03585937 0.70789063 0 0 Z " fill="#F6F6F6" transform="translate(434,408)"/>
<path d="M0 0 C1.10370043 3.3111013 0.92673641 5.24748949 0.5625 8.6875 C0.40974609 10.17830078 0.40974609 10.17830078 0.25390625 11.69921875 C0.12822266 12.83810547 0.12822266 12.83810547 0 14 C-0.66 14 -1.32 14 -2 14 C-2.05389087 12.04196493 -2.09274217 10.08351091 -2.125 8.125 C-2.14820313 7.03445313 -2.17140625 5.94390625 -2.1953125 4.8203125 C-2 2 -2 2 0 0 Z " fill="#F7F7F7" transform="translate(505,410)"/>
<path d="M0 0 C0.66 0.66 1.32 1.32 2 2 C1.67 2.99 1.34 3.98 1 5 C0.34 5 -0.32 5 -1 5 C-1 4.01 -1 3.02 -1 2 C-4.96 2 -8.92 2 -13 2 C-13 1.67 -13 1.34 -13 1 C-3.40757238 -0.30066815 -3.40757238 -0.30066815 0 0 Z " fill="#202020" transform="translate(324,421)"/>
<path d="M0 0 C1.65 0 3.3 0 5 0 C5.66 1.32 6.32 2.64 7 4 C6.01 5.485 6.01 5.485 5 7 C5 6.01 5 5.02 5 4 C4.360625 3.896875 3.72125 3.79375 3.0625 3.6875 C2.381875 3.460625 1.70125 3.23375 1 3 C0.67 2.01 0.34 1.02 0 0 Z " fill="#F4F4F4" transform="translate(494,405)"/>
<path d="M0 0 C-0.33 1.65 -0.66 3.3 -1 5 C-3.91517292 3.92598892 -5.77810176 3.22189824 -8 1 C-2.25 -1.125 -2.25 -1.125 0 0 Z " fill="#E7E7E7" transform="translate(308,404)"/>
<path d="M0 0 C0.66 0.33 1.32 0.66 2 1 C1.67 1.33 1.34 1.66 1 2 C2.65 2.33 4.3 2.66 6 3 C6 3.33 6 3.66 6 4 C4.88625 4.309375 3.7725 4.61875 2.625 4.9375 C-0.7945155 5.82326483 -0.7945155 5.82326483 -3 7 C-3.1875 4.625 -3.1875 4.625 -3 2 C-2.01 1.34 -1.02 0.68 0 0 Z " fill="#282828" transform="translate(458,373)"/>
<path d="M0 0 C0.99 0 1.98 0 3 0 C3 0.66 3 1.32 3 2 C4.98 2 6.96 2 9 2 C9 2.66 9 3.32 9 4 C6.03 4 3.06 4 0 4 C0 2.68 0 1.36 0 0 Z " fill="#313131" transform="translate(455,392)"/>
<path d="M0 0 C1.98 0 3.96 0 6 0 C5.67 1.65 5.34 3.3 5 5 C3.02 4.01 1.04 3.02 -1 2 C-0.67 1.34 -0.34 0.68 0 0 Z " fill="#333333" transform="translate(523,406)"/>
<path d="M0 0 C2.375 0.1875 2.375 0.1875 5 1 C6.3125 3.5625 6.3125 3.5625 7 6 C5.35 5.01 3.7 4.02 2 3 C2 3.66 2 4.32 2 5 C1.34 5 0.68 5 0 5 C0 3.35 0 1.7 0 0 Z " fill="#F3F3F3" transform="translate(346,400)"/>
<path d="M0 0 C1.485 0.99 1.485 0.99 3 2 C2.690625 2.53625 2.38125 3.0725 2.0625 3.625 C0.82172561 6.3984957 0.4090325 9.00042837 0 12 C-0.33 12 -0.66 12 -1 12 C-1.02698189 10.37509046 -1.04638757 8.75005367 -1.0625 7.125 C-1.07410156 6.22007812 -1.08570313 5.31515625 -1.09765625 4.3828125 C-1 2 -1 2 0 0 Z " fill="#2F2F2F" transform="translate(301,406)"/>
<path d="M0 0 C0 0.66 0 1.32 0 2 C-1.98 2 -3.96 2 -6 2 C-6.66 3.32 -7.32 4.64 -8 6 C-8.33 5.01 -8.66 4.02 -9 3 C-5.92807025 0.26939578 -4.09590633 -0.34132553 0 0 Z " fill="#292929" transform="translate(345,406)"/>
<path d="M0 0 C2.91517292 1.07401108 4.77810176 1.77810176 7 4 C6.01 4.99 5.02 5.98 4 7 C3.34 6.67 2.68 6.34 2 6 C2 5.01 2 4.02 2 3 C1.34 2.67 0.68 2.34 0 2 C0 1.34 0 0.68 0 0 Z " fill="#333333" transform="translate(290,400)"/>
<path d="M0 0 C0.66 0.66 1.32 1.32 2 2 C-1.61328125 6.6875 -1.61328125 6.6875 -3 8 C-3.99 8 -4.98 8 -6 8 C-6 6 -6 6 -3.5625 3.4375 C-2.716875 2.633125 -1.87125 1.82875 -1 1 C-0.67 0.67 -0.34 0.34 0 0 Z " fill="#E6E6E6" transform="translate(477,555)"/>
<path d="M0 0 C0.928125 0.2784375 0.928125 0.2784375 1.875 0.5625 C4.04160178 1.23686176 4.04160178 1.23686176 6 0 C5.67 1.32 5.34 2.64 5 4 C2.03 3.505 2.03 3.505 -1 3 C-0.67 2.01 -0.34 1.02 0 0 Z " fill="#F6F6F6" transform="translate(501,426)"/>
<path d="M0 0 C2.625 -0.1875 2.625 -0.1875 5 0 C5 0.99 5 1.98 5 3 C2.69 3 0.38 3 -2 3 C-1.34 2.01 -0.68 1.02 0 0 Z " fill="#343434" transform="translate(460,373)"/>
<path d="M0 0 C0.99 0 1.98 0 3 0 C3 0.99 3 1.98 3 3 C0.625 4.75 0.625 4.75 -2 6 C-2.66 5.67 -3.32 5.34 -4 5 C-3.34 4.01 -2.68 3.02 -2 2 C-1.34 2 -0.68 2 0 2 C0 1.34 0 0.68 0 0 Z " fill="#262626" transform="translate(255,401)"/>
</svg>
