<?xml version="1.0" encoding="UTF-8"?>
<svg version="1.1" xmlns="http://www.w3.org/2000/svg" width="306" height="255">
<path d="M0 0 C5.8800101 1.05148416 11.61625745 2.41056333 17.375 4 C34.00931814 8.47712002 52.085016 10.43671712 69 6 C69.69222656 6.96486328 69.69222656 6.96486328 70.3984375 7.94921875 C72.19080412 10.43231954 73.99397762 12.90703784 75.80712891 15.375 C76.95206542 16.93470066 78.09139249 18.49851438 79.23046875 20.0625 C93.08618207 38.62962003 111.73966891 59.82724261 133 70 C136.74060995 69.608417 138.49796488 67.8652311 141.08203125 65.24609375 C141.84966797 64.47330078 142.61730469 63.70050781 143.40820312 62.90429688 C144.20162109 62.09025391 144.99503906 61.27621094 145.8125 60.4375 C146.59431641 59.65052734 147.37613281 58.86355469 148.18164062 58.05273438 C152.4328679 53.74468201 156.53610572 49.35004161 160.47436523 44.75390625 C173.07920133 30.26308492 191.24923526 15.41610925 211.10546875 13.83203125 C223.59781971 13.71484222 235.2369982 17.12852246 244.5 25.875 C252.66221171 34.91778227 254.20207099 45.54188557 253.91796875 57.43359375 C252.12543196 73.52702849 241.70357739 88.9744183 229.42578125 99.1953125 C211.62386551 112.43924981 189.73493861 117.24235546 167.87304688 114.18798828 C167.06931641 114.06407715 166.26558594 113.94016602 165.4375 113.8125 C164.57833984 113.68085449 163.71917969 113.54920898 162.83398438 113.41357422 C149.97110863 111.31162676 137.8687925 107.37411606 126 102 C125.67 103.32 125.34 104.64 125 106 C126.54494141 106.87398437 126.54494141 106.87398437 128.12109375 107.765625 C153.90600236 122.53045283 177.36079459 141.18747441 199.81469727 160.56616211 C203.28192899 163.55303135 206.79617857 166.45911534 210.375 169.3125 C219.7599211 176.92378274 228.50796365 185.40960029 237 194 C234.36 193.67 231.72 193.34 229 193 C229.99 194.175625 229.99 194.175625 231 195.375 C233 198 233 198 233 200 C232.40316406 199.82984375 231.80632812 199.6596875 231.19140625 199.484375 C225.23978246 197.82181145 219.26112232 196.3045022 213.25 194.875 C212.18761108 194.61928223 212.18761108 194.61928223 211.10375977 194.35839844 C196.51130883 190.92568345 182.39272182 190.79482215 168 195 C167.64808594 194.5373877 167.29617187 194.07477539 166.93359375 193.59814453 C157.05714614 180.6240252 147.19631019 167.87292175 136 156 C134.88818359 154.80697266 134.88818359 154.80697266 133.75390625 153.58984375 C124.40737037 143.86601652 111.9925477 133.33084923 99 129 C98.63455078 129.84304687 98.63455078 129.84304687 98.26171875 130.703125 C96.75819064 133.44019785 94.93300252 135.45795941 92.8125 137.75 C89.99528636 140.81883081 87.20845005 143.8973558 84.5 147.0625 C77.35624852 155.22210605 69.56119456 162.3494583 61 169 C60.23300781 169.60714844 59.46601562 170.21429688 58.67578125 170.83984375 C46.00987683 180.323144 30.6971942 187.5236926 14.62890625 185.53515625 C2.98274282 183.16439193 -5.54043552 175.65655705 -12 166 C-17.64556039 156.60784044 -18.02789031 147.2746547 -15.875 136.6875 C-11.74572535 120.20881326 -1.0418476 105.74076872 13.4453125 96.80078125 C34.88278244 84.35349251 60.23045244 83.44897559 84 89 C89.61904158 90.60118162 95.12421484 92.50155593 100.62109375 94.4765625 C103.72785554 95.59214566 106.72363069 96.50215333 110 97 C110.495 95.515 110.495 95.515 111 94 C110.26233398 93.54113403 110.26233398 93.54113403 109.50976562 93.07299805 C86.94203371 79.00483555 65.6994819 63.91263102 45.63818359 46.42041016 C42.9475464 44.08745529 40.22333343 41.79461105 37.5 39.5 C32.34428761 35.15028501 27.22381999 30.7609372 22.11401367 26.35742188 C17.55936543 22.44556414 12.91490611 18.6642735 8.20703125 14.9375 C6.11543453 13.10133721 4.56839947 11.28873929 3 9 C4.32 8.67 5.64 8.34 7 8 C6.4946875 7.50628906 5.989375 7.01257812 5.46875 6.50390625 C4.8190625 5.86324219 4.169375 5.22257812 3.5 4.5625 C2.8503125 3.92441406 2.200625 3.28632812 1.53125 2.62890625 C0 1 0 1 0 0 Z M158.20703125 70.73828125 C155.25244542 73.66657293 152.60442191 76.75796067 150 80 C167.69506544 89.84288015 188.97307302 95.78508909 209.05078125 90.08984375 C219.9076435 86.0778377 227.34299161 78.86315222 232.22265625 68.37109375 C233.77107187 63.64803707 232.32014525 59.33084531 230.375 54.9375 C227.42535833 49.39346548 222.73674325 45.48372409 217 43 C194.52015475 37.57684667 173.12955658 56.38530209 158.20703125 70.73828125 Z M11.14453125 119.88671875 C6.51598976 125.70382398 3.61980133 131.46515364 4 139 C4.91308264 145.45112737 7.83355714 149.94187928 12.5 154.375 C20.09787963 159.31362176 29.24344647 159.34716208 38 158 C56.98274294 152.51835231 72.52230972 135.55157554 86 122 C85.3020318 118.80241401 85.3020318 118.80241401 82.47265625 117.53515625 C61.12217308 108.3150736 29.61767881 101.10244449 11.14453125 119.88671875 Z " fill="#0D8FD3" transform="translate(33,38)"/>
<path d="M0 0 C-7.66666667 7.66666667 -15.33333333 15.33333333 -23 23 C-23.94617188 22.54109375 -24.89234375 22.0821875 -25.8671875 21.609375 C-43.16495602 13.47250823 -63.56080324 8.13484191 -82.625 13.125 C-84.8531648 13.94153203 -84.8531648 13.94153203 -87 15 C-87.85851562 15.4021875 -88.71703125 15.804375 -89.6015625 16.21875 C-97.1640754 20.23424358 -100.74472455 25.39139365 -104.4375 32.9375 C-105.48929368 38.66393226 -104.50487402 44.41781773 -103 50 C-103.4846875 50.4125 -103.969375 50.825 -104.46875 51.25 C-108.23051066 54.49090149 -111.94462149 57.78656659 -115.5625 61.1875 C-116.24441406 61.82042969 -116.92632812 62.45335937 -117.62890625 63.10546875 C-119.22177456 64.88859292 -119.22177456 64.88859292 -118.890625 67.0546875 C-115.81649907 73.76922572 -108.28899946 76.44246645 -101.8671875 79.01953125 C-89.72832305 83.17055983 -78.47531612 81.19340021 -67 76 C-47.59272479 66.23712163 -30.62213323 49.20864501 -16.60546875 32.828125 C-14.19609709 30.0846069 -11.61287791 27.54914918 -9 25 C-4.6691949 26.49756812 -1.12708622 28.77750604 2.5625 31.4375 C3.4762439 32.09250488 3.4762439 32.09250488 4.40844727 32.76074219 C9.74567544 36.6657945 14.58983553 40.98880504 19.3828125 45.53515625 C21.47592722 47.50643295 23.5913117 49.3661256 25.8125 51.1875 C29.63687306 54.43409008 32.77455114 58.17095838 36 62 C37.25490234 63.44052734 37.25490234 63.44052734 38.53515625 64.91015625 C43.51603143 70.65302106 48.24823218 76.51370504 52.6875 82.6875 C53.33875854 83.58782959 53.33875854 83.58782959 54.00317383 84.50634766 C57 88.74802814 57 88.74802814 57 91 C58.03125 90.525625 59.0625 90.05125 60.125 89.5625 C73.4274145 83.44338933 91.32843621 86.91747622 105 90 C106.23492187 90.2165625 107.46984375 90.433125 108.7421875 90.65625 C118.2905495 92.44258053 118.2905495 92.44258053 120.75 96 C122 99 122 99 123 102 C122.40316406 101.82984375 121.80632812 101.6596875 121.19140625 101.484375 C115.23978246 99.82181145 109.26112232 98.3045022 103.25 96.875 C102.54174072 96.70452148 101.83348145 96.53404297 101.10375977 96.35839844 C86.51130883 92.92568345 72.39272182 92.79482215 58 97 C57.64808594 96.5373877 57.29617187 96.07477539 56.93359375 95.59814453 C47.05714614 82.6240252 37.19631019 69.87292175 26 58 C24.88818359 56.80697266 24.88818359 56.80697266 23.75390625 55.58984375 C14.40737037 45.86601652 1.9925477 35.33084923 -11 31 C-11.24363281 31.56203125 -11.48726563 32.1240625 -11.73828125 32.703125 C-13.24180936 35.44019785 -15.06699748 37.45795941 -17.1875 39.75 C-20.00471364 42.81883081 -22.79154995 45.8973558 -25.5 49.0625 C-32.64375148 57.22210605 -40.43880544 64.3494583 -49 71 C-49.76699219 71.60714844 -50.53398438 72.21429688 -51.32421875 72.83984375 C-63.99012317 82.323144 -79.3028058 89.5236926 -95.37109375 87.53515625 C-107.01725718 85.16439193 -115.54043552 77.65655705 -122 68 C-127.64556039 58.60784044 -128.02789031 49.2746547 -125.875 38.6875 C-121.74572535 22.20881326 -111.0418476 7.74076872 -96.5546875 -1.19921875 C-66.20793941 -18.81952267 -30.89541671 -12.75149642 0 0 Z " fill="#2F78BE" transform="translate(143,136)"/>
<path d="M0 0 C5.8800101 1.05148416 11.61625745 2.41056333 17.375 4 C34.00931814 8.47712002 52.085016 10.43671712 69 6 C69.69222656 6.96486328 69.69222656 6.96486328 70.3984375 7.94921875 C72.19080412 10.43231954 73.99397762 12.90703784 75.80712891 15.375 C76.95206542 16.93470066 78.09139249 18.49851438 79.23046875 20.0625 C93.3102792 38.92991768 110.24118107 53.94232012 129 68 C126.83384341 72.82604496 123.35927312 76.08472271 119.6875 79.8125 C119.02298828 80.51826172 118.35847656 81.22402344 117.67382812 81.95117188 C117.02220703 82.61310547 116.37058594 83.27503906 115.69921875 83.95703125 C115.10971436 84.56522705 114.52020996 85.17342285 113.9128418 85.80004883 C112 87 112 87 109.51953125 86.83178711 C107.06819094 86.02251226 105.16426175 85.11172009 102.98828125 83.734375 C102.23957764 83.26314209 101.49087402 82.79190918 100.71948242 82.30639648 C99.92517822 81.79278564 99.13087402 81.2791748 98.3125 80.75 C97.47887939 80.21640869 96.64525879 79.68281738 95.78637695 79.13305664 C67.08529849 60.56781556 40.57882566 38.30120989 15.43359375 15.2109375 C13.19804849 13.17992848 10.9228479 11.20980324 8.625 9.25 C5.35315552 6.41574789 2.66168268 3.41028093 0 0 Z " fill="#0396DA" transform="translate(33,38)"/>
<path d="M0 0 C3.02056105 1.0787718 5.79838567 2.42559001 8.625 3.9375 C1.80208832 11.92529903 -5.09838806 19.79902854 -12.3125 27.4375 C-12.97701172 28.14519531 -13.64152344 28.85289062 -14.32617188 29.58203125 C-18.34138504 33.84259692 -22.42538168 38.01870563 -26.59716797 42.1262207 C-28.33666883 43.89844768 -29.95850092 45.73009127 -31.5625 47.625 C-39.93910016 57.31819563 -49.20128943 66.15399854 -59.375 73.9375 C-60.1484375 74.55109375 -60.921875 75.1646875 -61.71875 75.796875 C-73.69009528 84.81528845 -87.3551941 90.10042936 -102.375 88.9375 C-111.81606868 87.05359234 -122.45497192 83.01026557 -128.375 74.9375 C-127.97795175 71.55433617 -126.68233969 69.86061903 -124.3203125 67.484375 C-123.70542969 66.865625 -123.09054688 66.246875 -122.45703125 65.609375 C-121.81121094 64.97515625 -121.16539063 64.3409375 -120.5 63.6875 C-119.54287109 62.71296875 -119.54287109 62.71296875 -118.56640625 61.71875 C-117.94894531 61.10515625 -117.33148438 60.4915625 -116.6953125 59.859375 C-116.13086426 59.29831055 -115.56641602 58.73724609 -114.98486328 58.15917969 C-113.375 56.9375 -113.375 56.9375 -110.375 56.9375 C-109.2271103 58.37236213 -108.0816687 59.81358398 -107.046875 61.33203125 C-101.65486065 66.50987681 -94.59544859 66.62595971 -87.56762695 66.62451172 C-64.05444055 65.75602588 -44.20794298 41.84490815 -28.8671875 26.4140625 C-28.30181274 25.8458931 -27.73643799 25.27772369 -27.15393066 24.69233704 C-24.30325647 21.82534509 -21.4600495 18.95148649 -18.62792969 16.06616211 C-17.57756796 15.00365056 -16.52711634 13.94122786 -15.4765625 12.87890625 C-14.99081757 12.3796463 -14.50507263 11.88038635 -14.00460815 11.36599731 C-12.832124 10.18484075 -11.60782252 9.05553334 -10.375 7.9375 C-9.715 7.9375 -9.055 7.9375 -8.375 7.9375 C-8.1275 7.36 -7.88 6.7825 -7.625 6.1875 C-4.12716138 -0.10860951 -4.12716138 -0.10860951 0 0 Z " fill="#049EE1" transform="translate(151.375,129.0625)"/>
<path d="M0 0 C3.76163096 -0.38989168 5.48254542 -0.37160531 8.60546875 1.87109375 C9.45753906 2.71800781 10.30960938 3.56492188 11.1875 4.4375 C12.14737596 5.3657317 13.10967976 6.29145842 14.07421875 7.21484375 C14.55938965 7.68390137 15.04456055 8.15295898 15.54443359 8.63623047 C17.76385964 10.715686 20.12564624 12.60119635 22.5 14.5 C26.30831531 17.57157153 29.96404445 20.74746711 33.5625 24.0625 C38.53261783 28.62546129 43.68505918 32.84818391 49 37 C50.01320312 37.80824219 51.02640625 38.61648437 52.0703125 39.44921875 C67.1685136 51.47773528 82.60583477 62.84002833 99.12792969 72.84912109 C100.70899679 73.82110209 102.25381526 74.85168124 103.7890625 75.89453125 C105.87795085 77.19150492 105.87795085 77.19150492 107.91308594 76.77587891 C110.45016535 75.83263623 111.71616779 74.6266048 113.6015625 72.69140625 C114.25640625 72.02689453 114.91125 71.36238281 115.5859375 70.67773438 C116.25882812 69.97970703 116.93171875 69.28167969 117.625 68.5625 C118.305625 67.86833984 118.98625 67.17417969 119.6875 66.45898438 C120.94826211 65.1720602 122.20592182 63.88208424 123.45947266 62.58813477 C124.62939473 61.38205821 125.81186315 60.18813685 127 59 C127.8971875 59.556875 128.794375 60.11375 129.71875 60.6875 C136.53640424 64.87410284 143.40704514 68.85304752 150.5625 72.4375 C151.21605469 72.76685547 151.86960938 73.09621094 152.54296875 73.43554688 C156.28538759 75.27980472 160.01191578 76.77715137 164 78 C164 79.65 164 81.3 164 83 C163.67 82.01 163.34 81.02 163 80 C161.68 80.33 160.36 80.66 159 81 C159 82.98 159 84.96 159 87 C158.01 86.67 157.02 86.34 156 86 C154.88625 87.175625 154.88625 87.175625 153.75 88.375 C151.4339311 90.58579304 149.86971966 91.77012015 147 93 C146.67 93.33 146.34 93.66 146 94 C147.35129647 94.48720213 148.70624316 94.96428184 150.0625 95.4375 C150.81660156 95.70433594 151.57070312 95.97117187 152.34765625 96.24609375 C169.14078688 101.01939892 190.6434395 99.82866336 207 94 C207.93199219 93.69964844 208.86398438 93.39929688 209.82421875 93.08984375 C223.70628574 88.17903598 235.93046392 76.80932608 243 64 C245.29522008 58.77722925 247.17091648 53.40015134 249 48 C249.33 48 249.66 48 250 48 C250.23580977 62.62020569 240.50588802 76.05819834 230.84765625 86.27734375 C215.49724761 100.73948281 195.24331689 106.26613769 174.56811523 106.09594727 C170.47836379 105.9431502 166.47960091 105.43567073 162.4375 104.8125 C161.57833984 104.68085449 160.71917969 104.54920898 159.83398438 104.41357422 C146.97110863 102.31162676 134.8687925 98.37411606 123 93 C122.505 94.485 122.505 94.485 122 96 C120.35 95.67 118.7 95.34 117 95 C118.44253657 91.63408134 120.33264727 89.48952921 123 87 C118.6896056 83.97429646 118.6896056 83.97429646 113.75 83.125 C111.73384213 84.08785794 111.73384213 84.08785794 109 86 C85.77011355 71.04038331 63.49062327 55.60245774 42.63818359 37.42041016 C39.9475464 35.08745529 37.22333343 32.79461105 34.5 30.5 C29.34428761 26.15028501 24.22381999 21.7609372 19.11401367 17.35742188 C14.55936543 13.44556414 9.91490611 9.6642735 5.20703125 5.9375 C3.11543453 4.10133721 1.56839947 2.28873929 0 0 Z " fill="#0D84C8" transform="translate(36,47)"/>
<path d="M0 0 C2.63663912 2.09864024 5.08318708 4.21252206 7 7 C7 10 7 10 5.53125 11.54296875 C4.8609375 12.08566406 4.190625 12.62835938 3.5 13.1875 C-0.36867422 16.4091006 -3.86520464 19.85251563 -7.3359375 23.49609375 C-9 25 -9 25 -11 25 C-11.70125 24.0925 -12.4025 23.185 -13.125 22.25 C-17.17057191 17.3441628 -21.11280995 15.31899056 -27.46484375 14.6171875 C-48.13866965 13.98752783 -63.6026214 26.47664259 -78 40 C-83.42470315 45.24298535 -88.72763607 50.604386 -94 56 C-97.3 54.35 -100.6 52.7 -104 51 C-104 48 -104 48 -102.36694336 46.04223633 C-101.61550049 45.31286865 -100.86405762 44.58350098 -100.08984375 43.83203125 C-99.26419922 43.02056641 -98.43855469 42.20910156 -97.58789062 41.37304688 C-96.71326172 40.52806641 -95.83863281 39.68308594 -94.9375 38.8125 C-89.59475172 33.60789122 -84.33469577 28.42568852 -79.49926758 22.74072266 C-59.18740882 -0.84233433 -29.2044578 -18.0223863 0 0 Z " fill="#059DDF" transform="translate(273,60)"/>
<path d="M0 0 C4.3308051 1.49756812 7.87291378 3.77750604 11.5625 6.4375 C12.1716626 6.87416992 12.7808252 7.31083984 13.40844727 7.76074219 C18.74567544 11.6657945 23.58983553 15.98880504 28.3828125 20.53515625 C30.47592722 22.50643295 32.5913117 24.3661256 34.8125 26.1875 C38.63687306 29.43409008 41.77455114 33.17095838 45 37 C46.25490234 38.44052734 46.25490234 38.44052734 47.53515625 39.91015625 C52.51603143 45.65302106 57.24823218 51.51370504 61.6875 57.6875 C62.33875854 58.58782959 62.33875854 58.58782959 63.00317383 59.50634766 C66 63.74802814 66 63.74802814 66 66 C67.03125 65.525625 68.0625 65.05125 69.125 64.5625 C82.4274145 58.44338933 100.32843621 61.91747622 114 65 C115.23492187 65.2165625 116.46984375 65.433125 117.7421875 65.65625 C127.2905495 67.44258053 127.2905495 67.44258053 129.75 71 C131 74 131 74 132 77 C131.40316406 76.82984375 130.80632812 76.6596875 130.19140625 76.484375 C124.23978246 74.82181145 118.26112232 73.3045022 112.25 71.875 C111.54174072 71.70452148 110.83348145 71.53404297 110.10375977 71.35839844 C95.51130883 67.92568345 81.39272182 67.79482215 67 72 C66.64808594 71.5373877 66.29617187 71.07477539 65.93359375 70.59814453 C56.05714614 57.6240252 46.19631019 44.87292175 35 33 C34.25878906 32.20464844 33.51757812 31.40929687 32.75390625 30.58984375 C23.40737037 20.86601652 10.9925477 10.33084923 -2 6 C-2.24363281 6.56203125 -2.48726563 7.1240625 -2.73828125 7.703125 C-4.24180936 10.44019785 -6.06699748 12.45795941 -8.1875 14.75 C-11.00471364 17.81883081 -13.79154995 20.8973558 -16.5 24.0625 C-23.64375148 32.22210605 -31.43880544 39.3494583 -40 46 C-40.76699219 46.60714844 -41.53398438 47.21429688 -42.32421875 47.83984375 C-54.99012317 57.323144 -70.3028058 64.5236926 -86.37109375 62.53515625 C-97.19907209 60.33094669 -105.06323773 53.70376878 -111.65234375 45.1484375 C-112.96629656 43.05373013 -113.56794325 41.4173302 -114 39 C-112.9790625 40.051875 -112.9790625 40.051875 -111.9375 41.125 C-110.96058726 42.08563086 -109.98124098 43.04379068 -109 44 C-108.5153125 44.49242187 -108.030625 44.98484375 -107.53125 45.4921875 C-98.80772506 53.74532629 -87.30141897 56.45869105 -75.6015625 56.33984375 C-48.67475072 53.79902745 -24.2558253 27.28649892 -7.60546875 7.828125 C-5.19609709 5.0846069 -2.61287791 2.54914918 0 0 Z " fill="#B2BBC0" transform="translate(134,161)"/>
<path d="M0 0 C5.34006444 0.06600605 10.30345181 0.61257437 15.50537109 1.81274414 C16.63918213 2.06749512 16.63918213 2.06749512 17.79589844 2.32739258 C26.85399832 4.48558656 35.4834786 7.83750165 44.13037109 11.25024414 C38.13037109 17.25024414 32.13037109 23.25024414 26.13037109 29.25024414 C22.02154566 27.97153888 18.33250665 26.39257483 14.50537109 24.43774414 C6.3761345 20.59893797 -2.15865234 18.69035339 -10.89941406 16.72753906 C-12.86962891 16.25024414 -12.86962891 16.25024414 -15.86962891 15.25024414 C-15.86962891 14.59024414 -15.86962891 13.93024414 -15.86962891 13.25024414 C-15.20962891 13.25024414 -14.54962891 13.25024414 -13.86962891 13.25024414 C-13.86962891 12.59024414 -13.86962891 11.93024414 -13.86962891 11.25024414 C-13.20962891 11.25024414 -12.54962891 11.25024414 -11.86962891 11.25024414 C-11.86962891 10.59024414 -11.86962891 9.93024414 -11.86962891 9.25024414 C-11.20962891 9.25024414 -10.54962891 9.25024414 -9.86962891 9.25024414 C-9.86962891 8.59024414 -9.86962891 7.93024414 -9.86962891 7.25024414 C-9.20962891 7.25024414 -8.54962891 7.25024414 -7.86962891 7.25024414 C-7.86962891 6.59024414 -7.86962891 5.93024414 -7.86962891 5.25024414 C-6.56818089 4.20908573 -5.23124201 3.2113828 -3.86962891 2.25024414 C-1.86962891 0.25024414 -1.86962891 0.25024414 0 0 Z " fill="#1182C6" transform="translate(98.86962890625,124.749755859375)"/>
<path d="M0 0 C0.33 0 0.66 0 1 0 C1.23580977 14.62020569 -8.49411198 28.05819834 -18.15234375 38.27734375 C-33.50275239 52.73948281 -53.75668311 58.26613769 -74.43188477 58.09594727 C-78.52163621 57.9431502 -82.52039909 57.43567073 -86.5625 56.8125 C-87.85124023 56.61503174 -87.85124023 56.61503174 -89.16601562 56.41357422 C-102.02889137 54.31162676 -114.1312075 50.37411606 -126 45 C-126.33 45.99 -126.66 46.98 -127 48 C-128.65 47.67 -130.3 47.34 -132 47 C-130.55754029 43.63426067 -128.916532 41.24989611 -126 39 C-120.20870938 39.51944782 -114.50414376 42.27566836 -109.09570312 44.296875 C-97.06902626 48.64319529 -85.40090872 50.5436449 -72.625 50.4375 C-71.36002686 50.43137695 -70.09505371 50.42525391 -68.79174805 50.41894531 C-59.27164751 50.26006309 -50.97670331 49.19884988 -42 46 C-41.06800781 45.69964844 -40.13601562 45.39929688 -39.17578125 45.08984375 C-25.29371426 40.17903598 -13.06953608 28.80932608 -6 16 C-3.70477992 10.77722925 -1.82908352 5.40015134 0 0 Z " fill="#B1BAC0" transform="translate(285,95)"/>
<path d="M0 0 C3.76163096 -0.38989168 5.48254542 -0.37160531 8.60546875 1.87109375 C9.45753906 2.71800781 10.30960938 3.56492188 11.1875 4.4375 C12.14737596 5.3657317 13.10967976 6.29145842 14.07421875 7.21484375 C14.55938965 7.68390137 15.04456055 8.15295898 15.54443359 8.63623047 C17.76385964 10.715686 20.12564624 12.60119635 22.5 14.5 C26.30831531 17.57157153 29.96404445 20.74746711 33.5625 24.0625 C38.53261783 28.62546129 43.68505918 32.84818391 49 37 C50.01320312 37.80824219 51.02640625 38.61648437 52.0703125 39.44921875 C71.42106995 54.86568488 91.46663738 68.7934631 113 81 C112.01 82.98 112.01 82.98 111 85 C107.6734919 85 106.84244477 84.50240718 104.11328125 82.76171875 C103.34814209 82.27719238 102.58300293 81.79266602 101.79467773 81.29345703 C100.97555908 80.76349121 100.15644043 80.23352539 99.3125 79.6875 C98.46179932 79.14206543 97.61109863 78.59663086 96.73461914 78.03466797 C77.66942278 65.74658786 59.73814572 52.33052762 42.63818359 37.42041016 C39.9475464 35.08745529 37.22333343 32.79461105 34.5 30.5 C29.34428761 26.15028501 24.22381999 21.7609372 19.11401367 17.35742188 C14.55936543 13.44556414 9.91490611 9.6642735 5.20703125 5.9375 C3.11543453 4.10133721 1.56839947 2.28873929 0 0 Z " fill="#B2BAC0" transform="translate(36,47)"/>
<path d="M0 0 C4.57563668 3.75035061 9.41006334 8.47613922 10.7109375 14.40234375 C10.84862438 17.41105697 10.8289345 20.39342014 10.7109375 23.40234375 C9.14699583 21.05643124 8.0865463 19.06490044 6.9609375 16.52734375 C4.26660662 11.0582542 0.29432035 7.86745995 -5.2890625 5.40234375 C-16.69159301 2.65153872 -28.30367872 6.73946879 -38.14208984 12.484375 C-51.02804331 20.4501192 -61.66048418 30.71371697 -72.2890625 41.40234375 C-73.6090625 40.74234375 -74.9290625 40.08234375 -76.2890625 39.40234375 C-61.09251028 21.2623152 -26.77534725 -16.42766938 0 0 Z " fill="#B4BBBF" transform="translate(255.2890625,76.59765625)"/>
<path d="M0 0 C-1.65 1.65 -3.3 3.3 -5 5 C-6.03833984 4.41992188 -6.03833984 4.41992188 -7.09765625 3.828125 C-23.46153408 -4.88202868 -45.26839416 -9.86002076 -63.625 -4.875 C-65.8531648 -4.05846797 -65.8531648 -4.05846797 -68 -3 C-68.85851562 -2.5978125 -69.71703125 -2.195625 -70.6015625 -1.78125 C-78.01413828 2.15463094 -82.32085098 7.05832189 -85.02734375 15.0234375 C-85.76597605 17.67162151 -86.42714693 20.31161061 -87 23 C-87.33 23 -87.66 23 -88 23 C-89.0293581 14.38389143 -86.67829603 8.21113146 -82 1 C-61.73656675 -24.13484447 -23.94098098 -14.21801115 0 0 Z " fill="#B4BABF" transform="translate(124,154)"/>
<path d="M0 0 C0.99 0.66 1.98 1.32 3 2 C3.1875 4.72265625 3.1875 4.72265625 3 8.0625 C2.83812395 14.13285194 3.72260388 18.40140121 6 24 C5.5153125 24.4125 5.030625 24.825 4.53125 25.25 C-0.54338286 29.62199139 -5.3146122 34.21562513 -10 39 C-10.66 39.66 -11.32 40.32 -12 41 C-17.25436118 35.39534807 -18.57242041 28.66341711 -18.37890625 21.16796875 C-17.25031375 14.71055804 -11.80435635 10.88437322 -7 7 C-5.65263027 5.34466005 -4.31665664 3.67987227 -3 2 C-2.01 1.34 -1.02 0.68 0 0 Z " fill="#1185C8" transform="translate(34,162)"/>
<path d="M0 0 C5.10694884 5.83651296 6.62638082 12.59694937 6.52856445 20.15405273 C5.55602822 25.39047533 2.07049265 28.28643919 -1.75 31.75 C-2.47960937 32.471875 -3.20921875 33.19375 -3.9609375 33.9375 C-7.95967189 37.74720331 -7.95967189 37.74720331 -10 39 C-12.24316406 38.68847656 -12.24316406 38.68847656 -14 38 C-14.04898437 36.98679688 -14.09796875 35.97359375 -14.1484375 34.9296875 C-14.22352564 33.57810089 -14.29907081 32.22653962 -14.375 30.875 C-14.4059375 30.20984375 -14.436875 29.5446875 -14.46875 28.859375 C-14.71919633 24.60178738 -15.47528197 20.97914217 -17 17 C-14.54976242 14.49195282 -12.08852402 11.9949924 -9.625 9.5 C-8.57699219 8.42685547 -8.57699219 8.42685547 -7.5078125 7.33203125 C-6.8375 6.65527344 -6.1671875 5.97851562 -5.4765625 5.28125 C-4.85861816 4.65283203 -4.24067383 4.02441406 -3.60400391 3.37695312 C-2 2 -2 2 0 2 C0 1.34 0 0.68 0 0 Z " fill="#0D83C8" transform="translate(280,68)"/>
<path d="M0 0 C1.1240625 0.17015625 2.248125 0.3403125 3.40625 0.515625 C6.60546564 1.00246216 9.80312567 1.49805174 13 2 C10.49539383 7.7605942 10.49539383 7.7605942 8.1328125 8.90234375 C5.36576399 10.32641084 4.07224593 12.27427888 2.125 14.6875 C-0.76256482 17.65117855 -2.21175828 18.88870799 -6.34765625 19.47265625 C-13.48622487 19.02989411 -20.29202503 17.45753 -27 15 C-24.54062772 11.66228048 -22.72174903 9.74456986 -19 8 C-17.62913085 6.70529025 -16.28659163 5.37849103 -15 4 C-14.67 4.33 -14.34 4.66 -14 5 C-13.67 3.35 -13.34 1.7 -13 0 C-8.49041109 -1.26832188 -4.53888524 -0.71817804 0 0 Z " fill="#1D7DC2" transform="translate(208,127)"/>
<path d="M0 0 C5.46513771 0.10681051 10.72561653 1.13274589 16.0625 2.25 C13.5796521 7.12702265 13.5796521 7.12702265 12.0625 9.25 C10.73655895 9.61162029 9.40311543 9.94728039 8.0625 10.25 C6.39583333 13.16666667 6.39583333 13.16666667 5.0625 16.25 C4.4025 16.91 3.7425 17.57 3.0625 18.25 C2.4025 18.25 1.7425 18.25 1.0625 18.25 C0.0725 18.58 -0.9175 18.91 -1.9375 19.25 C-4.71278511 18.68122375 -7.39546361 18.04911724 -10.125 17.3125 C-10.87458984 17.11720703 -11.62417969 16.92191406 -12.39648438 16.72070312 C-14.24543459 16.23785625 -16.09173776 15.74489367 -17.9375 15.25 C-17.9375 14.59 -17.9375 13.93 -17.9375 13.25 C-17.2775 13.25 -16.6175 13.25 -15.9375 13.25 C-15.9375 12.59 -15.9375 11.93 -15.9375 11.25 C-15.2775 11.25 -14.6175 11.25 -13.9375 11.25 C-13.9375 10.59 -13.9375 9.93 -13.9375 9.25 C-13.2775 9.25 -12.6175 9.25 -11.9375 9.25 C-11.9375 8.59 -11.9375 7.93 -11.9375 7.25 C-11.2775 7.25 -10.6175 7.25 -9.9375 7.25 C-9.9375 6.59 -9.9375 5.93 -9.9375 5.25 C-8.63605198 4.20884159 -7.29911311 3.21113866 -5.9375 2.25 C-3.9375 0.25 -3.9375 0.25 0 0 Z " fill="#1D7DC2" transform="translate(100.9375,124.75)"/>
<path d="M0 0 C0.57421804 4.10751132 0.8932409 6.64585895 -1.43554688 10.17626953 C-3.45140875 12.41878796 -5.5533714 14.49698504 -7.75 16.5625 C-8.47960937 17.29791016 -9.20921875 18.03332031 -9.9609375 18.79101562 C-14.01861009 22.73433562 -14.01861009 22.73433562 -16 24 C-17.32 23.67 -18.64 23.34 -20 23 C-20 19.37 -20 15.74 -20 12 C-19.67 12 -19.34 12 -19 12 C-18.67 13.65 -18.34 15.3 -18 17 C-15.66475218 14.74259377 -13.81294927 12.7194239 -12 10 C-10.35570171 8.31126121 -8.68615782 6.64694485 -7 5 C-6.113125 4.071875 -5.22625 3.14375 -4.3125 2.1875 C-2 0 -2 0 0 0 Z " fill="#1C7CC2" transform="translate(286,83)"/>
<path d="M0 0 C0.99 0.66 1.98 1.32 3 2 C2.57714698 6.93328521 0.58291648 8.72201258 -3 12 C-4.39956969 13.41297553 -5.79520331 14.82985738 -7.1875 16.25 C-10.75231054 19.87615527 -10.75231054 19.87615527 -13 21 C-13.33 21.99 -13.66 22.98 -14 24 C-14.99 24.33 -15.98 24.66 -17 25 C-17.4876905 17.80656506 -17.4876905 17.80656506 -15.375 14.3125 C-12.70491574 11.71268112 -9.86231701 9.38526417 -7 7 C-5.65263027 5.34466005 -4.31665664 3.67987227 -3 2 C-2.01 1.34 -1.02 0.68 0 0 Z " fill="#1A7CC2" transform="translate(34,162)"/>
<path d="M0 0 C2.625 0.1875 2.625 0.1875 5 1 C5.33 1.66 5.66 2.32 6 3 C4.625 4.5 4.625 4.5 3 6 C2.34 6 1.68 6 1 6 C1 6.66 1 7.32 1 8 C0.34 8 -0.32 8 -1 8 C-1 8.66 -1 9.32 -1 10 C-1.66 10 -2.32 10 -3 10 C-3 10.66 -3 11.32 -3 12 C-3.66 12 -4.32 12 -5 12 C-5 12.66 -5 13.32 -5 14 C-5.66 14 -6.32 14 -7 14 C-7 14.66 -7 15.32 -7 16 C-7.66 16 -8.32 16 -9 16 C-9 16.66 -9 17.32 -9 18 C-9.66 18 -10.32 18 -11 18 C-11 18.66 -11 19.32 -11 20 C-11.99 20.33 -12.98 20.66 -14 21 C-14.99 20.01 -15.98 19.02 -17 18 C-14.73005136 15.56167482 -12.45888681 13.12448546 -10.1875 10.6875 C-9.54490234 9.99720703 -8.90230469 9.30691406 -8.24023438 8.59570312 C-7.61826172 7.92861328 -6.99628906 7.26152344 -6.35546875 6.57421875 C-5.49924927 5.65515747 -5.49924927 5.65515747 -4.62573242 4.7175293 C-4.08924072 4.15074463 -3.55274902 3.58395996 -3 3 C-2.48993408 2.42741455 -1.97986816 1.8548291 -1.4543457 1.26489258 C-0.97441162 0.84747803 -0.49447754 0.43006348 0 0 Z " fill="#0887CB" transform="translate(152,142)"/>
<path d="M0 0 C1.32 0.33 2.64 0.66 4 1 C3.071875 2.4540625 3.071875 2.4540625 2.125 3.9375 C-0.27764602 8.09527042 -1.19069829 12.30392036 -2 17 C-2.33 17 -2.66 17 -3 17 C-3.3540919 10.48208608 -3.03901852 5.82478551 0 0 Z " fill="#99B2C3" transform="translate(39,160)"/>
<path d="M0 0 C2.93200474 2.85276137 5.64315404 5.65079784 8 9 C7.34 9.66 6.68 10.32 6 11 C4.9944239 9.54550599 3.99569565 8.08627557 3 6.625 C2.443125 5.81289062 1.88625 5.00078125 1.3125 4.1640625 C0 2 0 2 0 0 Z " fill="#A2B5C2" transform="translate(20,200)"/>
<path d="" fill="#74AACB" transform="translate(0,0)"/>
</svg>
