<?xml version="1.0" encoding="UTF-8"?>
<svg version="1.1" xmlns="http://www.w3.org/2000/svg" width="225" height="225">
<path d="M0 0 C74.25 0 148.5 0 225 0 C225 74.25 225 148.5 225 225 C150.75 225 76.5 225 0 225 C0 150.75 0 76.5 0 0 Z " fill="#0865FE" transform="translate(0,0)"/>
<path d="M0 0 C2.01885528 -0.00217211 4.03715041 -0.02031527 6.0559082 -0.03930664 C7.35463867 -0.04124023 8.65336914 -0.04317383 9.99145508 -0.04516602 C11.16409912 -0.0492749 12.33674316 -0.05338379 13.54492188 -0.05761719 C18.1990609 0.23913823 22.78170986 1.27069744 27.35473633 2.18530273 C27.35473633 12.74530273 27.35473633 23.30530273 27.35473633 34.18530273 C18.35473633 34.06030273 18.35473633 34.06030273 15.56958008 34.00512695 C8.29831524 33.95679736 1.35542813 34.68478389 -4.64526367 39.18530273 C-12.73187853 47.2719176 -11.05851801 59.62388078 -11.64526367 70.18530273 C0.56473633 70.18530273 12.77473633 70.18530273 25.35473633 70.18530273 C24.18424011 78.9640244 23.04121202 87.49800405 21.22973633 96.12280273 C20.61098633 99.11342773 19.99223633 102.10405273 19.35473633 105.18530273 C9.12473633 105.18530273 -1.10526367 105.18530273 -11.64526367 105.18530273 C-11.64526367 130.59530273 -11.64526367 156.00530273 -11.64526367 182.18530273 C3.2261695 179.37947706 3.2261695 179.37947706 17.10473633 174.49780273 C17.88365234 174.15386475 18.66256836 173.80992676 19.46508789 173.45556641 C48.9750789 160.08441703 69.21397768 137.66914224 80.88208008 107.51342773 C83.26055765 100.90571506 84.37228079 94.12295029 85.35473633 87.18530273 C85.54481576 85.86498667 85.73491906 84.54467405 85.92504883 83.22436523 C86.0668457 82.22147461 86.20864258 81.21858398 86.35473633 80.18530273 C86.68473633 80.18530273 87.01473633 80.18530273 87.35473633 80.18530273 C87.35473633 114.17530273 87.35473633 148.16530273 87.35473633 183.18530273 C13.10473633 183.18530273 -61.14526367 183.18530273 -137.64526367 183.18530273 C-137.64526367 149.19530273 -137.64526367 115.20530273 -137.64526367 80.18530273 C-137.31526367 80.18530273 -136.98526367 80.18530273 -136.64526367 80.18530273 C-136.52151367 81.31323242 -136.39776367 82.44116211 -136.27026367 83.60327148 C-133.39169751 106.62437542 -124.3153969 127.94089028 -108.64526367 145.18530273 C-108.17491699 145.70479492 -107.70457031 146.22428711 -107.2199707 146.75952148 C-96.94559835 157.9618802 -85.57951209 166.04572275 -71.89526367 172.62280273 C-71.23494141 172.94095947 -70.57461914 173.25911621 -69.89428711 173.58691406 C-64.15845399 176.20983627 -58.93467068 177.47000991 -52.64526367 179.18530273 C-52.64526367 154.76530273 -52.64526367 130.34530273 -52.64526367 105.18530273 C-60.23526367 105.18530273 -67.82526367 105.18530273 -75.64526367 105.18530273 C-75.64526367 93.63530273 -75.64526367 82.08530273 -75.64526367 70.18530273 C-68.05526367 70.18530273 -60.46526367 70.18530273 -52.64526367 70.18530273 C-52.68006836 68.54303711 -52.71487305 66.90077148 -52.75073242 65.20874023 C-53.04509423 45.80896583 -52.22969756 27.46779086 -38.64526367 12.18530273 C-27.07358078 2.2637707 -14.78586138 -0.00177822 0 0 Z " fill="#FCFDFE" transform="translate(137.645263671875,41.814697265625)"/>
<path d="M0 0 C34.32 0 68.64 0 104 0 C104 0.33 104 0.66 104 1 C103.08863281 1.06316406 102.17726563 1.12632813 101.23828125 1.19140625 C71.36559952 4.01519208 45.62517745 18.64636405 26 41 C16.42953398 52.58848544 9.55299675 66.73555805 5 81 C4.62875 82.11375 4.2575 83.2275 3.875 84.375 C2.55147643 89.85816906 1.78902147 95.41809276 1 101 C0.67 101 0.34 101 0 101 C0 67.67 0 34.34 0 0 Z " fill="#FDFDFE" transform="translate(0,0)"/>
<path d="M0 0 C33.99 0 67.98 0 103 0 C103 33 103 66 103 100 C102.67 100 102.34 100 102 100 C101.85304688 99.04222656 101.70609375 98.08445312 101.5546875 97.09765625 C96.64647193 67.16552523 81.65450453 40.65650769 57.33203125 22.10546875 C40.35762234 9.91544071 20.61876307 3.38149847 0 1 C0 0.67 0 0.34 0 0 Z " fill="#FDFDFE" transform="translate(122,0)"/>
</svg>
