<?xml version="1.0" encoding="UTF-8"?>
<svg version="1.1" xmlns="http://www.w3.org/2000/svg" width="480" height="604">
<path d="M0 0 C158.4 0 316.8 0 480 0 C480 199.32 480 398.64 480 604 C321.6 604 163.2 604 0 604 C0 404.68 0 205.36 0 0 Z " fill="#FEFEFE" transform="translate(0,0)"/>
<path d="M0 0 C3.25768595 0.41854816 4.74924509 1.41639952 6.84765625 3.88671875 C7.62411499 4.79006958 7.62411499 4.79006958 8.41625977 5.71166992 C8.95951904 6.36369385 9.50277832 7.01571777 10.0625 7.6875 C10.62960693 8.35434814 11.19671387 9.02119629 11.78100586 9.70825195 C16.11768526 14.84463705 20.3106547 20.09272899 24.39672852 25.43041992 C26.26298152 27.85853228 28.12217896 30.12011163 30.30859375 32.26953125 C32 34 32 34 32 36 C32.66 36 33.32 36 34 36 C35.26953125 37.44140625 35.26953125 37.44140625 36.8125 39.5625 C40.17653272 44.02441788 43.75764563 48.23729411 47.4375 52.4375 C51.74091616 57.36133799 55.93025379 62.33757971 59.9765625 67.4765625 C62.42801178 70.53377531 64.95896224 73.51719269 67.5 76.5 C70.726434 80.28889032 73.90927392 84.09859167 77 88 C80.07313279 91.877552 83.23284156 95.66890098 86.4375 99.4375 C92.9641106 107.11738916 99.43457406 114.82103996 105.42578125 122.9296875 C107.28800762 125.37876933 109.23151593 127.75012376 111.1875 130.125 C124.75946623 146.63755892 138.27170499 163.4714381 149 182 C149.65226562 183.09183594 150.30453125 184.18367187 150.9765625 185.30859375 C157.5391855 196.47012051 164.05380831 208.17123163 167.359375 220.7578125 C168.05999473 223.20998156 168.9966004 225.46873825 170 227.8125 C177.98001859 247.47429484 178.82693768 270.07847672 178 291 C177.9680957 291.84353027 177.93619141 292.68706055 177.90332031 293.55615234 C177.38829994 304.48382825 175.29202158 314.88676622 172.6875 325.5 C172.40382568 326.65725586 172.12015137 327.81451172 171.82788086 329.00683594 C169.84954717 336.6607171 167.23871845 343.79405243 164 351 C163.60707764 351.88461914 163.21415527 352.76923828 162.80932617 353.68066406 C157.69832719 365.01945855 152.30324444 375.89409469 145 386 C144.51080078 386.68094727 144.02160156 387.36189453 143.51757812 388.06347656 C113.061637 429.94505532 68.64550322 456.58076896 17.56469727 464.91650391 C-14.25730529 469.35749807 -45.18974428 464.2917355 -75.3125 453.875 C-76.01238037 453.63346191 -76.71226074 453.39192383 -77.43334961 453.14306641 C-81.25072285 451.77627746 -84.56278828 450.13026522 -88 448 C-89.66629208 447.33239763 -91.33298831 446.66580347 -93 446 C-100.8739679 441.85887614 -108.28937764 437.32882489 -115.38671875 431.95703125 C-117.04126885 430.71797355 -118.72913301 429.52125289 -120.45703125 428.38671875 C-132.4240457 420.39032661 -143.0959127 409.24633426 -152 398 C-152.7734375 397.2575 -152.7734375 397.2575 -153.5625 396.5 C-155.44492259 394.53573295 -156.61540743 392.34315666 -158 390 C-159.31756357 388.16807227 -160.65588868 386.35455518 -162.01171875 384.55078125 C-163 383 -163 383 -163 381 C-163.66 381 -164.32 381 -165 381 C-165.25910156 380.29359375 -165.51820313 379.5871875 -165.78515625 378.859375 C-167.09095099 375.78592885 -168.68864431 373.09330086 -170.4375 370.25 C-173.41144566 365.24385814 -175.41595299 360.59075417 -177 355 C-177.66 355 -178.32 355 -179 355 C-183.35235444 343.10992547 -187.15721134 331.34120575 -190 319 C-190.16790039 318.36900391 -190.33580078 317.73800781 -190.50878906 317.08789062 C-199.73766954 282.39825824 -194.98513269 238.97026538 -179 207 C-178.36581651 205.39944166 -177.74169767 203.79487665 -177.125 202.1875 C-176.41931007 200.45725285 -175.71095595 198.72809002 -175 197 C-174.68804687 196.16210938 -174.37609375 195.32421875 -174.0546875 194.4609375 C-172.47086242 190.85920195 -171.22373732 188.59187295 -167.609375 186.84375 C-164.41129072 185.96995648 -161.28477584 185.45106556 -158 185 C-156.78441406 184.79890625 -155.56882813 184.5978125 -154.31640625 184.390625 C-134.67534096 181.39735112 -115.24001715 182.18462141 -96 187 C-96.02320313 186.45142334 -96.04640625 185.90284668 -96.0703125 185.33764648 C-96.24959038 177.45662284 -95.21898182 169.83372597 -94 162.0625 C-93.83777451 161.01878235 -93.83777451 161.01878235 -93.67227173 159.95397949 C-90.26799462 138.44044361 -83.72368548 117.93613611 -75 98 C-74.69126953 97.28231445 -74.38253906 96.56462891 -74.06445312 95.82519531 C-64.76193007 74.3782579 -51.77474051 55.03261366 -37 37 C-36.19949219 35.99066406 -35.39898437 34.98132813 -34.57421875 33.94140625 C-33.76597656 32.92949219 -32.95773438 31.91757813 -32.125 30.875 C-31.38507813 29.94429687 -30.64515625 29.01359375 -29.8828125 28.0546875 C-29.26148438 27.37664062 -28.64015625 26.69859375 -28 26 C-27.34 26 -26.68 26 -26 26 C-25.76152344 25.43667969 -25.52304688 24.87335938 -25.27734375 24.29296875 C-20.89254571 16.42178695 -12.29586211 10.41873384 -5.34765625 4.91015625 C-3.01934518 3.12970781 -3.01934518 3.12970781 -1.43359375 1.18359375 C-0.72396484 0.59771484 -0.72396484 0.59771484 0 0 Z " fill="#DC2C00" transform="translate(248,69)"/>
<path d="M0 0 C0.76892578 0.20898926 1.53785156 0.41797852 2.33007812 0.63330078 C13.38198353 3.75128339 23.25142963 8.37703363 33.22485352 14.02294922 C34.82160919 14.90181268 36.4618299 15.70057508 38.10546875 16.48828125 C41.38233708 18.19968212 44.14075653 20.23800505 47.0625 22.5 C49.89883758 24.69022207 52.64567427 26.78933356 55.7265625 28.62109375 C58.54515454 30.33065215 60.13362216 32.30412089 62 35 C62 35.66 62 36.32 62 37 C62.88631104 37.39880371 62.88631104 37.39880371 63.79052734 37.80566406 C79.06622959 46.06298289 88.61105272 67.81929765 95 83 C95.41636719 83.94617188 95.83273438 84.89234375 96.26171875 85.8671875 C109.66675734 119.03538574 107.60034187 157.63290024 94.5625 190.5 C92.51592428 195.18438444 90.0380895 199.47548739 87.234375 203.74609375 C85.81690231 206.33432711 85.04624666 208.03096455 85 211 C86.85299516 213.47799578 86.85299516 213.47799578 89.625 215.6875 C90.36411621 216.32389404 90.36411621 216.32389404 91.11816406 216.97314453 C92.72636973 218.34047136 94.35761254 219.67397015 96 221 C96.55719727 221.45165527 97.11439453 221.90331055 97.68847656 222.36865234 C104.85427026 228.13930764 104.85427026 228.13930764 112.59765625 233.08203125 C115.45648016 234.69360707 118.04453389 236.37985986 120.6875 238.3125 C130.62083954 245.68445685 130.62083954 245.68445685 142 250 C142 250.66 142 251.32 142 252 C143.30130859 252.41765625 143.30130859 252.41765625 144.62890625 252.84375 C147.80658871 253.93366195 150.85361254 255.17080803 153.9375 256.5 C158.25713519 258.32360688 162.45461954 259.86365488 167 261 C137.15088511 280.89940992 90.43551912 283.08385639 56.18725586 276.77099609 C44.07564847 274.33222174 32.35539435 270.90986887 20.6875 266.875 C19.98761963 266.63346191 19.28773926 266.39192383 18.56665039 266.14306641 C14.74927715 264.77627746 11.43721172 263.13026522 8 261 C6.33370792 260.33239763 4.66701169 259.66580347 3 259 C-4.8739679 254.85887614 -12.28937764 250.32882489 -19.38671875 244.95703125 C-21.04126885 243.71797355 -22.72913301 242.52125289 -24.45703125 241.38671875 C-36.4240457 233.39032661 -47.0959127 222.24633426 -56 211 C-56.7734375 210.2575 -56.7734375 210.2575 -57.5625 209.5 C-59.44492259 207.53573295 -60.61540743 205.34315666 -62 203 C-63.31756357 201.16807227 -64.65588868 199.35455518 -66.01171875 197.55078125 C-67 196 -67 196 -67 194 C-67.66 194 -68.32 194 -69 194 C-69.25910156 193.29359375 -69.51820312 192.5871875 -69.78515625 191.859375 C-71.09095099 188.78592885 -72.68864431 186.09330086 -74.4375 183.25 C-77.41144566 178.24385814 -79.41595299 173.59075417 -81 168 C-81.66 168 -82.32 168 -83 168 C-87.35235444 156.10992547 -91.15721134 144.34120575 -94 132 C-94.16790039 131.36900391 -94.33580078 130.73800781 -94.50878906 130.08789062 C-103.73766954 95.39825824 -98.98513269 51.97026538 -83 20 C-82.36581651 18.39944166 -81.74169767 16.79487665 -81.125 15.1875 C-80.41931007 13.45725285 -79.71095595 11.72809002 -79 10 C-78.68804687 9.16210938 -78.37609375 8.32421875 -78.0546875 7.4609375 C-76.47086242 3.85920195 -75.22373732 1.59187295 -71.609375 -0.15625 C-68.41129072 -1.03004352 -65.28477584 -1.54893444 -62 -2 C-60.78441406 -2.20109375 -59.56882813 -2.4021875 -58.31640625 -2.609375 C-38.84437544 -5.57688823 -19.02180802 -5.18451534 0 0 Z " fill="#FDC301" transform="translate(152,256)"/>
<path d="M0 0 C7.85290603 0.69145085 14.92059108 3.734498 22 7 C22.61681641 7.28117676 23.23363281 7.56235352 23.86914062 7.85205078 C32.87449164 11.99783426 40.98164439 16.75441437 48.9140625 22.703125 C50.98126416 24.24175105 53.09554285 25.71894999 55.25 27.1328125 C58.18112135 29.12297728 60.00559442 31.08509953 62 34 C62 34.66 62 35.32 62 36 C62.88631104 36.39880371 62.88631104 36.39880371 63.79052734 36.80566406 C79.06622959 45.06298289 88.61105272 66.81929765 95 82 C95.41636719 82.94617188 95.83273438 83.89234375 96.26171875 84.8671875 C109.66675734 118.03538574 107.60034187 156.63290024 94.5625 189.5 C92.51592428 194.18438444 90.0380895 198.47548739 87.234375 202.74609375 C85.81690231 205.33432711 85.04624666 207.03096455 85 210 C86.85299516 212.47799578 86.85299516 212.47799578 89.625 214.6875 C90.36411621 215.32389404 90.36411621 215.32389404 91.11816406 215.97314453 C92.72636973 217.34047136 94.35761254 218.67397015 96 220 C96.55719727 220.45165527 97.11439453 220.90331055 97.68847656 221.36865234 C104.85427026 227.13930764 104.85427026 227.13930764 112.59765625 232.08203125 C115.45648016 233.69360707 118.04453389 235.37985986 120.6875 237.3125 C130.62083954 244.68445685 130.62083954 244.68445685 142 249 C142 249.66 142 250.32 142 251 C143.30130859 251.41765625 143.30130859 251.41765625 144.62890625 251.84375 C147.80658871 252.93366195 150.85361254 254.17080803 153.9375 255.5 C158.25713519 257.32360688 162.45461954 258.86365488 167 260 C137.14687125 279.90208584 90.45521881 282.07076912 56.20263672 275.77539062 C43.83447675 273.28937125 31.53742249 270.18894127 20 265 C20 264.34 20 263.68 20 263 C21.32 263 22.64 263 24 263 C24 262.34 24 261.68 24 261 C25.7664657 259.9923048 27.53833823 258.99408286 29.3125 258 C30.79169922 257.1646875 30.79169922 257.1646875 32.30078125 256.3125 C35 255 35 255 38 255 C38 254.34 38 253.68 38 253 C38.59167969 252.68546875 39.18335938 252.3709375 39.79296875 252.046875 C44.20820275 249.65559003 48.10325438 247.18824641 52 244 C52.66 244 53.32 244 54 244 C54 243.34 54 242.68 54 242 C55.32 241.67 56.64 241.34 58 241 C58 240.34 58 239.68 58 239 C58.66 239 59.32 239 60 239 C60.33 238.01 60.66 237.02 61 236 C62.70703125 234.3515625 62.70703125 234.3515625 64.8125 232.625 C70.05948657 228.31321741 73.82954539 223.00396071 77.75 217.5 C78.16121094 216.94441406 78.57242188 216.38882813 78.99609375 215.81640625 C81.39760478 212.42556842 82.52982 210.17622824 82 206 C81.26007813 205.75121094 80.52015625 205.50242187 79.7578125 205.24609375 C76.75646492 203.88996078 75.13123845 202.43818637 72.875 200.0625 C72.21242188 199.37285156 71.54984375 198.68320312 70.8671875 197.97265625 C70.25101562 197.32167969 69.63484375 196.67070312 69 196 C68.16855469 195.22462891 68.16855469 195.22462891 67.3203125 194.43359375 C66 193 66 193 65 190 C64.38125 189.54625 63.7625 189.0925 63.125 188.625 C60.58936178 186.68598253 59.62288462 184.74642012 58 182 C57.03966005 180.83834232 56.05871568 179.69354187 55.0625 178.5625 C48 170.49610349 48 170.49610349 48 167 C47.34 167 46.68 167 46 167 C45.9175 166.38125 45.835 165.7625 45.75 165.125 C45.5025 164.42375 45.255 163.7225 45 163 C44.01 162.566875 44.01 162.566875 43 162.125 C42.34 161.75375 41.68 161.3825 41 161 C40.25 157.875 40.25 157.875 40 155 C39.34 155 38.68 155 38 155 C36.32609377 152.55888675 35.0761805 150.19521253 34 147.4375 C33.105317 144.96580039 33.105317 144.96580039 31.5 143 C29.80543158 140.74057544 29.01817439 138.63527489 28 136 C26.19205602 132.15710562 24.2692499 128.44295952 22.0625 124.8125 C19.01401085 119.50718362 17.05999512 113.74085992 15 108 C14.71157227 107.21189941 14.42314453 106.42379883 14.12597656 105.61181641 C9.93665501 94.08348926 6.85083869 83.27638678 6 71 C5.34 71 4.68 71 4 71 C3.91435791 70.43490723 3.82871582 69.86981445 3.74047852 69.28759766 C3.35130182 66.73285367 2.95696515 64.17893253 2.5625 61.625 C2.36043945 60.29082031 2.36043945 60.29082031 2.15429688 58.9296875 C2.02216797 58.07890625 1.89003906 57.228125 1.75390625 56.3515625 C1.63345947 55.56604004 1.5130127 54.78051758 1.38891602 53.97119141 C1.07761762 51.93388316 1.07761762 51.93388316 0 50 C-0.24859114 47.40974172 -0.43077289 44.84713816 -0.5625 42.25 C-0.6042334 41.44320801 -0.6459668 40.63641602 -0.68896484 39.80517578 C-1.06303689 31.49772262 -1.11005352 23.18919293 -1.125 14.875 C-1.1275882 14.19522095 -1.13017639 13.51544189 -1.13284302 12.81506348 C-1.13867513 10.87411358 -1.1359286 8.93314366 -1.1328125 6.9921875 C-1.13168457 5.86151855 -1.13055664 4.73084961 -1.12939453 3.56591797 C-1 1 -1 1 0 0 Z " fill="#FD9001" transform="translate(152,257)"/>
<path d="M0 0 C0.33 0 0.66 0 1 0 C0.97679687 0.91523438 0.95359375 1.83046875 0.9296875 2.7734375 C0.91164062 3.96195313 0.89359375 5.15046875 0.875 6.375 C0.85179687 7.55835938 0.82859375 8.74171875 0.8046875 9.9609375 C0.67133771 13.11153817 0.67133771 13.11153817 3 15 C3.4140625 17.1640625 3.4140625 17.1640625 3.625 19.625 C3.69976562 20.44226563 3.77453125 21.25953125 3.8515625 22.1015625 C3.92503906 23.04128906 3.92503906 23.04128906 4 24 C5.98 24.66 7.96 25.32 10 26 C10 26.66 10 27.32 10 28 C6.04 27.01 2.08 26.02 -2 25 C-2.2308429 16.45881273 -1.37779257 8.4266778 0 0 Z " fill="#DB4015" transform="translate(154,232)"/>
<path d="M0 0 C1.32 0 2.64 0 4 0 C3.52994768 2.53828252 2.89404485 4.16776233 1.5 6.375 C-0.16597341 9.29045347 -0.614848 11.68769281 -1 15 C-1.99 14.34 -2.98 13.68 -4 13 C-4 12.34 -4 11.68 -4 11 C-4.66 11 -5.32 11 -6 11 C-5.67 12.65 -5.34 14.3 -5 16 C-6.65 16.33 -8.3 16.66 -10 17 C-8.51407215 12.87157159 -6.50667639 9.36786408 -4.125 5.6875 C-3.44695312 4.61886719 -2.76890625 3.55023438 -2.0703125 2.44921875 C-1.04550781 1.23685547 -1.04550781 1.23685547 0 0 Z " fill="#DC350E" transform="translate(200,120)"/>
<path d="M0 0 C0.66 0.33 1.32 0.66 2 1 C1.67 1.66 1.34 2.32 1 3 C0.34 3 -0.32 3 -1 3 C-0.87625 4.11375 -0.87625 4.11375 -0.75 5.25 C-1.07510715 8.8261787 -2.48067435 9.55701755 -5 12 C-5.79681318 14.64184541 -5.79681318 14.64184541 -6 17 C-8.62113708 17 -10.50935112 16.68707555 -13 16 C-12.09507812 14.89591797 -12.09507812 14.89591797 -11.171875 13.76953125 C-10.37265625 12.79371094 -9.5734375 11.81789063 -8.75 10.8125 C-7.96109375 9.84957031 -7.1721875 8.88664062 -6.359375 7.89453125 C-4.22415228 5.27499477 -2.10643639 2.64270803 0 0 Z " fill="#D93813" transform="translate(220,95)"/>
<path d="M0 0 C0.33 0 0.66 0 1 0 C1.37369729 7.47394574 0.04061541 13.82140651 -2 21 C-2.33 21 -2.66 21 -3 21 C-3 18.69 -3 16.38 -3 14 C-3.33 14 -3.66 14 -4 14 C-4 12.35 -4 10.7 -4 9 C-3.34 9 -2.68 9 -2 9 C-1.34 6.03 -0.68 3.06 0 0 Z " fill="#DA4623" transform="translate(423,371)"/>
<path d="M0 0 C0.33 0.66 0.66 1.32 1 2 C1.66 2 2.32 2 3 2 C3 3.65 3 5.3 3 7 C2.401875 7.268125 1.80375 7.53625 1.1875 7.8125 C-0.97224808 8.98493467 -2.35790256 10.19369282 -4 12 C-4.65234375 10.265625 -4.65234375 10.265625 -5 8 C-4.00390625 5.859375 -4.00390625 5.859375 -2.5625 3.75 C-2.08941406 3.04359375 -1.61632812 2.3371875 -1.12890625 1.609375 C-0.75636719 1.07828125 -0.38382813 0.5471875 0 0 Z " fill="#DA3B17" transform="translate(189,137)"/>
<path d="M0 0 C1.98 0.66 3.96 1.32 6 2 C5.67 5.96 5.34 9.92 5 14 C3.37723842 11.56585763 2.38255208 9.68680554 1.375 7 C0.98441406 5.9790625 0.98441406 5.9790625 0.5859375 4.9375 C0 3 0 3 0 0 Z " fill="#FAC91F" transform="translate(65,410)"/>
<path d="M0 0 C3.15062302 0.30419808 4.10741963 1.10759487 6.39453125 3.3984375 C7.59142578 4.87183594 7.59142578 4.87183594 8.8125 6.375 C9.62332031 7.35210937 10.43414062 8.32921875 11.26953125 9.3359375 C11.84058594 10.21507813 12.41164063 11.09421875 13 12 C12.67 12.99 12.34 13.98 12 15 C11.01 14.67 10.02 14.34 9 14 C8.67 12.35 8.34 10.7 8 9 C7.34 9 6.68 9 6 9 C5.6596875 7.824375 5.6596875 7.824375 5.3125 6.625 C4.21875 3.78125 4.21875 3.78125 1.375 2.6875 C0.59125 2.460625 -0.1925 2.23375 -1 2 C-0.67 1.34 -0.34 0.68 0 0 Z " fill="#D74927" transform="translate(248,69)"/>
<path d="M0 0 C-0.99 0.495 -0.99 0.495 -2 1 C-1.67 2.32 -1.34 3.64 -1 5 C-3.31 4.67 -5.62 4.34 -8 4 C-8.33 4.99 -8.66 5.98 -9 7 C-10.65 7 -12.3 7 -14 7 C-7.31818182 -1.82954545 -7.31818182 -1.82954545 0 0 Z " fill="#DB340F" transform="translate(252,72)"/>
<path d="M0 0 C3.63 0.66 7.26 1.32 11 2 C8.06626269 3.95582488 5.21783702 5.56224304 2 7 C0 6 0 6 -0.6875 4.0625 C-1 2 -1 2 0 0 Z " fill="#F7941B" transform="translate(308,515)"/>
<path d="M0 0 C1.485 0.99 1.485 0.99 3 2 C3 3.32 3 4.64 3 6 C3.66 6 4.32 6 5 6 C5.99 7.98 6.98 9.96 8 12 C6.33388095 12.042721 4.66617115 12.04063832 3 12 C0.23326632 9.23326632 0.49143637 3.6506702 0 0 Z " fill="#FCF3D1" transform="translate(80,444)"/>
<path d="M0 0 C0.66 0.66 1.32 1.32 2 2 C0.68 2.33 -0.64 2.66 -2 3 C-1.67 5.64 -1.34 8.28 -1 11 C-2.98 11.66 -4.96 12.32 -7 13 C-4.29384966 3.40546697 -4.29384966 3.40546697 0 0 Z " fill="#D94626" transform="translate(180,156)"/>
<path d="M0 0 C0.33 0.66 0.66 1.32 1 2 C0.0625 4.625 0.0625 4.625 -1 7 C-0.01 7.33 0.98 7.66 2 8 C0 9 0 9 -2.375 8.4375 C-5.44343121 7.9260948 -6.36268722 8.5242271 -9 10 C-8.06409496 8.8944811 -7.12620142 7.79064547 -6.1875 6.6875 C-5.66542969 6.07261719 -5.14335937 5.45773437 -4.60546875 4.82421875 C-3.12827531 3.14575321 -1.59960869 1.56117966 0 0 Z " fill="#F5EAE0" transform="translate(372,479)"/>
<path d="M0 0 C1.66611905 -0.042721 3.33382885 -0.04063832 5 0 C6 1 6 1 6.0625 3.5625 C6.041875 4.366875 6.02125 5.17125 6 6 C7.32 6.66 8.64 7.32 10 8 C10 8.99 10 9.98 10 11 C5.67760044 7.65996398 2.82522609 4.67248931 0 0 Z " fill="#F9EDE7" transform="translate(287,112)"/>
<path d="M0 0 C0.66 0.33 1.32 0.66 2 1 C2 3.31 2 5.62 2 8 C1.67 7.34 1.34 6.68 1 6 C0.34 6 -0.32 6 -1 6 C-1.309375 6.78375 -1.61875 7.5675 -1.9375 8.375 C-3 11 -3 11 -4 13 C-4.66 13 -5.32 13 -6 13 C-4.58707905 8.1725201 -2.57025846 4.2837641 0 0 Z " fill="#F8CD30" transform="translate(78,257)"/>
<path d="M0 0 C0.75929472 2.98613386 1.4118332 5.97514219 2 9 C1.34 9 0.68 9 0 9 C-0.433125 10.4540625 -0.433125 10.4540625 -0.875 11.9375 C-2 15 -2 15 -4 16 C-3.39891424 10.34979382 -1.92471317 5.33835539 0 0 Z " fill="#D95031" transform="translate(166,184)"/>
<path d="M0 0 C3.3 0.33 6.6 0.66 10 1 C10 1.33 10 1.66 10 2 C2.27111181 3.95403042 -5.05042008 4.22428282 -13 4 C-13 3.67 -13 3.34 -13 3 C-8.71 2.34 -4.42 1.68 0 1 C0 0.67 0 0.34 0 0 Z " fill="#F89D26" transform="translate(264,530)"/>
<path d="M0 0 C0.33 0 0.66 0 1 0 C0.91304042 2.60578866 0.80618592 5.2081279 0.6875 7.8125 C0.66494141 8.55048828 0.64238281 9.28847656 0.61914062 10.04882812 C0.3453392 15.54974762 0.3453392 15.54974762 -1.54296875 18.01171875 C-2.26419922 18.50091797 -2.26419922 18.50091797 -3 19 C-2.69127671 16.39533457 -2.37818277 13.79132309 -2.0625 11.1875 C-1.97548828 10.44951172 -1.88847656 9.71152344 -1.79882812 8.95117188 C-1.41783454 5.83266879 -0.99630626 2.98891878 0 0 Z " fill="#D75331" transform="translate(158,211)"/>
<path d="M0 0 C5.57142857 5.14285714 5.57142857 5.14285714 6 9 C4.68 8.67 3.36 8.34 2 8 C2.33 7.34 2.66 6.68 3 6 C2.34 6 1.68 6 1 6 C0.67 6.66 0.34 7.32 0 8 C-1.125 6.25 -1.125 6.25 -2 4 C-1.125 1.75 -1.125 1.75 0 0 Z " fill="#DD3F1C" transform="translate(387,237)"/>
<path d="M0 0 C1 4 1 4 0.375 5.9375 C-1.43260703 8.64891055 -3.64052971 10.76471235 -6 13 C-6.66 12.67 -7.32 12.34 -8 12 C-5.36 8.04 -2.72 4.08 0 0 Z " fill="#F7E5DE" transform="translate(398,446)"/>
<path d="M0 0 C1.58272601 3.16545202 0.33086619 5.74418878 -0.4375 9.125 C-0.72496094 10.40632813 -1.01242188 11.68765625 -1.30859375 13.0078125 C-1.53675781 13.99523437 -1.76492187 14.98265625 -2 16 C-2.66 16 -3.32 16 -4 16 C-3.47606294 10.13190493 -2.23891142 5.45126259 0 0 Z " fill="#F7D145" transform="translate(66,282)"/>
<path d="M0 0 C3.33511388 2.9901021 5.21521119 5.89498574 7 10 C7 10.66 7 11.32 7 12 C6.01 11.67 5.02 11.34 4 11 C3.67 9.35 3.34 7.7 3 6 C2.01 5.67 1.02 5.34 0 5 C0 3.35 0 1.7 0 0 Z " fill="#D54929" transform="translate(397,253)"/>
<path d="M0 0 C-1.65 1.65 -3.3 3.3 -5 5 C-5.99 3.35 -6.98 1.7 -8 0 C-4.71023192 -1.09658936 -3.28696233 -0.79953138 0 0 Z " fill="#DB320D" transform="translate(376,475)"/>
<path d="M0 0 C0.33 0.99 0.66 1.98 1 3 C3.00016466 4.20882096 3.00016466 4.20882096 5 5 C4.34 5 3.68 5 3 5 C2.67 5.99 2.34 6.98 2 8 C0.35 6.02 -1.3 4.04 -3 2 C-2.01 1.34 -1.02 0.68 0 0 Z " fill="#FAC615" transform="translate(114,480)"/>
<path d="M0 0 C2.64 0.33 5.28 0.66 8 1 C8 1.99 8 2.98 8 4 C4.04 3.67 0.08 3.34 -4 3 C-2.68 2.67 -1.36 2.34 0 2 C0 1.34 0 0.68 0 0 Z " fill="#F9981D" transform="translate(208,529)"/>
<path d="M0 0 C0.66 0.33 1.32 0.66 2 1 C0.79157144 5.43090471 -0.51668565 7.98112756 -4 11 C-4 9.35 -4 7.7 -4 6 C-2.68 5.34 -1.36 4.68 0 4 C0 2.68 0 1.36 0 0 Z " fill="#D73E1C" transform="translate(398,441)"/>
<path d="M0 0 C2.96404505 2.80804268 5.44499019 5.18315774 7 9 C5.35 9 3.7 9 2 9 C1.34 6.03 0.68 3.06 0 0 Z " fill="#D94623" transform="translate(367,210)"/>
<path d="M0 0 C0.66 0.66 1.32 1.32 2 2 C4.10820797 1.6814823 4.10820797 1.6814823 6 1 C1.375 5.875 1.375 5.875 -2 7 C-2 5.68 -2 4.36 -2 3 C-1.34 3 -0.68 3 0 3 C0 2.01 0 1.02 0 0 Z " fill="#D73D1A" transform="translate(344,497)"/>
<path d="M0 0 C0.33 0.66 0.66 1.32 1 2 C0.01 3.485 0.01 3.485 -1 5 C-1.38499891 6.65549531 -1.72793135 8.3222433 -2 10 C-5 10 -5 10 -7 9 C-4.69 6.03 -2.38 3.06 0 0 Z " fill="#F5DED3" transform="translate(386,463)"/>
<path d="M0 0 C0.66 0.33 1.32 0.66 2 1 C1.44894091 4.9492568 0.61064629 8.34920174 -1 12 C-1.33 11.01 -1.66 10.02 -2 9 C-2.66 9 -3.32 9 -4 9 C-4 8.34 -4 7.68 -4 7 C-2.68 6.67 -1.36 6.34 0 6 C0 4.02 0 2.04 0 0 Z " fill="#D5360E" transform="translate(413,408)"/>
<path d="M0 0 C0.99 0.33 1.98 0.66 3 1 C1.92598892 3.91517292 1.22189824 5.77810176 -1 8 C-1.99 8 -2.98 8 -4 8 C-2.66666667 5.33333333 -1.33333333 2.66666667 0 0 Z " fill="#F9F3ED" transform="translate(181,144)"/>
<path d="M0 0 C2.475 0.495 2.475 0.495 5 1 C5.93423645 4.01031744 6.04449911 4.86650268 5 8 C0 2.25 0 2.25 0 0 Z " fill="#F7EBE4" transform="translate(312,141)"/>
<path d="M0 0 C0.66 0.33 1.32 0.66 2 1 C1.67 1.66 1.34 2.32 1 3 C0.34 3 -0.32 3 -1 3 C-1 4.65 -1 6.3 -1 8 C-2.98 8.33 -4.96 8.66 -7 9 C-6.02180976 7.68677212 -5.0424189 6.37443848 -4.0625 5.0625 C-3.51722656 4.33160156 -2.97195312 3.60070312 -2.41015625 2.84765625 C-1 1 -1 1 0 0 Z " fill="#D65334" transform="translate(220,95)"/>
<path d="M0 0 C2.31 0.33 4.62 0.66 7 1 C6.67 3.31 6.34 5.62 6 8 C3.33264727 5.51047079 1.44253657 3.36591866 0 0 Z " fill="#F7EAE4" transform="translate(360,200)"/>
<path d="M0 0 C4.875 4.75 4.875 4.75 6 7 C4.02 7 2.04 7 0 7 C0 4.69 0 2.38 0 0 Z " fill="#D74321" transform="translate(293,120)"/>
<path d="M0 0 C1.98 1.65 3.96 3.3 6 5 C4.25 5.75 4.25 5.75 2 6 C-0.25 4.0625 -0.25 4.0625 -2 2 C-1.34 2 -0.68 2 0 2 C0 1.34 0 0.68 0 0 Z " fill="#FBF7DB" transform="translate(102,474)"/>
<path d="M0 0 C2.64752004 2.57784846 4.94432065 4.91648098 7 8 C5.02 7.34 3.04 6.68 1 6 C1.33 5.01 1.66 4.02 2 3 C0.68 2.67 -0.64 2.34 -2 2 C-1.34 1.34 -0.68 0.68 0 0 Z " fill="#D53F1A" transform="translate(326,160)"/>
<path d="M0 0 C-0.25 1.875 -0.25 1.875 -1 4 C-3.0625 5.25 -3.0625 5.25 -5 6 C-5.33 4.35 -5.66 2.7 -6 1 C-3.92446352 0.4465236 -2.15634036 0 0 0 Z " fill="#F9F3F0" transform="translate(223,91)"/>
<path d="M0 0 C0.625 1.8125 0.625 1.8125 1 4 C0.01 5.485 0.01 5.485 -1 7 C-2.32 6.67 -3.64 6.34 -5 6 C-3.35 4.02 -1.7 2.04 0 0 Z " fill="#F4E9E1" transform="translate(378,473)"/>
<path d="M0 0 C0.66 0.66 1.32 1.32 2 2 C0.35 3.98 -1.3 5.96 -3 8 C-3.625 6.1875 -3.625 6.1875 -4 4 C-3.34 3.01 -2.68 2.02 -2 1 C-1.34 1.33 -0.68 1.66 0 2 C0 1.34 0 0.68 0 0 Z " fill="#D93F1D" transform="translate(382,465)"/>
<path d="M0 0 C2.475 0.495 2.475 0.495 5 1 C5.33 2.98 5.66 4.96 6 7 C2.58841744 5.86280581 1.88145399 4.95657056 0 2 C0 1.34 0 0.68 0 0 Z " fill="#F9EBE6" transform="translate(379,224)"/>
<path d="M0 0 C4.875 4.75 4.875 4.75 6 7 C3.0625 6.25 3.0625 6.25 0 5 C-0.9375 2.9375 -0.9375 2.9375 -1 1 C-0.67 0.67 -0.34 0.34 0 0 Z " fill="#D5401C" transform="translate(266,88)"/>
<path d="M0 0 C0.66 0.33 1.32 0.66 2 1 C1.01 2.98 0.02 4.96 -1 7 C-2.65 7 -4.3 7 -6 7 C-4.02 4.69 -2.04 2.38 0 0 Z " fill="#D6502D" transform="translate(234,81)"/>
<path d="M0 0 C0 0.99 0 1.98 0 3 C-0.99 3.495 -0.99 3.495 -2 4 C-4.125 3.0625 -4.125 3.0625 -6 2 C-6 1.34 -6 0.68 -6 0 C-2.25 -1.125 -2.25 -1.125 0 0 Z " fill="#F89A10" transform="translate(178,520)"/>
<path d="M0 0 C1.32 0.33 2.64 0.66 4 1 C4 1.66 4 2.32 4 3 C4.66 3.33 5.32 3.66 6 4 C3.525 5.485 3.525 5.485 1 7 C0.67 4.69 0.34 2.38 0 0 Z " fill="#D6370F" transform="translate(352,489)"/>
<path d="M0 0 C0.66666667 2.66666667 1.33333333 5.33333333 2 8 C0.35 8.33 -1.3 8.66 -3 9 C-2.01 6.03 -1.02 3.06 0 0 Z " fill="#D9502F" transform="translate(172,169)"/>
<path d="M0 0 C1.231394 2.46278801 1.07159196 4.2795055 1 7 C-0.65 7.33 -2.3 7.66 -4 8 C-2.87548273 5.0280615 -1.77706209 2.66559313 0 0 Z " fill="#D84424" transform="translate(194,129)"/>
<path d="M0 0 C0.33 1.32 0.66 2.64 1 4 C0.01 4.33 -0.98 4.66 -2 5 C-2 5.66 -2 6.32 -2 7 C-2.99 7 -3.98 7 -5 7 C-3.70700306 4.11562221 -2.34058637 2.12780579 0 0 Z " fill="#D54B28" transform="translate(227,88)"/>
<path d="M0 0 C3.63 0 7.26 0 11 0 C7.09567131 1.95216435 4.27786748 2.50639991 0 3 C0 2.01 0 1.02 0 0 Z " fill="#F69C22" transform="translate(277,528)"/>
<path d="M0 0 C2.97 0.495 2.97 0.495 6 1 C6.33 1.99 6.66 2.98 7 4 C6.34 4 5.68 4 5 4 C4.67 4.66 4.34 5.32 4 6 C2.68 4.02 1.36 2.04 0 0 Z " fill="#F5ECE8" transform="translate(369,212)"/>
<path d="M0 0 C1.98 0 3.96 0 6 0 C1.25 4 1.25 4 -1 4 C-0.67 2.68 -0.34 1.36 0 0 Z " fill="#D83E1C" transform="translate(336,504)"/>
<path d="M0 0 C1.96446905 1.6344795 2.92317791 2.46429394 3.29296875 5.04296875 C3.1953125 7.02864583 3.09765625 9.01432292 3 11 C0.60236815 8.60236815 0.65719414 7.66726502 0.375 4.375 C0.30023438 3.55773437 0.22546875 2.74046875 0.1484375 1.8984375 C0.09945312 1.27195312 0.05046875 0.64546875 0 0 Z " fill="#F6CB2A" transform="translate(59,389)"/>
<path d="M0 0 C1.65 1.65 3.3 3.3 5 5 C3.68 5.33 2.36 5.66 1 6 C-0.0625 4.125 -0.0625 4.125 -1 2 C-0.67 1.34 -0.34 0.68 0 0 Z " fill="#D53A15" transform="translate(362,204)"/>
<path d="M0 0 C0 0.99 0 1.98 0 3 C-1.98 3.66 -3.96 4.32 -6 5 C-5.625 3.0625 -5.625 3.0625 -5 1 C-3 0 -3 0 0 0 Z " fill="#D73B14" transform="translate(179,164)"/>
</svg>
