<?xml version="1.0" encoding="UTF-8"?>
<svg version="1.1" xmlns="http://www.w3.org/2000/svg" width="2496" height="2488">
<path d="M0 0 C2.90219585 1.64113533 5.81972089 3.25254075 8.74023438 4.86083984 C28.86136346 15.9728556 48.47980293 27.84282565 67.66210938 40.50537109 C68.2952002 40.92238281 68.92829102 41.33939453 69.58056641 41.76904297 C85.54818802 52.30183994 101.21127036 63.22894656 116.66210938 74.50537109 C117.43989746 75.0715918 118.21768555 75.6378125 119.01904297 76.22119141 C135.71289978 88.38528127 151.96733799 101.04172335 167.95654297 114.11572266 C170.28329114 116.01149285 172.62741245 117.8850063 174.97460938 119.75537109 C184.42876829 127.30611366 193.69095752 135.0545818 202.85498047 142.95263672 C204.64635082 144.49183091 206.44406825 146.02324228 208.24414062 147.55224609 C214.94849754 153.25384999 221.52020798 159.06608947 227.98242188 165.04052734 C231.48553083 168.26277479 235.06388369 171.3903782 238.66210938 174.50537109 C240.1627503 175.81713825 241.66275907 177.12962896 243.16210938 178.44287109 C243.83242187 179.02939453 244.50273438 179.61591797 245.19335938 180.22021484 C245.67804688 180.64431641 246.16273437 181.06841797 246.66210938 181.50537109 C250.88514763 177.9392499 255.0159742 174.29319288 259.09960938 170.56787109 C266.28826602 164.01236172 273.63655467 157.65901187 281.02978516 151.33666992 C284.8473743 148.06972377 288.64709663 144.78323523 292.4362793 141.48339844 C299.08121467 135.6990742 305.81139849 130.04578035 312.66210938 124.50537109 C314.41266343 123.06854586 316.1626503 121.63102936 317.91210938 120.19287109 C328.38332345 111.63093822 338.95015471 103.1981551 349.70800781 94.99853516 C351.99131677 93.25381782 354.26792518 91.50050542 356.54492188 89.74755859 C366.71058786 81.9387815 376.96762029 74.32132528 387.49902344 67.01367188 C389.75771822 65.43870389 392.00378065 63.846917 394.24804688 62.25146484 C470.84881719 7.93370324 555.41831005 -38.66860329 788.00439453 -68.921875 C815.49098356 -64.22194079 842.06771241 -55.69712441 866.66210938 -42.49462891 C867.39026855 -42.11048828 868.11842773 -41.72634766 868.86865234 -41.33056641 C879.38888202 -35.76644408 889.19478527 -29.70167406 898.66210938 -22.49462891 C899.22849121 -22.07101074 899.79487305 -21.64739258 900.37841797 -21.2109375 C910.08399715 -13.93927364 918.93264445 -5.90157666 927.66210938 2.50537109 C928.45617188 3.25818359 929.25023437 4.01099609 930.06835938 4.78662109 C935.41891768 9.9673204 940.03459774 15.6797982 944.66210938 21.50537109 C945.54967825 22.60209118 946.43771378 23.69843374 947.32617188 24.79443359 C1004.52164462 95.82752072 1023.31723146 190.9271193 1021.97070312 422.65576172 C1008.66921597 545.4840513 1008.66921597 545.4840513 990.66210938 599.50537109 C991.26732422 599.63854736 991.87253906 599.77172363 992.49609375 599.90893555 C1003.58319997 602.50906989 1014.34880067 606.1486227 1025.16210938 609.69287109 C1026.23467987 610.04373779 1027.30725037 610.39460449 1028.412323 610.75610352 C1084.13766898 629.02498755 1138.60769385 650.51233413 1191.66210938 675.50537109 C1192.78246582 676.03130859 1193.90282227 676.55724609 1195.05712891 677.09912109 C1209.64431195 683.96464863 1223.9419225 691.18633927 1238.01904297 699.04345703 C1240.64411382 700.49541752 1243.28399206 701.91536848 1245.93164062 703.32568359 C1284.35253438 723.84053266 1320.81614485 748.10625695 1354.66210938 775.50537109 C1356.00402344 776.58431641 1356.00402344 776.58431641 1357.37304688 777.68505859 C1362.74810368 782.03629506 1367.9758267 786.50320025 1373.08007812 791.16943359 C1374.44977186 792.40858163 1375.82469729 793.64285036 1377.23510742 794.83544922 C1383.87694967 800.48505691 1390.00022441 806.65740281 1396.16137695 812.81933594 C1398.0865564 814.74233291 1400.01959969 816.65717684 1401.953125 818.57177734 C1408.99313152 825.58019935 1415.50255088 832.70331895 1421.66210938 840.50537109 C1422.58393275 841.58488074 1423.5134448 842.65794082 1424.45507812 843.72021484 C1459.52542526 883.59628655 1482.93529854 934.34050929 1491.66210938 986.50537109 C1491.85909424 987.62226318 1491.85909424 987.62226318 1492.06005859 988.76171875 C1496.20239982 1013.08708019 1494.9912592 1040.32747775 1490.66210938 1064.50537109 C1490.5011377 1065.42962891 1490.34016602 1066.35388672 1490.17431641 1067.30615234 C1485.96560525 1090.69057628 1478.14239163 1113.21367603 1467.66210938 1134.50537109 C1467.23091797 1135.39611328 1466.79972656 1136.28685547 1466.35546875 1137.20458984 C1448.18915088 1174.47282994 1422.05802692 1206.29886177 1392.90087891 1235.4519043 C1391.1582262 1237.19675917 1389.42377775 1238.94950852 1387.68945312 1240.70263672 C1381.71343594 1246.70789445 1375.6714314 1252.37185629 1369.01489258 1257.6262207 C1366.71100151 1259.46632131 1364.52479149 1261.39075461 1362.34960938 1263.38037109 C1356.3739707 1268.74149373 1350.0250148 1273.61703852 1343.66210938 1278.50537109 C1343.06043945 1278.96927246 1342.45876953 1279.43317383 1341.83886719 1279.91113281 C1323.80999439 1293.76799519 1305.06320059 1306.64937272 1285.66210938 1318.50537109 C1284.46255615 1319.23916992 1284.46255615 1319.23916992 1283.23876953 1319.98779297 C1277.40854743 1323.54255277 1271.54580059 1327.0399183 1265.66210938 1330.50537109 C1264.87771484 1330.9684668 1264.09332031 1331.4315625 1263.28515625 1331.90869141 C1195.13656916 1371.96786501 1121.79843092 1402.26665867 1012.28710938 1439.38037109 C1011.31079559 1439.69167969 1010.33448181 1440.00298828 1009.32858276 1440.32373047 C1006.57908073 1441.19835878 1003.828065 1442.06798624 1001.07617188 1442.93505859 C1000.25110641 1443.19680878 999.42604095 1443.45855896 998.57597351 1443.72824097 C992.89596915 1445.50537109 992.89596915 1445.50537109 990.66210938 1445.50537109 C991.02127441 1446.90287598 991.02127441 1446.90287598 991.38769531 1448.32861328 C994.12924844 1459.08892188 996.58783497 1469.8978124 998.91210938 1480.75537109 C999.10464294 1481.65454254 999.29717651 1482.55371399 999.49554443 1483.48013306 C1015.30558893 1557.6266664 1026.45700916 1633.59409983 1027.66210938 1709.50537109 C1027.67854492 1710.52229034 1027.67854492 1710.52229034 1027.6953125 1711.55975342 C1029.08335908 1801.69347662 1019.22071716 1896.09768077 923.66210938 2046.50537109 C921.08808325 2048.96327574 918.40260368 2051.23651983 915.66210938 2053.50537109 C914.74429687 2054.31103516 913.82648438 2055.11669922 912.88085938 2055.94677734 C858.43090138 2103.58509481 787.00522523 2121.09028589 715.93017578 2117.04077148 C652.94790269 2112.82564061 592.11012504 2092.40164045 535.30419922 2065.74267578 C532.89318839 2064.61358662 530.47654971 2063.49803876 528.05664062 2062.38818359 C492.61156426 2046.05914327 458.74940828 2025.76211041 426.24462891 2004.21679688 C423.37615229 2002.31586843 420.50135833 2000.4246653 417.62695312 1998.53271484 C407.072785 1991.56403628 396.66707604 1984.4779606 386.54296875 1976.89892578 C383.67804836 1974.7762667 380.77827845 1972.70282075 377.88110352 1970.62451172 C369.67865041 1964.7398646 361.62921935 1958.70427043 353.66210938 1952.50537109 C352.0915744 1951.30783817 350.52103112 1950.11031568 348.94970703 1948.91381836 C341.97848311 1943.59445754 335.17098373 1938.08448932 328.38085938 1932.53662109 C325.43099546 1930.12687311 322.4603086 1927.74566528 319.47460938 1925.38037109 C315.09315825 1921.88844277 310.82005885 1918.27779767 306.5546875 1914.64599609 C303.06420606 1911.67764792 299.53654834 1908.76312678 295.97460938 1905.88037109 C291.57265615 1902.30020074 287.36096349 1898.55510949 283.16992188 1894.73193359 C280.68620401 1892.52676353 278.13416232 1890.45026105 275.53710938 1888.38037109 C269.91314324 1883.8443984 264.69476139 1878.92361357 259.49560547 1873.90917969 C255.1261469 1869.73338134 250.57780481 1866.02192767 245.66210938 1862.50537109 C245.10523438 1863.07384766 244.54835938 1863.64232422 243.97460938 1864.22802734 C239.69655852 1868.55666326 235.36736394 1872.73866066 230.74804688 1876.70068359 C228.41185437 1878.72188385 226.13246086 1880.79915948 223.84960938 1882.88037109 C219.47925254 1886.82908554 214.95907859 1890.55164319 210.38085938 1894.25537109 C207.74063208 1896.44038679 205.19481217 1898.697085 202.66210938 1901.00537109 C198.41559252 1904.87070455 194.03197828 1908.51935356 189.56835938 1912.13037109 C187.00862829 1914.22219435 184.48519662 1916.34703478 181.97216797 1918.49414062 C175.254094 1924.23371691 168.37372608 1929.73084403 161.39746094 1935.15234375 C159.72742534 1936.45444522 158.06449337 1937.76497503 156.40429688 1939.07958984 C140.12877421 1951.96124513 123.60265516 1964.51028801 106.66210938 1976.50537109 C105.8205127 1977.1025293 104.97891602 1977.6996875 104.11181641 1978.31494141 C33.76945334 2028.09727715 -42.41141857 2072.29674794 -298.67773438 2112.32177734 C-339.36010852 2104.86562812 -377.8911044 2088.27332979 -410.33789062 2062.50537109 C-411.21058594 2061.82474609 -412.08328125 2061.14412109 -412.98242188 2060.44287109 C-456.37616583 2025.88035761 -485.42256689 1978.13533018 -504.33789062 1926.50537109 C-504.67530273 1925.59045898 -505.01271484 1924.67554687 -505.36035156 1923.73291016 C-522.88246262 1875.57702055 -530.68398611 1823.51754764 -533.33789062 1772.50537109 C-533.42248535 1770.91885742 -533.42248535 1770.91885742 -533.50878906 1769.30029297 C-538.44985541 1672.05776832 -525.30802794 1574.85978154 -498.72998047 1450.32568359 C-498.26770141 1448.48985487 -498.26770141 1448.48985487 -498.33789062 1446.50537109 C-498.91971603 1446.32126175 -499.50154144 1446.1371524 -500.10099792 1445.94746399 C-583.80585363 1419.44311858 -667.00864252 1389.60928465 -744.33789062 1347.50537109 C-745.81298096 1346.70607178 -745.81298096 1346.70607178 -747.31787109 1345.890625 C-778.46518987 1328.96634647 -808.78349438 1310.55903526 -837.33789062 1289.50537109 C-837.9550293 1289.05274902 -838.57216797 1288.60012695 -839.20800781 1288.13378906 C-848.89488735 1281.01419727 -858.2959857 1273.59052151 -867.57470703 1265.94824219 C-869.11341044 1264.68907061 -870.66774344 1263.44904687 -872.22460938 1262.21240234 C-884.82156863 1252.17625992 -896.20167965 1240.73741185 -907.61688232 1229.40161133 C-908.70573474 1228.32081321 -909.79606202 1227.24149852 -910.88800049 1226.16381836 C-917.85418597 1219.27910716 -924.22453991 1212.17354884 -930.33789062 1204.50537109 C-931.26022073 1203.42629436 -932.18967865 1202.35320239 -933.13085938 1201.29052734 C-968.20120651 1161.41445564 -991.61107979 1110.67023289 -1000.33789062 1058.50537109 C-1000.46921387 1057.76077637 -1000.60053711 1057.01618164 -1000.73583984 1056.24902344 C-1004.87818107 1031.92366199 -1003.66704045 1004.68326444 -999.33789062 980.50537109 C-999.09643311 979.11898438 -999.09643311 979.11898438 -998.85009766 977.70458984 C-994.6413865 954.32016591 -986.81817288 931.79706616 -976.33789062 910.50537109 C-975.69110352 909.16925781 -975.69110352 909.16925781 -975.03125 907.80615234 C-963.13756849 883.40623921 -947.70572929 861.3059985 -930.33789062 840.50537109 C-929.50692871 839.50272217 -928.6759668 838.50007324 -927.81982422 837.46704102 C-920.42398333 828.63420073 -912.53356427 820.39045325 -904.36499023 812.27172852 C-902.26699555 810.18451918 -900.17999947 808.0867352 -898.09375 805.98779297 C-891.53448941 799.42237931 -884.97561866 793.08210457 -877.65991211 787.35595703 C-875.15676829 785.36102168 -872.81102435 783.2421894 -870.46289062 781.06787109 C-865.25497803 776.33489392 -859.74300006 772.07065679 -854.12255859 767.84863281 C-852.29391894 766.47227504 -850.47371651 765.08529435 -848.65429688 763.69677734 C-824.93687102 745.66366822 -800.01654694 729.59062352 -774.33789062 714.50537109 C-773.55784668 714.04517578 -772.77780273 713.58498047 -771.97412109 713.11083984 C-703.64462905 672.94198093 -630.15157729 642.69663249 -525.08789062 606.81787109 C-523.93861084 606.44187775 -523.93861084 606.44187775 -522.76611328 606.05828857 C-514.03198046 603.20805116 -505.29773152 600.57129124 -496.33789062 598.50537109 C-496.69814331 597.20853394 -496.69814331 597.20853394 -497.06567383 595.88549805 C-499.88396397 585.55403723 -502.2891901 575.16463927 -504.52539062 564.69287109 C-504.71631287 563.80020538 -504.90723511 562.90753967 -505.10394287 561.98782349 C-519.07373767 496.36229254 -529.14044082 429.57523133 -532.33789062 362.50537109 C-532.39428711 361.37647461 -532.45068359 360.24757813 -532.50878906 359.08447266 C-536.93844509 267.42466718 -528.83359425 173.58332317 -436.70532227 6.33178711 C-431.85840297 1.02825743 -426.87366673 -3.91156789 -421.33789062 -8.49462891 C-420.42007813 -9.30029297 -419.50226562 -10.10595703 -418.55664062 -10.93603516 C-344.10184674 -76.07660161 -241.8983865 -83.16945985 0 0 Z M-349.33789062 79.50537109 C-350.08296875 80.16794922 -350.82804688 80.83052734 -351.59570312 81.51318359 C-362.37265975 91.56867032 -371.13532923 104.73128926 -378.33789062 117.50537109 C-378.71478027 118.16102051 -379.09166992 118.81666992 -379.47998047 119.4921875 C-403.16429616 160.99930816 -412.55654448 209.79981633 -417.02539062 256.88037109 C-417.14487061 258.13817383 -417.26435059 259.39597656 -417.38745117 260.69189453 C-419.03832476 279.17307171 -419.5774101 297.64305849 -419.58789062 316.19287109 C-419.58856537 317.28641907 -419.58924011 318.37996704 -419.5899353 319.50665283 C-419.50911408 403.35980499 -406.30031177 486.98965561 -387.33789062 568.50537109 C-380.41268778 567.86688986 -373.78933357 566.62904282 -367.00976562 565.09912109 C-364.76718757 564.60213976 -362.52459244 564.10523548 -360.28198242 563.60839844 C-358.52475357 563.21645294 -358.52475357 563.21645294 -356.73202515 562.81658936 C-275.78178931 544.79631343 -194.09489146 531.32518514 -111.80273438 521.13427734 C-110.0234127 520.91339447 -110.0234127 520.91339447 -108.20814514 520.68804932 C-103.07200556 520.05748427 -97.93780897 519.45041929 -92.78759766 518.94628906 C-91.54726524 518.82228981 -91.54726524 518.82228981 -90.28187561 518.69578552 C-88.81495455 518.55285545 -87.34706919 518.41925792 -85.87815857 518.29847717 C-78.45818738 517.57858603 -72.85869041 514.36567684 -66.71289062 510.31787109 C-61.26832946 506.80557813 -55.70901925 503.56447786 -50.02148438 500.46630859 C-49.37705383 500.11487289 -48.73262329 499.76343719 -48.06866455 499.40135193 C-44.81253099 497.62980145 -41.5495904 495.87202966 -38.27880859 494.12768555 C-37.05490389 493.46602214 -35.83110392 492.80416495 -34.60742188 492.14208984 C-33.52050049 491.56160889 -32.4335791 490.98112793 -31.3137207 490.38305664 C-26.74933926 487.50302894 -23.4093317 483.78503048 -20.13867188 479.53662109 C-19.57446533 478.80733398 -19.01025879 478.07804687 -18.42895508 477.32666016 C-17.84202881 476.56063477 -17.25510254 475.79460937 -16.65039062 475.00537109 C-16.03317139 474.20583008 -15.41595215 473.40628906 -14.7800293 472.58251953 C-12.96231399 470.22626563 -11.14934646 467.86643909 -9.33789062 465.50537109 C-8.42131917 464.31258959 -7.50466278 463.11987334 -6.58789062 461.92724609 C-5.77538171 460.86996128 -4.96288138 459.81266986 -4.15039062 458.75537109 C4.29184044 447.76947106 12.90331606 436.93491702 21.65820312 426.19677734 C24.09327116 423.20894051 26.5094835 420.20690077 28.91210938 417.19287109 C32.36906395 412.85899512 35.87165414 408.56404863 39.38867188 404.27880859 C40.86712763 402.47519419 42.34132776 400.66808006 43.81054688 398.85693359 C48.52063082 393.05859921 53.33561076 387.3632509 58.21337891 381.70629883 C61.31611777 378.10029275 64.35654947 374.45360218 67.34960938 370.75537109 C70.90306507 366.37597705 74.62475737 362.19141344 78.42382812 358.02490234 C80.69058096 355.47332193 82.83751024 352.85365578 84.97460938 350.19287109 C89.38582337 344.73872559 94.10224584 339.62277974 98.88476562 334.49755859 C101.59857397 331.58699234 104.21950694 328.60525118 106.82226562 325.59521484 C109.70332296 322.32267626 112.66826579 319.12711567 115.62207031 315.92041016 C118.11337483 313.2108394 120.57371791 310.48276776 122.97460938 307.69287109 C128.0629588 301.83099586 133.42762799 296.21713838 138.73876953 290.55810547 C140.66935638 288.49763653 142.59413082 286.43187964 144.51757812 284.36474609 C151.75754041 276.59458223 159.08115024 268.94448276 166.66210938 261.50537109 C165.9015625 260.74740234 165.14101562 259.98943359 164.35742188 259.20849609 C162.90374278 257.75060344 161.45408378 256.28838746 160.02929688 254.80224609 C156.72066018 251.37235046 153.2521468 248.30394042 149.53710938 245.31787109 C145.24647141 241.86772796 141.17575665 238.26734927 137.16210938 234.50537109 C132.41021635 230.06050199 127.53849777 225.85154773 122.46289062 221.77490234 C119.3801544 219.27689712 116.36512266 216.70857848 113.34960938 214.13037109 C108.35999695 209.88028919 103.26742085 205.78756036 98.09326172 201.76489258 C94.33251896 198.83592187 90.62812816 195.84865189 86.94921875 192.81762695 C78.22126732 185.6360596 69.2075979 178.90893597 60.06787109 172.26269531 C57.71609542 170.544806 55.3765631 168.81164853 53.04101562 167.07177734 C36.02218663 154.40442509 18.67839766 142.19054406 0.75439453 130.83398438 C-1.42402965 129.45067231 -3.59408655 128.05484281 -5.76367188 126.65771484 C-61.55445844 90.88084139 -123.05546352 59.33043642 -188.33789062 45.50537109 C-189.25634766 45.31007813 -190.17480469 45.11478516 -191.12109375 44.91357422 C-247.70607361 33.1695218 -305.55426426 39.06188151 -349.33789062 79.50537109 Z M487.66210938 134.50537109 C486.623125 135.18857422 485.58414062 135.87177734 484.51367188 136.57568359 C463.43416942 150.53449621 443.02621614 165.32817084 422.97851562 180.72802734 C420.991444 182.25267758 419.00026856 183.77159371 417.00585938 185.28662109 C410.46331875 190.2744986 404.05333199 195.40203716 397.68579102 200.6105957 C393.26614546 204.22134767 388.79555271 207.75643779 384.28710938 211.25537109 C379.35967328 215.08972983 374.67716873 219.10387276 370.08007812 223.33349609 C367.54821741 225.60767147 364.9385235 227.74713633 362.28710938 229.88037109 C357.1459689 234.03982279 352.29033601 238.44650993 347.44335938 242.93896484 C344.54524788 245.61320537 341.59778629 248.21866291 338.61914062 250.80224609 C334.93892035 254.00499268 331.30425774 257.25947498 327.66210938 260.50537109 C330.69213651 264.12662304 333.72993519 267.63418648 337.09960938 270.94287109 C339.53373025 273.33438154 341.81599771 275.78992908 344.03710938 278.38037109 C347.26358103 282.12770812 350.70770653 285.59438326 354.25585938 289.03662109 C356.88121527 291.73016805 359.32866372 294.54215311 361.79296875 297.38232422 C364.8327293 300.8350094 367.99891436 304.16608068 371.16210938 307.50537109 C375.56077933 312.14891546 379.87050104 316.84428005 384.06347656 321.67480469 C386.17809302 324.09621492 388.35575708 326.4565756 390.53710938 328.81787109 C393.84547851 332.44061015 397.02223295 336.1223 400.09960938 339.94287109 C403.32154255 343.93761363 406.66868549 347.75089218 410.16210938 351.50537109 C414.47207376 356.13785489 418.51272105 360.92659343 422.48242188 365.85693359 C424.63968336 368.47812228 426.87521938 370.9969139 429.16210938 373.50537109 C433.3889516 378.15417002 437.36693229 382.96822951 441.31787109 387.85205078 C443.9973271 391.14759675 446.70833368 394.41727764 449.41210938 397.69287109 C456.20225867 405.93131703 462.95146388 414.20204895 469.66210938 422.50537109 C470.16452148 423.12621582 470.66693359 423.74706055 471.18457031 424.38671875 C477.51680812 432.22064861 483.710552 440.14628249 489.80444336 448.16699219 C493.37653537 452.85759651 497.02029666 457.48117459 500.72460938 462.06787109 C505.50652563 467.99128727 510.11639589 474.0283984 514.65454102 480.14038086 C515.57660242 481.3821624 516.50378684 482.62016115 517.43676758 483.85375977 C518.47727841 485.25624149 519.45761995 486.70304666 520.42382812 488.15771484 C523.73949139 491.63540005 527.6895791 493.35423345 531.97460938 495.44287109 C541.31943095 500.1474542 550.23848722 505.3656686 559.10864258 510.90942383 C560.02347412 511.47862549 560.93830566 512.04782715 561.88085938 512.63427734 C562.68458984 513.14031494 563.48832031 513.64635254 564.31640625 514.16772461 C568.78200046 516.71424737 572.99775409 518.31511017 578.15820312 518.20458984 C582.64697233 516.95109579 585.4052402 513.50605128 588.65429688 510.30224609 C600.93143296 498.45688719 618.53397908 491.03985057 634.66210938 486.50537109 C636.36947266 486.02390625 636.36947266 486.02390625 638.11132812 485.53271484 C656.47222068 481.26504793 678.53362292 481.27752906 696.66210938 486.50537109 C697.31824219 486.69341309 697.974375 486.88145508 698.65039062 487.07519531 C714.57416807 491.78710403 730.31067946 499.3029114 742.66210938 510.50537109 C743.47550781 511.18986328 744.28890625 511.87435547 745.12695312 512.57958984 C756.17003924 522.05724619 765.14972352 533.48059938 771.66210938 546.50537109 C773.67775636 547.19306589 773.67775636 547.19306589 776.19726562 547.66162109 C777.20966309 547.87423584 778.22206055 548.08685059 779.26513672 548.3059082 C780.4067627 548.53673096 781.54838867 548.76755371 782.72460938 549.00537109 C784.59776089 549.39605841 786.47091203 549.78674752 788.34405518 550.17747498 C791.27934946 550.78724185 794.21635675 551.38857422 797.15325928 551.99053955 C804.90500798 553.58124629 812.65373519 555.18664812 820.40219116 556.79330444 C822.49303799 557.22653564 824.58404182 557.65900982 826.67520142 558.09072876 C836.90117082 560.20318944 847.11960318 562.32561824 857.27929688 564.73974609 C857.99153412 564.90894058 858.70377136 565.07813507 859.43759155 565.25245667 C862.65754264 566.02199354 865.87201813 566.80807766 869.08349609 567.61254883 C870.17678223 567.88010986 871.27006836 568.1476709 872.39648438 568.42333984 C873.32686523 568.65819092 874.25724609 568.89304199 875.21582031 569.13500977 C877.76348004 569.52071833 879.22132435 569.19666339 881.66210938 568.50537109 C896.26291735 501.46332779 908.69933139 434.12424905 912.66210938 365.50537109 C912.70447723 364.79485596 912.74684509 364.08434082 912.79049683 363.35229492 C913.68012292 348.11152741 913.86375244 332.89467073 913.84960938 317.63037109 C913.84900513 316.419599 913.84840088 315.2088269 913.84777832 313.96136475 C913.82268203 295.39531299 913.50503768 276.99295866 911.66210938 258.50537109 C911.53852051 257.2232373 911.41493164 255.94110352 911.28759766 254.62011719 C908.31462696 224.4150933 903.07829521 194.39865019 893.66210938 165.50537109 C893.1489997 163.85305493 892.63597684 162.2007118 892.12304688 160.54833984 C878.19508537 117.1046013 851.31058005 76.45664192 810.14306641 55.00805664 C796.85021728 48.41221572 782.29736643 43.89137167 767.66210938 41.50537109 C766.44652344 41.30169922 765.2309375 41.09802734 763.97851562 40.88818359 C667.43527428 26.37365521 565.47601558 83.17950474 487.66210938 134.50537109 Z M246.66210938 339.50537109 C243.97029663 342.1677131 241.28448791 344.83603776 238.59960938 347.50537109 C237.84744141 348.24916016 237.09527344 348.99294922 236.3203125 349.75927734 C232.09150538 353.96977794 228.04810488 358.26683078 224.15649414 362.79052734 C222.41221029 364.79213653 220.57174698 366.66158306 218.66210938 368.50537109 C215.53799953 371.58782614 212.63509849 374.78046881 209.77539062 378.10693359 C206.96474519 381.29683433 204.06347215 384.39808402 201.16210938 387.50537109 C197.14603785 391.81069034 193.17081598 396.1350489 189.32617188 400.59521484 C187.34670812 402.8674162 185.31627767 405.08996982 183.28710938 407.31787109 C177.77390955 413.42683694 172.23236819 419.64998288 167.66210938 426.50537109 C172.79017139 426.63756603 177.71002225 426.4433526 182.80664062 425.84912109 C224.83089068 421.09006107 269.49310116 421.118759 311.48632812 426.14160156 C316.53447894 426.71984147 321.59636248 427.11627813 326.66210938 427.50537109 C324.30819721 423.44491528 321.62737491 420.09243025 318.41210938 416.69287109 C317.4192365 415.62710293 316.42704819 414.56069661 315.43554688 413.49365234 C314.95698242 412.98012207 314.47841797 412.4665918 313.98535156 411.9375 C312.3011446 410.11470331 310.66345602 408.25486922 309.03710938 406.38037109 C305.72865424 402.56777042 302.35651024 398.81538286 298.97460938 395.06787109 C296.74093444 392.59271779 294.51393222 390.11168798 292.28710938 387.63037109 C287.60078124 382.42424227 282.87220539 377.25758937 278.12988281 372.10253906 C276.60979375 370.44844348 275.09290575 368.79144954 273.57617188 367.13427734 C268.64631086 361.75849926 263.68228632 356.46306034 258.47460938 351.35302734 C255.91296104 348.74169186 253.55488656 345.97134293 251.20507812 343.16943359 C249.56822605 341.27452198 249.56822605 341.27452198 246.66210938 339.50537109 Z M-234.07885742 652.17944336 C-235.05558914 652.35507812 -236.03232086 652.53071289 -237.03865051 652.71166992 C-238.11064194 652.91300537 -239.18263336 653.11434082 -240.28710938 653.32177734 C-241.41988815 653.52947754 -242.55266693 653.73717773 -243.71977234 653.95117188 C-247.49017603 654.64709471 -251.25789186 655.35639905 -255.02539062 656.06787109 C-256.31334534 656.30891571 -257.60130005 656.54996033 -258.92828369 656.79830933 C-279.88637876 660.72493094 -300.75322299 665.04123541 -321.58218765 669.60139084 C-323.00427018 669.91273101 -324.42644816 670.22363551 -325.84872055 670.53410721 C-330.54239989 671.55871304 -335.23373966 672.5933528 -339.92382812 673.63427734 C-341.70426765 674.02583008 -341.70426765 674.02583008 -343.52067566 674.42529297 C-345.15955498 674.79279663 -345.15955498 674.79279663 -346.83154297 675.16772461 C-347.77943695 675.37881363 -348.72733093 675.58990265 -349.70394897 675.80738831 C-352.35788048 676.51066832 -354.81328413 677.4322266 -357.33789062 678.50537109 C-355.30032601 687.18227017 -352.79754916 695.63076164 -350.01367188 704.09521484 C-349.59022359 705.39130248 -349.16701211 706.6874675 -348.74401855 707.98370361 C-347.61814415 711.42857483 -346.48599892 714.87135108 -345.35174942 718.31347275 C-344.64749924 720.45164964 -343.94484205 722.59034453 -343.24252319 724.72915649 C-330.2218274 764.95469456 -330.2218274 764.95469456 -315.33789062 804.50537109 C-314.67789063 804.50537109 -314.01789062 804.50537109 -313.33789062 804.50537109 C-313.10303955 803.9249707 -312.86818848 803.34457031 -312.6262207 802.74658203 C-290.87948131 749.2369918 -263.43668857 697.1135934 -226.33789062 652.50537109 C-229.58186549 651.42404614 -230.79079475 651.57716624 -234.07885742 652.17944336 Z M770.66210938 661.50537109 C768.81683475 663.86962921 767.24168742 666.15963965 765.66210938 668.69287109 C761.42722827 675.21407733 756.85389404 680.91791423 751.37109375 686.42993164 C748.26887189 689.39045136 748.26887189 689.39045136 747.66210938 693.50537109 C748.65422415 695.49085333 748.65422415 695.49085333 750.04882812 697.58349609 C750.56823975 698.40221191 751.08765137 699.22092773 751.62280273 700.06445312 C752.19264893 700.95245605 752.76249512 701.84045898 753.34960938 702.75537109 C769.18641835 727.91958039 783.33330951 754.12511202 795.22460938 781.38037109 C795.51447723 782.04446991 795.80434509 782.70856873 796.10299683 783.39279175 C799.85080083 792.01353132 803.36009574 800.70433841 806.66210938 809.50537109 C808.37814075 806.93132403 809.32177873 804.9919143 810.35107422 802.13037109 C810.67302261 801.24115967 810.99497101 800.35194824 811.32667542 799.43579102 C811.84462929 797.98523315 811.84462929 797.98523315 812.37304688 796.50537109 C812.73716171 795.49514893 813.10127655 794.48492676 813.47642517 793.4440918 C814.66804492 790.13285994 815.85309129 786.81932815 817.03710938 783.50537109 C817.44327484 782.37147949 817.84944031 781.23758789 818.26791382 780.06933594 C821.07939785 772.21942927 823.87626687 764.36441245 826.66210938 756.50537109 C827.1308548 755.18351807 827.1308548 755.18351807 827.60906982 753.83496094 C836.30848256 729.2681582 844.08450119 704.43880096 851.66210938 679.50537109 C848.83296087 677.97443077 846.22677161 677.04681264 843.09082031 676.34790039 C842.18757019 676.14396164 841.28432007 675.94002289 840.35369873 675.72990417 C839.37781799 675.51530045 838.40193726 675.30069672 837.39648438 675.07958984 C835.85894501 674.7353875 835.85894501 674.7353875 834.29034424 674.38423157 C832.10866042 673.89684795 829.92641178 673.41198693 827.74365234 672.92944336 C824.4926163 672.2106704 821.24324271 671.48478332 817.99414062 670.75732422 C807.110082 668.32778391 796.2134938 665.95661561 785.30273438 663.64990234 C784.291203 663.43339523 783.27967163 663.21688812 782.23748779 662.99382019 C780.8316745 662.69946831 780.8316745 662.69946831 779.39746094 662.39916992 C778.57683167 662.22589676 777.75620239 662.0526236 776.91070557 661.87409973 C774.38400057 661.39749079 774.38400057 661.39749079 770.66210938 661.50537109 Z M-472.21289062 708.53076172 C-473.01979843 708.7833374 -473.82670624 709.03591309 -474.6580658 709.29614258 C-475.54240799 709.58175049 -476.42675018 709.8673584 -477.33789062 710.16162109 C-478.26384537 710.45496338 -479.18980011 710.74830566 -480.14381409 711.05053711 C-483.21148948 712.02641272 -486.27491671 713.01484407 -489.33789062 714.00537109 C-490.39064178 714.34383057 -491.44339294 714.68229004 -492.52804565 715.03100586 C-545.35101501 732.03248917 -597.08900526 751.92958258 -647.33789062 775.50537109 C-648.34916016 775.97942383 -649.36042969 776.45347656 -650.40234375 776.94189453 C-673.6942112 787.89975926 -696.42202942 799.6533417 -718.53466797 812.83837891 C-721.18664529 814.41543004 -723.84828744 815.97455598 -726.51367188 817.52880859 C-739.18178267 824.95874922 -751.31756277 833.072766 -763.33789062 841.50537109 C-764.15064453 842.07433105 -764.96339844 842.64329102 -765.80078125 843.22949219 C-776.68681214 850.88162579 -787.1414224 858.95787112 -797.33789062 867.50537109 C-797.97275391 868.03582031 -798.60761719 868.56626953 -799.26171875 869.11279297 C-805.60451223 874.42772863 -811.80189313 879.7745777 -817.56054688 885.72802734 C-819.34837111 887.51585158 -821.21405202 889.13071677 -823.15039062 890.75537109 C-828.69633673 895.54308238 -833.49709732 901.02459717 -838.33789062 906.50537109 C-838.78535645 907.00810547 -839.23282227 907.51083984 -839.69384766 908.02880859 C-872.16786683 944.69417284 -892.07261146 986.92369332 -889.33789062 1036.50537109 C-887.39937956 1056.74001536 -879.94601766 1075.76327959 -870.33789062 1093.50537109 C-869.74621094 1094.63845703 -869.15453125 1095.77154297 -868.54492188 1096.93896484 C-858.84641792 1114.82639751 -845.56953066 1131.83792875 -830.90039062 1145.94287109 C-829.16723464 1147.67602708 -827.60583016 1149.50725757 -826.02539062 1151.38037109 C-822.6467394 1155.29209841 -818.93876654 1158.68495532 -815.06054688 1162.09521484 C-812.69230944 1164.19163163 -810.37582019 1166.33279889 -808.06933594 1168.49658203 C-801.69172344 1174.453785 -794.984514 1179.8766977 -788.05957031 1185.18212891 C-786.41773201 1186.4440069 -784.78648927 1187.71826337 -783.15820312 1188.99755859 C-762.02454114 1205.49340947 -739.48097472 1220.00596238 -716.33789062 1233.50537109 C-715.46358398 1234.01535645 -714.58927734 1234.5253418 -713.68847656 1235.05078125 C-697.52705728 1244.42814253 -681.01851378 1253.09758682 -664.33789062 1261.50537109 C-663.27747559 1262.04097656 -662.21706055 1262.57658203 -661.12451172 1263.12841797 C-626.55082052 1280.47267678 -590.6070999 1295.12434185 -554.33789062 1308.50537109 C-553.4997583 1308.81518921 -552.66162598 1309.12500732 -551.7980957 1309.44421387 C-531.16548238 1317.06140152 -510.4198622 1324.26718371 -489.46289062 1330.94287109 C-488.57023499 1331.22857971 -487.67757935 1331.51428833 -486.75787354 1331.80865479 C-484.2477081 1332.60936682 -481.73492372 1333.40109043 -479.22070312 1334.18896484 C-478.47796143 1334.42565384 -477.73521973 1334.66234283 -476.9699707 1334.90620422 C-473.56121049 1335.96094314 -470.94583787 1336.50537109 -467.33789062 1336.50537109 C-467.0372168 1335.54276367 -466.73654297 1334.58015625 -466.42675781 1333.58837891 C-459.21949715 1310.53847561 -451.80805022 1287.56869818 -444.07495117 1264.68981934 C-443.34814947 1262.53577555 -442.62468587 1260.38064062 -441.90234375 1258.22509766 C-422.62967942 1200.74750455 -400.30932726 1144.24346744 -376.23803711 1088.61303711 C-375.18836839 1086.18651553 -374.14479982 1083.75734506 -373.10766602 1081.32543945 C-370.68988606 1075.70154787 -368.20417446 1070.17011918 -365.42723083 1064.71662903 C-355.3427151 1044.88758708 -348.50577216 1024.59922463 -354.9697876 1002.32824707 C-358.07331061 993.0038498 -362.48250819 984.21774847 -366.89529419 975.4589386 C-371.13210117 967.02970918 -374.80737772 958.38624656 -378.46289062 949.69287109 C-379.15609692 948.05808741 -379.84954085 946.42340447 -380.54321289 944.78881836 C-394.26933495 912.33300095 -407.43708461 879.55673149 -419.60845947 846.48394775 C-420.41682938 844.29125029 -421.2295061 842.10017403 -422.04248047 839.90917969 C-436.73907031 800.25943212 -450.85616387 760.3348279 -462.81152344 719.76391602 C-463.03922424 719.00034286 -463.26692505 718.23676971 -463.50152588 717.45005798 C-463.92158948 716.03937173 -464.33522893 714.62674991 -464.7411499 713.21192932 C-465.21528109 711.62454616 -465.76899566 710.06130947 -466.33789062 708.50537109 C-468.89029461 707.2291691 -469.54084699 707.68244292 -472.21289062 708.53076172 Z M960.66210938 708.50537109 C960.39593811 709.34480003 960.39593811 709.34480003 960.12438965 710.20118713 C929.94476775 805.32461001 895.25983343 898.27051225 853.31835938 992.57958984 C852.8787085 993.57466553 852.43905762 994.56974121 851.98608398 995.5949707 C851.11150532 997.51749556 850.19857729 999.4230831 849.24633789 1001.30834961 C843.67908961 1012.52769755 842.93447362 1025.67955954 846.65234375 1037.70947266 C849.29837124 1044.40346527 852.62003459 1050.74939979 855.94775391 1057.12451172 C858.81828282 1062.78544655 861.29486789 1068.60783941 863.78710938 1074.44287109 C864.32120915 1075.68389602 864.85563882 1076.92477902 865.39038086 1078.16552734 C867.15808669 1082.27436719 868.91172669 1086.38912609 870.66210938 1090.50537109 C870.99488892 1091.28759033 871.32766846 1092.06980957 871.67053223 1092.87573242 C899.71240868 1158.84392807 925.11676649 1225.81161313 947.41210938 1293.94287109 C947.79251373 1295.10432648 948.17291809 1296.26578186 948.56484985 1297.46243286 C952.80083114 1310.419952 956.92550729 1323.39434719 960.66210938 1336.50537109 C970.27985699 1334.30673478 979.57728975 1331.34597191 988.91210938 1328.19287109 C990.06794525 1327.80429428 990.06794525 1327.80429428 991.24713135 1327.40786743 C996.21264465 1325.73833929 1001.17395942 1324.05674791 1006.13269043 1322.3671875 C1007.80571339 1321.79715989 1009.47896838 1321.22781281 1011.15246582 1320.65917969 C1054.60724932 1305.89068184 1097.10085483 1289.00509413 1138.66210938 1269.50537109 C1139.67337891 1269.03131836 1140.68464844 1268.55726563 1141.7265625 1268.06884766 C1166.0144515 1256.64239579 1189.62829771 1244.28992318 1212.66210938 1230.50537109 C1213.6448584 1229.92110352 1214.62760742 1229.33683594 1215.64013672 1228.73486328 C1239.39179258 1214.59706582 1262.29228513 1199.07114286 1283.66210938 1181.50537109 C1284.51417969 1180.82603516 1285.36625 1180.14669922 1286.24414062 1179.44677734 C1293.10613099 1173.93951469 1299.56212941 1168.0819332 1305.97851562 1162.07128906 C1307.68404358 1160.48496999 1309.40465014 1158.91679835 1311.13085938 1157.35302734 C1316.35167828 1152.61418731 1321.47129051 1147.89923789 1326.00195312 1142.47802734 C1327.92565404 1140.19221802 1329.94839671 1138.01322846 1331.97460938 1135.81787109 C1364.24707072 1099.93527001 1383.06345388 1057.16278179 1380.66210938 1008.50537109 C1378.76964351 988.29955855 1371.281523 969.20340618 1361.66210938 951.50537109 C1361.34661133 950.91062988 1361.03111328 950.31588867 1360.70605469 949.703125 C1351.2213758 931.86898008 1338.25979406 916.34118362 1324.66210938 901.50537109 C1323.70076622 900.43933052 1322.7398498 899.37290501 1321.77929688 898.30615234 C1316.47877355 892.45114165 1311.10117235 886.87408424 1305.14257812 881.67333984 C1302.51514802 879.37692455 1299.96741828 877.00662186 1297.41210938 874.63037109 C1291.64469076 869.38283246 1285.57774045 864.59314946 1279.39990234 859.84472656 C1277.75240052 858.57496048 1276.11416904 857.29425156 1274.47851562 856.00927734 C1253.34311716 839.51786157 1230.8042145 825.00420878 1207.66210938 811.50537109 C1206.78780273 810.99538574 1205.91349609 810.48540039 1205.01269531 809.95996094 C1136.89765245 770.43748125 1063.37444494 740.97577109 960.66210938 708.50537109 Z M806.66210938 1235.50537109 C806.40220215 1236.16617676 806.14229492 1236.82698242 805.87451172 1237.5078125 C784.41675805 1291.78002432 756.63684665 1343.04633587 720.52539062 1389.06396484 C718.66492157 1391.34379816 718.66492157 1391.34379816 717.66210938 1393.50537109 C730.41216106 1391.90197886 742.98893155 1389.44581675 755.59960938 1387.00537109 C756.72706573 1386.78805328 757.85452209 1386.57073547 759.0161438 1386.34683228 C775.74379062 1383.11767887 792.43636916 1379.73926751 809.09960938 1376.19287109 C810.04319305 1375.99258301 810.98677673 1375.79229492 811.95895386 1375.5859375 C825.24268544 1372.75884921 838.46263358 1369.70211257 851.66210938 1366.50537109 C849.65101588 1357.95614053 847.20008372 1349.62942162 844.45117188 1341.29052734 C844.04649689 1340.05290146 843.6418219 1338.81527557 843.22488403 1337.54014587 C842.14158743 1334.22942731 841.05238355 1330.92068435 839.96122742 1327.61254883 C839.28317424 1325.55593537 838.60655528 1323.49885496 837.93029785 1321.44165039 C828.44048723 1292.58379006 818.76782841 1263.789725 807.66210938 1235.50537109 C807.33210938 1235.50537109 807.00210937 1235.50537109 806.66210938 1235.50537109 Z M-315.33789062 1238.50537109 C-326.99047005 1268.76251345 -337.42251717 1299.45136306 -347.52539062 1330.25537109 C-347.89519043 1331.37915161 -348.26499023 1332.50293213 -348.64599609 1333.6607666 C-349.70839637 1336.8938341 -350.76447784 1340.12889296 -351.81835938 1343.36474609 C-352.13028732 1344.31329468 -352.44221527 1345.26184326 -352.76359558 1346.23913574 C-354.92873921 1352.92618498 -356.70782056 1359.66896964 -358.33789062 1366.50537109 C-346.50842129 1369.80793439 -334.59032624 1372.53752244 -322.58789062 1375.13037109 C-321.6127652 1375.34202911 -320.63763977 1375.55368713 -319.63296509 1375.77175903 C-303.13342277 1379.34686785 -286.59326021 1382.70024578 -270.02539062 1385.94287109 C-268.95832886 1386.15188049 -267.89126709 1386.36088989 -266.79187012 1386.57623291 C-260.8692051 1387.73359184 -254.94406786 1388.87678262 -249.0145874 1389.99871826 C-247.24795825 1390.33311089 -245.48171235 1390.66953554 -243.71588135 1391.00811768 C-241.32697684 1391.46443177 -238.93642036 1391.91053867 -236.54492188 1392.35302734 C-235.85001144 1392.48704453 -235.15510101 1392.62106171 -234.43913269 1392.75914001 C-231.24213601 1393.337969 -229.48025946 1393.55282737 -226.33789062 1392.50537109 C-227.10359375 1391.61011719 -227.10359375 1391.61011719 -227.88476562 1390.69677734 C-265.2946211 1346.05700299 -292.84073054 1292.33182496 -314.33789062 1238.50537109 C-314.66789063 1238.50537109 -314.99789062 1238.50537109 -315.33789062 1238.50537109 Z M-387.33789062 1475.50537109 C-389.54178637 1480.32619687 -390.52064468 1485.35041625 -391.62304688 1490.50537109 C-391.83999207 1491.5078035 -392.05693726 1492.5102359 -392.28045654 1493.54304504 C-392.99453704 1496.86228326 -393.69902341 1500.18342403 -394.40039062 1503.50537109 C-394.64332855 1504.65427826 -394.88626648 1505.80318542 -395.13656616 1506.98690796 C-405.63558887 1556.88274681 -413.3930776 1607.18980607 -417.65039062 1658.00537109 C-417.73197418 1658.97673004 -417.81355774 1659.94808899 -417.89761353 1660.94888306 C-419.69740565 1682.72457894 -420.54992302 1704.46904885 -420.52539062 1726.31787109 C-420.52478638 1727.32940247 -420.52418213 1728.34093384 -420.52355957 1729.38311768 C-420.40483743 1803.31950005 -411.87851921 1887.0951439 -365.33789062 1947.50537109 C-364.21060547 1948.96910156 -364.21060547 1948.96910156 -363.06054688 1950.46240234 C-338.97462793 1980.7285395 -304.59693868 1998.28562887 -266.49658203 2003.10839844 C-258.9037198 2003.90749225 -251.27737172 2003.89888432 -243.65039062 2003.88037109 C-242.37622787 2003.87955536 -242.37622787 2003.87955536 -241.07632446 2003.87872314 C-225.54328405 2003.83332242 -210.60509208 2002.53163489 -195.33789062 1999.50537109 C-194.2529834 1999.29106445 -193.16807617 1999.07675781 -192.05029297 1998.85595703 C-136.42030524 1987.52712894 -83.17465191 1962.96157377 -34.33789062 1934.50537109 C-33.49548828 1934.01456055 -32.65308594 1933.52375 -31.78515625 1933.01806641 C7.56366415 1909.97357484 44.67294549 1883.45440262 80.66210938 1855.50537109 C81.20512695 1855.08465332 81.74814453 1854.66393555 82.30761719 1854.23046875 C96.73684638 1843.0362475 110.76933922 1831.35607142 124.66210938 1819.50537109 C125.24089844 1819.01294922 125.8196875 1818.52052734 126.41601562 1818.01318359 C133.16765421 1812.26772873 139.86437361 1806.4776037 146.43164062 1800.52099609 C149.13856301 1798.07481054 151.8838805 1795.67528521 154.63476562 1793.27880859 C158.33168731 1790.04489252 161.99525185 1786.7732881 165.66210938 1783.50537109 C161.49825118 1778.58214667 157.21396817 1773.8174594 152.78710938 1769.13037109 C151.81970825 1768.10206177 151.81970825 1768.10206177 150.83276367 1767.05297852 C148.77748676 1764.86892175 146.72003281 1762.68693415 144.66210938 1760.50537109 C121.13965076 1735.55629571 121.13965076 1735.55629571 109.80664062 1722.89599609 C108.35264997 1721.27515406 106.89145832 1719.6607483 105.42382812 1718.05224609 C101.5856294 1713.83619361 97.86624175 1709.56925947 94.28710938 1705.13037109 C91.0425842 1701.11710825 87.67463754 1697.28121725 84.16210938 1693.50537109 C79.94491467 1688.96796584 75.97330379 1684.28638778 72.08789062 1679.46240234 C69.28211729 1676.04216013 66.38571433 1672.7108762 63.47460938 1669.38037109 C56.98454308 1661.93910059 50.70481237 1654.33636027 44.45458984 1646.69335938 C42.01241889 1643.7123275 39.55818807 1640.74132203 37.10449219 1637.76977539 C28.27120235 1627.06753989 19.63494023 1616.22140608 11.07226562 1605.30224609 C9.71836169 1603.57704994 8.36253438 1601.85338861 7.00585938 1600.13037109 C2.45998488 1594.35576853 -2.07395615 1588.57205487 -6.58666992 1582.77148438 C-7.79354012 1581.22199885 -9.00333159 1579.67478413 -10.21606445 1578.12988281 C-12.88224028 1574.72328522 -15.50511719 1571.31489009 -17.95898438 1567.75146484 C-23.30683304 1560.0819096 -29.05190585 1555.6209839 -37.35595703 1551.50195312 C-40.96661266 1549.68639556 -44.49075358 1547.71364744 -48.02539062 1545.75537109 C-48.77578613 1545.34585205 -49.52618164 1544.93633301 -50.29931641 1544.5144043 C-54.40476323 1542.24715891 -58.3787773 1539.86478412 -62.28710938 1537.27099609 C-63.11057861 1536.72797852 -63.93404785 1536.18496094 -64.7824707 1535.62548828 C-66.34801765 1534.58189516 -67.90236776 1533.52120426 -69.44213867 1532.43994141 C-73.50679986 1529.73227184 -76.95323316 1528.18724182 -81.8034668 1527.45288086 C-82.86317688 1527.29171783 -83.92288696 1527.13055481 -85.01470947 1526.96450806 C-90.53069145 1526.2024096 -96.05321661 1525.52181184 -101.58398438 1524.87646484 C-104.19008733 1524.56595794 -106.79612057 1524.25490107 -109.40209961 1523.94335938 C-110.07841116 1523.86277566 -110.75472271 1523.78219194 -111.45152855 1523.6991663 C-202.10595933 1512.89166612 -292.28314557 1497.64525597 -387.33789062 1475.50537109 Z M873.32910156 1476.43237305 C872.44345016 1476.63756058 871.55779877 1476.84274811 870.64530945 1477.05415344 C869.67632217 1477.28168808 868.7073349 1477.50922272 867.70898438 1477.74365234 C865.5913378 1478.2337138 863.47357494 1478.72327293 861.35571289 1479.21240234 C860.22803497 1479.47359863 859.10035706 1479.73479492 857.93850708 1480.00390625 C779.30354856 1498.15446585 699.51025411 1512.16220274 619.36914062 1521.73193359 C618.60671177 1521.82317505 617.84428291 1521.9144165 617.05875015 1522.00842285 C609.60784834 1522.89907933 602.15604733 1523.77937995 594.69904804 1524.61760139 C592.63176283 1524.85111175 590.56504305 1525.08907621 588.49845886 1525.32870483 C585.97841224 1525.61992409 583.45737389 1525.9027372 580.93525696 1526.17544556 C571.63896279 1527.26190037 565.44550147 1529.80728521 557.59960938 1534.94287109 C550.05780396 1539.77729188 542.27604817 1544.08586505 534.37670898 1548.3059082 C531.79553716 1549.68890528 529.22611459 1551.09083593 526.66210938 1552.50537109 C525.92718262 1552.90224121 525.19225586 1553.29911133 524.43505859 1553.70800781 C519.27110348 1556.67333842 516.16544042 1560.14818162 512.78710938 1565.00537109 C511.75010806 1566.44081562 510.71233686 1567.87570427 509.67382812 1569.31005859 C509.1664209 1570.02000977 508.65901367 1570.72996094 508.13623047 1571.46142578 C506.01791325 1574.39858242 503.81753403 1577.26808845 501.59960938 1580.13037109 C501.19685791 1580.65252197 500.79410645 1581.17467285 500.37915039 1581.71264648 C495.9765075 1587.41230077 491.51995803 1593.06965443 487.06201172 1598.72607422 C485.65075548 1600.51980206 484.24371957 1602.3167623 482.83789062 1604.11474609 C477.99043253 1610.31082755 473.10104704 1616.46344679 468.09960938 1622.53662109 C466.25763023 1624.78005723 464.42493104 1627.02969628 462.59960938 1629.28662109 C456.98457654 1636.2280067 451.33246729 1643.12806975 445.54321289 1649.92504883 C442.72906665 1653.23209425 439.96171173 1656.57186173 437.22460938 1659.94287109 C432.33094579 1665.95110574 427.28184146 1671.81996243 422.22363281 1677.68945312 C420.65952408 1679.50837758 419.10129861 1681.33217189 417.54492188 1683.15771484 C413.07979014 1688.39177081 408.60547609 1693.60374153 403.97460938 1698.69287109 C400.8724293 1702.10358626 397.92972663 1705.6027087 395.03710938 1709.19287109 C391.97672582 1712.97584521 388.81915622 1716.46778465 385.32617188 1719.84912109 C382.97079157 1722.19344327 380.83266165 1724.7056688 378.66210938 1727.22021484 C374.88284399 1731.53832081 370.97078095 1735.73735143 367.08398438 1739.95849609 C365.73182907 1741.42952219 364.38433968 1742.90483314 363.03710938 1744.38037109 C357.75832518 1750.16189664 352.44453879 1755.90991344 347.09960938 1761.63037109 C346.46224854 1762.31301025 345.8248877 1762.99564941 345.16821289 1763.69897461 C340.74829605 1768.40903917 336.21759871 1772.95974212 331.51757812 1777.39208984 C329.52413645 1779.66251499 328.60597994 1781.65378329 327.66210938 1784.50537109 C328.26796875 1785.05064453 328.87382813 1785.59591797 329.49804688 1786.15771484 C330.75488281 1787.28886719 330.75488281 1787.28886719 332.03710938 1788.44287109 C332.95363281 1789.26658203 333.87015625 1790.09029297 334.81445312 1790.93896484 C336.60304762 1792.55090803 338.38754059 1794.1674261 340.16601562 1795.79052734 C344.38671801 1799.63184075 348.66058 1803.35507605 353.09960938 1806.94287109 C356.9029844 1810.01873697 360.56293589 1813.19290275 364.16210938 1816.50537109 C368.57851082 1820.56520755 373.12374459 1824.3986093 377.79101562 1828.16552734 C380.33986253 1830.24275088 382.84957263 1832.355282 385.34887695 1834.49121094 C392.00443169 1840.17826702 398.81249739 1845.63533653 405.72851562 1851.00146484 C407.78440912 1852.60049312 409.83299775 1854.20857149 411.88085938 1855.81787109 C421.90963448 1863.68314263 432.0779679 1871.33426133 442.37988281 1878.83789062 C444.49432442 1880.3827811 446.59892356 1881.94004604 448.70117188 1883.50146484 C477.11266919 1904.47152837 507.14264324 1923.85698795 537.99169922 1941.01953125 C539.79408445 1942.02239435 541.59383801 1943.02999983 543.39111328 1944.04199219 C594.3105805 1972.66915722 650.5207575 1995.68655319 708.66210938 2003.50537109 C709.41669434 2003.60849609 710.1712793 2003.71162109 710.94873047 2003.81787109 C751.90306943 2008.67171867 796.01050598 2002.33607568 829.69335938 1977.24755859 C832.40788227 1975.05916513 835.04539772 1972.80951995 837.66210938 1970.50537109 C838.51417969 1969.77447266 839.36625 1969.04357422 840.24414062 1968.29052734 C894.76333282 1920.63857595 908.04757356 1838.88554084 912.80874634 1770.39599609 C913.73425067 1756.47870777 913.86338764 1742.57461763 913.84960938 1728.63037109 C913.84900513 1727.49264252 913.84840088 1726.35491394 913.84777832 1725.18270874 C913.73971624 1649.7217753 902.86785813 1574.83585261 887.22460938 1501.13037109 C887.00937622 1500.11388489 886.79414307 1499.09739868 886.5723877 1498.05010986 C885.96421586 1495.19261292 885.34837027 1492.33691674 884.72851562 1489.48193359 C884.5486763 1488.64170654 884.36883698 1487.80147949 884.18354797 1486.93579102 C883.30683699 1482.95499911 882.34079119 1479.24299122 880.66210938 1475.50537109 C877.95138797 1475.50537109 875.9444378 1475.82018818 873.32910156 1476.43237305 Z M316.77148438 1618.12646484 C315.58554688 1618.25730469 314.39960937 1618.38814453 313.17773438 1618.52294922 C310.71404686 1618.79768616 308.25049882 1619.07367745 305.78710938 1619.35107422 C304.58570313 1619.48320313 303.38429688 1619.61533203 302.14648438 1619.75146484 C301.07108398 1619.87191162 299.99568359 1619.9923584 298.88769531 1620.11645508 C287.44488787 1621.23707721 276.0455218 1621.66982924 264.55273438 1621.70849609 C263.14351377 1621.71530644 261.7342934 1621.72216394 260.32507324 1621.72906494 C256.61487852 1621.74462797 252.90472868 1621.75120565 249.19450378 1621.75375366 C247.6680241 1621.75483541 246.14154475 1621.75656887 244.61506653 1621.75894165 C222.78576687 1621.79217287 201.21236139 1621.3291918 179.5078125 1618.78662109 C175.86328799 1618.42642101 172.32029512 1618.39617152 168.66210938 1618.50537109 C170.27823846 1622.42892147 172.97542748 1625.21931774 175.84960938 1628.25537109 C176.85159654 1629.33025372 177.85289943 1630.40577462 178.85351562 1631.48193359 C179.33836426 1632.00174805 179.82321289 1632.5215625 180.32275391 1633.05712891 C182.01299137 1634.88477904 183.65603467 1636.7498379 185.28710938 1638.63037109 C188.59556451 1642.44297177 191.96770851 1646.19535932 195.34960938 1649.94287109 C197.58328431 1652.4180244 199.81028653 1654.89905421 202.03710938 1657.38037109 C206.72343751 1662.58649992 211.45201336 1667.75315282 216.19433594 1672.90820312 C217.714425 1674.56229871 219.231313 1676.21929265 220.74804688 1677.87646484 C225.67650163 1683.25070948 230.63233556 1688.55219105 235.84960938 1693.64990234 C238.44244381 1696.30420483 240.78526234 1699.15392108 243.11914062 1702.03662109 C244.66922333 1703.85010709 244.66922333 1703.85010709 247.66210938 1703.50537109 C249.64795948 1701.95319936 249.64795948 1701.95319936 251.64648438 1699.84912109 C252.80277344 1698.68509766 252.80277344 1698.68509766 253.98242188 1697.49755859 C254.78421875 1696.67513672 255.58601563 1695.85271484 256.41210938 1695.00537109 C257.1984375 1694.21388672 257.98476562 1693.42240234 258.79492188 1692.60693359 C263.05903283 1688.28615671 267.17435412 1683.88188124 271.11425781 1679.26318359 C272.72768775 1677.43089723 274.41945199 1675.71454532 276.16210938 1674.00537109 C279.10751667 1671.10537756 281.81674646 1668.06910678 284.51367188 1664.93896484 C287.33831057 1661.73941956 290.24961521 1658.62484245 293.16210938 1655.50537109 C297.17816116 1651.20003224 301.15340183 1646.87569438 304.99804688 1642.41552734 C306.97751063 1640.14332599 309.00794108 1637.92077237 311.03710938 1635.69287109 C319.17595627 1627.18799777 319.17595627 1627.18799777 325.66210938 1617.50537109 C322.63900137 1617.50537109 319.7754282 1617.78892002 316.77148438 1618.12646484 Z " fill="#76DEFB" transform="translate(1002.337890625,221.49462890625)"/>
<path d="M0 0 C1.40761856 -0.0071075 2.81523675 -0.01428604 4.22285461 -0.02153015 C8.69545085 -0.04117306 13.16798938 -0.04648003 17.640625 -0.046875 C18.40380413 -0.04702229 19.16698326 -0.04716957 19.95328903 -0.04732132 C42.71421457 -0.04325077 65.30253546 0.01130906 87.890625 3.203125 C88.68938049 3.31483032 89.48813599 3.42653564 90.31109619 3.54162598 C139.12388555 10.43166694 186.85597799 21.31855786 232.890625 39.203125 C233.92767578 39.60289551 234.96472656 40.00266602 236.03320312 40.41455078 C253.90714686 47.35507944 271.25791177 55.29262714 288.53271484 63.59082031 C291.22735676 64.88465594 293.92675196 66.16730787 296.62890625 67.4453125 C314.7731788 76.14741153 333.25105032 86.48034489 348.890625 99.203125 C347.44108941 102.50576008 345.43112113 105.27327128 343.31079102 108.17602539 C333.05787085 122.35949601 325.38788659 138.00147788 321.890625 155.203125 C321.66890625 156.10804688 321.4471875 157.01296875 321.21875 157.9453125 C315.11612613 186.39673461 321.67844119 219.08968618 337.265625 243.453125 C355.89365498 271.66449555 382.16996853 290.45312164 415.44921875 297.36328125 C416.92918124 297.64589331 418.40958757 297.9262014 419.890625 298.203125 C420.84453125 298.40292969 421.7984375 298.60273437 422.78125 298.80859375 C437.4662344 300.67188951 452.52748248 299.55711288 466.890625 296.203125 C467.86644531 295.9865625 468.84226562 295.77 469.84765625 295.546875 C488.41384384 290.98008215 504.48696937 281.59857864 518.890625 269.203125 C523.46932788 273.32478857 526.36565353 277.90202382 529.453125 283.203125 C529.97342285 284.08540771 530.4937207 284.96769043 531.02978516 285.87670898 C532.65856484 288.64730096 534.27500266 291.42484475 535.890625 294.203125 C536.3851416 295.04504395 536.8796582 295.88696289 537.38916016 296.75439453 C554.76068386 326.33890779 571.3729747 357.76097697 582.01025391 390.51806641 C582.91842012 393.28789781 583.86008764 396.04538438 584.80679321 398.80224609 C598.83902456 439.70021875 609.36038382 481.24559473 614.69555664 524.1965332 C614.95335881 526.26750324 615.21578093 528.33785375 615.47851562 530.40820312 C621.21837327 576.06067891 620.86003159 624.00222088 615.31884766 669.63769531 C614.89768447 673.14434708 614.50857927 676.65355198 614.12109375 680.1640625 C609.24626127 722.19177257 598.29489993 763.40885753 583.9621582 803.14794922 C582.75346282 806.5942044 581.63320225 810.06475009 580.5078125 813.5390625 C578.03361182 821.07101418 575.02242041 828.3217506 571.828125 835.578125 C571.54783447 836.21831573 571.26754395 836.85850647 570.97875977 837.51809692 C562.07396132 857.84618785 552.45008133 877.58624621 541.29052734 896.78222656 C540.10234423 898.83699178 538.93524645 900.90034402 537.78515625 902.9765625 C528.46201388 919.71448548 517.89623306 935.70803958 506.46972656 951.07714844 C504.87891278 953.2188934 503.30206539 955.3704128 501.7265625 957.5234375 C496.77266678 964.25541544 491.72966177 970.72269516 486.03125 976.8515625 C483.73522988 979.37383277 481.5928053 981.98472813 479.453125 984.640625 C475.54654579 989.46760245 471.44275535 994.06833345 467.23828125 998.63671875 C465.18738402 1000.87871456 463.18584967 1003.15103529 461.203125 1005.453125 C458.47893044 1008.5920096 455.60066909 1011.51464072 452.63671875 1014.42578125 C450.82584857 1016.26906074 449.13741146 1018.18135299 447.453125 1020.140625 C442.01536226 1026.42803817 436.11466116 1032.0855174 429.8125 1037.49609375 C427.9806648 1039.12315062 426.27934389 1040.81614829 424.578125 1042.578125 C420.87898122 1046.34452594 416.8127529 1049.58505473 412.703125 1052.890625 C410.08096606 1055.04662235 407.57453932 1057.27879603 405.078125 1059.578125 C398.95187271 1065.13872959 392.45562206 1070.17917789 385.890625 1075.203125 C385.15553711 1075.76805664 384.42044922 1076.33298828 383.66308594 1076.91503906 C371.50513365 1086.2349533 359.05465886 1095.03564074 346.328125 1103.56054688 C344.2208508 1104.98059303 342.13001705 1106.41992975 340.046875 1107.875 C329.39270834 1115.25722808 318.05624675 1121.43385595 306.69628906 1127.65478516 C304.95017019 1128.6184021 303.21107466 1129.59500362 301.48339844 1130.59130859 C296.93922572 1133.20435745 292.39718068 1135.26173543 287.50732422 1137.14404297 C282.70068189 1139.0894819 278.09991147 1141.47036814 273.453125 1143.765625 C246.01679122 1157.09231153 216.65112861 1169.09688994 187.02783203 1176.63623047 C184.75673021 1177.23864062 182.51077931 1177.90206109 180.26171875 1178.58203125 C150.10824421 1187.67012029 119.03906518 1192.89737606 87.890625 1197.203125 C86.79213226 1197.35681549 86.79213226 1197.35681549 85.67144775 1197.51361084 C42.14446214 1203.51950832 -6.61907044 1203.34853393 -50.109375 1197.203125 C-50.90813049 1197.09141968 -51.70688599 1196.97971436 -52.52984619 1196.86462402 C-72.87933908 1193.99224485 -93.08202109 1190.40671185 -113.171875 1186.078125 C-113.90694275 1185.9202652 -114.6420105 1185.7624054 -115.39935303 1185.59976196 C-126.42302373 1183.21154412 -137.27003361 1180.31592347 -148.109375 1177.203125 C-149.27283447 1176.87328613 -150.43629395 1176.54344727 -151.63500977 1176.20361328 C-179.46717598 1168.21321668 -206.61480817 1157.56775902 -232.81787109 1145.26123047 C-235.32380928 1144.10410964 -237.84833926 1142.99670733 -240.37890625 1141.89453125 C-253.25544766 1136.24906673 -265.44035261 1129.75035097 -277.58300781 1122.67041016 C-279.82984243 1121.36547432 -282.08591388 1120.08048881 -284.3515625 1118.80859375 C-290.17724718 1115.53594974 -295.86635923 1112.17288941 -301.33984375 1108.33203125 C-303.22182414 1107.03028459 -303.22182414 1107.03028459 -306.109375 1106.203125 C-306.65464844 1105.64367188 -307.19992187 1105.08421875 -307.76171875 1104.5078125 C-311.06332355 1101.26663641 -314.83049701 1098.88788172 -318.671875 1096.328125 C-334.81158344 1085.41154783 -350.23307758 1073.78537952 -365.109375 1061.203125 C-365.73714844 1060.67444824 -366.36492187 1060.14577148 -367.01171875 1059.60107422 C-374.64133076 1053.16711758 -382.11855915 1046.58460684 -389.41796875 1039.77685547 C-391.30882994 1038.01754668 -393.20945721 1036.26905385 -395.109375 1034.51953125 C-404.27648033 1026.03337492 -412.99811309 1017.25182378 -421.4296875 1008.03564453 C-423.00132044 1006.32101127 -424.58400211 1004.6175539 -426.171875 1002.91796875 C-431.2433003 997.47213131 -436.0821207 991.89265077 -440.74609375 986.09375 C-442.90245327 983.45621935 -445.11096498 980.88078006 -447.34936523 978.31347656 C-487.89916635 931.712347 -526.83093489 870.29439494 -543.921875 810.265625 C-545.56703835 804.74720306 -547.50770356 799.39592551 -549.546875 794.015625 C-552.70045054 785.62527864 -555.18791391 777.17689684 -557.47802734 768.51757812 C-558.11666252 766.17640974 -558.80193204 763.85416397 -559.50390625 761.53125 C-565.66740424 741.02047554 -570.51612323 719.71743228 -573.75146484 698.53613281 C-574.01424263 696.82323752 -574.28681851 695.11183792 -574.56494141 693.40136719 C-582.4746806 644.31015235 -584.29988584 592.65951059 -579.109375 543.203125 C-578.96746005 541.76925278 -578.8260464 540.33533087 -578.68505859 538.90136719 C-573.79797354 490.03931755 -562.32401033 442.49597823 -546.109375 396.203125 C-545.74295898 395.13916504 -545.37654297 394.07520508 -544.99902344 392.97900391 C-527.30515156 341.85563394 -500.93886142 292.7071608 -468.68847656 249.32910156 C-467.09766278 247.1873566 -465.52081539 245.0358372 -463.9453125 242.8828125 C-458.99253082 236.15234846 -453.95063774 229.68642924 -448.25390625 223.55859375 C-445.93706864 221.01387047 -443.77135302 218.38039312 -441.609375 215.703125 C-437.94689997 211.17926646 -434.13691213 206.83056664 -430.21875 202.52734375 C-428.36310843 200.48270165 -426.54181124 198.41528351 -424.734375 196.328125 C-414.44530818 184.54891747 -403.82570128 172.93063583 -391.90234375 162.77734375 C-390.05507871 161.1554531 -388.33180786 159.45652295 -386.609375 157.703125 C-382.94669172 153.99116796 -379.0748517 150.58699845 -375.109375 147.203125 C-374.1503125 146.378125 -373.19125 145.553125 -372.203125 144.703125 C-364.34662733 137.97349927 -356.31473844 131.50179023 -348.109375 125.203125 C-347.3786377 124.64109375 -346.64790039 124.0790625 -345.89501953 123.5 C-333.73256035 114.17739017 -321.27773505 105.37350717 -308.546875 96.84570312 C-306.4396008 95.42565697 -304.34876705 93.98632025 -302.265625 92.53125 C-291.66295132 85.18413236 -280.38788925 79.02100355 -269.08007812 72.83398438 C-267.12978843 71.76331252 -265.18551155 70.68159935 -263.24804688 69.58789062 C-258.15232878 66.73385878 -253.10874426 64.31229878 -247.65576172 62.22705078 C-242.86961425 60.30249637 -238.29446665 57.92392647 -233.671875 55.640625 C-203.99659668 41.22698165 -172.89846651 29.95300531 -141.109375 21.203125 C-139.59103712 20.77251856 -138.07280104 20.34155295 -136.5546875 19.91015625 C-126.25067436 17.03894109 -115.8135585 14.76251172 -105.359375 12.515625 C-104.66562775 12.36496582 -103.97188049 12.21430664 -103.2571106 12.05908203 C-94.68960896 10.20640245 -86.17231452 8.70043705 -77.46630859 7.66455078 C-74.08509033 7.19978696 -70.8103739 6.52615895 -67.484375 5.765625 C-45.5403522 1.19588664 -22.37279478 0.07588937 0 0 Z " fill="#4A8CFE" transform="translate(1229.109375,643.796875)"/>
<path d="M0 0 C0.88961426 0.11827148 1.77922852 0.23654297 2.69580078 0.35839844 C77.45883665 10.80900242 150.30348643 51.92216117 196.19921875 112.2734375 C197.13294029 113.51552894 198.06652972 114.75771971 199 116 C199.49967285 116.65387695 199.9993457 117.30775391 200.51416016 117.98144531 C230.71163174 157.61151234 248.41400231 203.25666284 257 252 C257.19553467 253.09900635 257.19553467 253.09900635 257.39501953 254.22021484 C269.95956932 326.51787017 250.28119084 407.360602 208.34033203 467.1171875 C190.27536729 492.4936917 169.69597319 515.70555025 144.83447266 534.59814453 C142.96405178 536.02747068 141.11250373 537.4789602 139.26171875 538.93359375 C110.28252631 561.47909648 76.9701582 576.50424592 42 587 C41.19691406 587.24878906 40.39382813 587.49757813 39.56640625 587.75390625 C28.62079882 591.12030572 17.48814 593.02557414 6.1875 594.75 C5.48939209 594.85718353 4.79128418 594.96436707 4.07202148 595.07479858 C-54.71462513 603.99227269 -116.58596716 595.35236552 -170 569 C-170.78938965 568.61070312 -171.5787793 568.22140625 -172.39208984 567.8203125 C-212.78534959 547.70567165 -249.35862792 518.6472168 -276.73583984 482.65820312 C-277.9137633 481.11311696 -279.10670362 479.57951114 -280.30078125 478.046875 C-294.29061039 459.85761225 -305.68543785 439.94043003 -315 419 C-315.48855469 417.95585938 -315.97710938 416.91171875 -316.48046875 415.8359375 C-326.60741827 393.51863855 -333.36183484 368.78971657 -336.64404297 344.51953125 C-337.00516236 341.96345983 -337.42312325 339.42124076 -337.84765625 336.875 C-342.19265111 309.16695785 -341.53815446 279.62646193 -337 252 C-336.83371094 250.95312012 -336.66742187 249.90624023 -336.49609375 248.82763672 C-331.93245707 220.80775263 -323.64536295 193.44300911 -311 168 C-310.61215332 167.21496094 -310.22430664 166.42992187 -309.82470703 165.62109375 C-297.576844 141.02080696 -282.17776038 118.58863795 -264 98 C-263.54189941 97.47873535 -263.08379883 96.9574707 -262.61181641 96.42041016 C-250.8919117 83.16881126 -238.0464842 70.97927919 -223.86328125 60.39208984 C-222.57957269 59.43300884 -221.30121209 58.4667418 -220.02734375 57.49462891 C-158.10135967 10.3010362 -77.12866295 -10.31446824 0 0 Z " fill="#86C1FF" transform="translate(1288,946)"/>
<path d="M0 0 C0.65613281 0.18804199 1.31226563 0.37608398 1.98828125 0.56982422 C17.90232538 5.27885281 33.66596277 12.78924116 46 24 C46.825 24.70769531 47.65 25.41539062 48.5 26.14453125 C71.86263626 46.47999666 86.40219692 75.15099057 88.875 106.1640625 C90.25522725 137.47796832 83.10914611 168.30203746 63 193 C62.18015625 194.01449219 61.3603125 195.02898437 60.515625 196.07421875 C43.68661366 215.5805728 19.36735684 230.16487964 -6 235 C-6.99128906 235.20367188 -7.98257812 235.40734375 -9.00390625 235.6171875 C-41.17026895 241.26855808 -73.656867 233.96929655 -100.609375 215.62109375 C-123.31020742 198.81694097 -139.49527488 176.26964475 -147 149 C-147.3403125 148.0203125 -147.680625 147.040625 -148.03125 146.03125 C-156.92298682 118.20871866 -150.2616279 85.68767865 -137.3125 60.4375 C-133.47800791 53.12825028 -129.07553266 46.75358626 -123.73828125 40.46875 C-123.16464844 39.6540625 -122.59101562 38.839375 -122 38 C-123.11179163 34.66462511 -124.47411298 33.36292656 -127 31 C-126.33355469 31.11601563 -125.66710938 31.23203125 -124.98046875 31.3515625 C-120.32854971 31.80699513 -117.2140635 31.86290269 -113.3125 29.08984375 C-111.50107732 27.3458103 -109.71050328 25.57995216 -107.9375 23.796875 C-95.88091248 11.85526856 -77.99999849 4.49845478 -62 0 C-60.86175781 -0.32097656 -59.72351562 -0.64195312 -58.55078125 -0.97265625 C-40.18988869 -5.24032317 -18.12848645 -5.22784204 0 0 Z " fill="#86C1FE" transform="translate(1699,707)"/>
<path d="M0 0 C3.3 0.33 6.6 0.66 10 1 C9.34 2.32 8.68 3.64 8 5 C4.20411134 4.45773019 2.52788007 2.79872437 0 0 Z " fill="#75DBFB" transform="translate(1572,738)"/>
</svg>
