<?xml version="1.0" encoding="UTF-8"?>
<svg version="1.1" xmlns="http://www.w3.org/2000/svg" width="225" height="225">
<path d="M0 0 C74.25 0 148.5 0 225 0 C225 74.25 225 148.5 225 225 C150.75 225 76.5 225 0 225 C0 150.75 0 76.5 0 0 Z " fill="#000000" transform="translate(0,0)"/>
<path d="M0 0 C74.25 0 148.5 0 225 0 C225 1.65 225 3.3 225 5 C150.75 5 76.5 5 0 5 C0 3.35 0 1.7 0 0 Z " fill="#C0C0C0" transform="translate(0,0)"/>
<path d="M0 0 C1.98 0 3.96 0 6 0 C6 10.89 6 21.78 6 33 C3 33 0 33 -3 33 C-3.99 33.495 -3.99 33.495 -5 34 C-9.64714337 34.41307941 -12.30705755 33.89446841 -16 31 C-19.15045989 27.30635737 -19.51984525 23.91522139 -19.35546875 19.21875 C-18.67926313 14.99803799 -16.53714409 12.16610931 -13.1875 9.625 C-10.03171002 8.72334572 -7.26095653 8.76283952 -4 9 C-3.01 9.66 -2.02 10.32 -1 11 C-0.67 7.37 -0.34 3.74 0 0 Z " fill="#F5F5F5" transform="translate(187,96)"/>
<path d="M0 0 C3.87485635 -0.08751413 7.74945643 -0.14056435 11.625 -0.1875 C13.26662109 -0.22520508 13.26662109 -0.22520508 14.94140625 -0.26367188 C25.1337327 -0.35632939 25.1337327 -0.35632939 30 3 C32.17222379 5.64444635 31.99893321 7.02987018 31.875 10.5 C30.89789396 14.40842415 30.25417633 15.68782208 27 18 C24.67756481 18.70369289 22.34462939 19.37421896 20 20 C20.42410156 20.38857178 20.84820312 20.77714355 21.28515625 21.17749023 C23.19267081 22.92805408 25.09637358 24.68270924 27 26.4375 C27.66773437 27.04916016 28.33546875 27.66082031 29.0234375 28.29101562 C29.65507813 28.87431641 30.28671875 29.45761719 30.9375 30.05859375 C31.52402344 30.59798584 32.11054687 31.13737793 32.71484375 31.69311523 C34 33 34 33 34 34 C23.79343864 35.22478736 23.79343864 35.22478736 19.59765625 32.359375 C17.62348474 30.31320876 15.81045953 28.19094871 14 26 C12.3603279 24.63360658 10.7074998 23.28062485 9 22 C9.33 20.35 9.66 18.7 10 17 C15.445 15.515 15.445 15.515 21 14 C21.04254356 12.00045254 21.04080783 9.99958364 21 8 C19.41596476 6.41596476 17.7228362 6.78025065 15.52734375 6.68359375 C14.17866211 6.62075195 14.17866211 6.62075195 12.80273438 6.55664062 C11.85720703 6.51732422 10.91167969 6.47800781 9.9375 6.4375 C8.98810547 6.39431641 8.03871094 6.35113281 7.06054688 6.30664062 C4.70718647 6.20020724 2.35371646 6.09818992 0 6 C0 4.02 0 2.04 0 0 Z " fill="#ECECEC" transform="translate(31,95)"/>
<path d="M0 0 C2.99124725 2.6434278 4.31536735 4.63975002 5.6875 8.375 C5.6875 10.025 5.6875 11.675 5.6875 13.375 C-2.7275 13.87 -2.7275 13.87 -11.3125 14.375 C-11.3125 15.035 -11.3125 15.695 -11.3125 16.375 C-7.30995544 16.46681134 -7.30995544 16.46681134 -3.3125 16.375 C-2.9825 16.045 -2.6525 15.715 -2.3125 15.375 C0.02047433 15.33407063 2.35455225 15.33258277 4.6875 15.375 C3.76099738 18.80305969 3.02635367 20.14102961 0.0625 22.1875 C-3.93080226 23.59255079 -7.13193916 24.13283075 -11.3125 23.375 C-15.37514781 21.26844188 -17.6102237 19.59974027 -19.3125 15.375 C-20.04901586 10.66472412 -19.73496633 7.20484458 -17.5625 2.9375 C-12.64689683 -2.66082583 -6.59939354 -3.23743834 0 0 Z " fill="#ECECEC" transform="translate(83.3125,106.625)"/>
<path d="M0 0 C3.22541545 1.50519388 5.72332068 3.26798481 8 6 C8.67953435 9.00343806 8.77644404 11.9149277 9 15 C3.39 15 -2.22 15 -8 15 C-7.01 16.485 -7.01 16.485 -6 18 C-2.92078868 18.25660094 -0.78863007 18.39431504 2 17 C3.99960012 16.960008 6.00047242 16.95653201 8 17 C7.62118922 19.74637817 7.22167713 20.80049058 5.125 22.6875 C1.07702259 25.18772134 -2.32104008 25.39652203 -7 25 C-10.60937158 23.19531421 -12.58066396 21.58165967 -14.9375 18.3125 C-16.35649975 13.88855961 -16.53615625 10.41940336 -15 6 C-10.9780961 0.33224494 -6.68366938 -0.97021007 0 0 Z " fill="#EEEEEE" transform="translate(131,105)"/>
<path d="M0 0 C2.69940467 1.39606615 3.94615082 2.66860363 6 5 C6 5.66 6 6.32 6 7 C-0.15234375 7.09765625 -0.15234375 7.09765625 -2 7 C-2.33 6.67 -2.66 6.34 -3 6 C-4.66617115 5.95936168 -6.33388095 5.957279 -8 6 C-8 6.66 -8 7.32 -8 8 C-7.24074219 8.10957031 -6.48148438 8.21914062 -5.69921875 8.33203125 C-4.70535156 8.49058594 -3.71148437 8.64914063 -2.6875 8.8125 C-1.70136719 8.96332031 -0.71523437 9.11414063 0.30078125 9.26953125 C3.18300636 10.0495256 4.30245155 10.57250572 6 13 C6.60885342 15.72064233 6.52519367 18.26556775 6 21 C2.89861752 24.31527093 -0.34747086 24.946514 -4.8125 25.3125 C-9.16977565 25.25622522 -11.69408385 23.90275564 -15 21 C-15.875 18.75 -15.875 18.75 -16 17 C-13.66705225 16.95758277 -11.33297433 16.95907063 -9 17 C-8.67 17.33 -8.34 17.66 -8 18 C-5.67182036 18.36760731 -3.3381615 18.70241581 -1 19 C-1.33 18.01 -1.66 17.02 -2 16 C-2.88751953 15.97873047 -2.88751953 15.97873047 -3.79296875 15.95703125 C-8.09944984 15.69709683 -10.47515126 15.37489196 -14.0625 12.8125 C-16 10 -16 10 -16.625 6.9375 C-16 4 -16 4 -14.1875 1.625 C-9.4777079 -0.77607048 -5.1815203 -0.90146333 0 0 Z " fill="#F0F0F0" transform="translate(107,105)"/>
<path d="M0 0 C2.31 0 4.62 0 7 0 C7.33 0.66 7.66 1.32 8 2 C8.99 1.34 9.98 0.68 11 0 C15.62362084 -0.50256748 18.3198911 0.13769308 22 3 C24.7919648 6.85098593 24.22288522 11.20963192 24.125 15.75 C24.11597656 16.54277344 24.10695312 17.33554688 24.09765625 18.15234375 C24.07417012 20.10169281 24.03830137 22.05088575 24 24 C21.69 24 19.38 24 17 24 C16.67 18.39 16.34 12.78 16 7 C14.02 7 12.04 7 10 7 C7.15385976 9.84614024 7.54420924 12.80369142 7.375 16.625 C7.33632812 17.33140625 7.29765625 18.0378125 7.2578125 18.765625 C7.16352276 20.50998524 7.08067109 22.25495691 7 24 C4.69 24 2.38 24 0 24 C0 16.08 0 8.16 0 0 Z " fill="#F0F0F0" transform="translate(142,105)"/>
<path d="M0 0 C3.5 0.1875 3.5 0.1875 7 1 C9 4 9 4 8.8125 7.5625 C8 11 8 11 5 13 C2.5 13.375 2.5 13.375 0 13 C-1.875 11.4375 -1.875 11.4375 -3 9 C-2.67272727 2.67272727 -2.67272727 2.67272727 0 0 Z " fill="#0F0F0F" transform="translate(178,111)"/>
<path d="M0 0 C2.45840605 -0.02691685 4.91651882 -0.04679802 7.375 -0.0625 C8.07367188 -0.07087891 8.77234375 -0.07925781 9.4921875 -0.08789062 C14.7734375 -0.11328125 14.7734375 -0.11328125 17 1 C16.67 1.99 16.34 2.98 16 4 C16 3.34 16 2.68 16 2 C14.80375 2.33 13.6075 2.66 12.375 3 C8.84208503 3.89265823 5.65920891 4.18296045 2 4 C1.34 2.68 0.68 1.36 0 0 Z " fill="#0C0C0C" transform="translate(123,120)"/>
<path d="M0 0 C5.28 0 10.56 0 16 0 C16.33 0.66 16.66 1.32 17 2 C15.2984375 2.2165625 15.2984375 2.2165625 13.5625 2.4375 C10.19222799 2.61171478 10.19222799 2.61171478 9 4 C3.61120543 4.46859083 3.61120543 4.46859083 1.125 2.5625 C0 1 0 1 0 0 Z " fill="#090909" transform="translate(71,120)"/>
<path d="M0 0 C0.33 1.32 0.66 2.64 1 4 C-1.33294775 4.04241723 -3.66702567 4.04092937 -6 4 C-6.33 3.67 -6.66 3.34 -7 3 C-9.32817964 2.63239269 -11.6618385 2.29758419 -14 2 C-14.33 2.66 -14.66 3.32 -15 4 C-15 3.01 -15 2.02 -15 1 C-9.91913204 0.15318867 -5.15171623 -0.09038099 0 0 Z " fill="#121212" transform="translate(105,120)"/>
<path d="M0 0 C2.97 0.99 5.94 1.98 9 3 C9 3.99 9 4.98 9 6 C5.7 6 2.4 6 -1 6 C-1 1 -1 1 0 0 Z " fill="#BBBBBB" transform="translate(10,214)"/>
<path d="M0 0 C2.31 0 4.62 0 7 0 C7.66 1.32 8.32 2.64 9 4 C5.37 4 1.74 4 -2 4 C-1.34 2.68 -0.68 1.36 0 0 Z " fill="#080808" transform="translate(124,111)"/>
<path d="M0 0 C1.66611905 -0.042721 3.33382885 -0.04063832 5 0 C5.33 0.33 5.66 0.66 6 1 C7.34747084 1.23075082 8.70377565 1.41153063 10.0625 1.5625 C11.361875 1.706875 12.66125 1.85125 14 2 C14 2.33 14 2.66 14 3 C9.23692563 3.95261487 4.8333472 4.08333357 0 4 C0 2.68 0 1.36 0 0 Z " fill="#202020" transform="translate(99,110)"/>
<path d="M0 0 C1.98 0 3.96 0 6 0 C6.66 1.32 7.32 2.64 8 4 C4.7 4 1.4 4 -2 4 C-1.34 2.68 -0.68 1.36 0 0 Z " fill="#000000" transform="translate(73,111)"/>
</svg>
